<?xml version="1.0" encoding="UTF-8" standalone="no"?>
<!DOCTYPE svg PUBLIC "-//W3C//DTD SVG 1.1//EN"
 "http://www.w3.org/Graphics/SVG/1.1/DTD/svg11.dtd">
<!-- Generated by graphviz version 12.1.2 (20240928.0832)
 -->
<!-- Title: cat_coins Pages: 1 -->
<svg width="872pt" height="848pt"
 viewBox="0.00 0.00 872.36 848.40" xmlns="http://www.w3.org/2000/svg" xmlns:xlink="http://www.w3.org/1999/xlink">
<g id="graph0" class="graph" transform="scale(1 1) rotate(0) translate(4 844.4)">
<title>cat_coins</title>
<polygon fill="white" stroke="none" points="-4,4 -4,-844.4 868.36,-844.4 868.36,4 -4,4"/>
<!-- cat_coins -->
<g id="node1" class="node">
<title>cat_coins</title>
<polygon fill="#efefef" stroke="none" points="46.2,-758.6 46.2,-794.2 274.23,-794.2 274.23,-758.6 46.2,-758.6"/>
<polygon fill="none" stroke="black" points="46.2,-758.6 46.2,-794.2 274.23,-794.2 274.23,-758.6 46.2,-758.6"/>
<text text-anchor="start" x="91.6" y="-772" font-family="Arial Bold" font-size="18.00">cat_coins</text>
<text text-anchor="start" x="159.58" y="-772" font-family="Arial" font-size="14.00">    </text>
<text text-anchor="start" x="190.69" y="-772" font-family="Arial" font-size="14.00" fill="#666666">[table]</text>
<polygon fill="none" stroke="black" points="46.2,-727.8 46.2,-758.6 274.23,-758.6 274.23,-727.8 46.2,-727.8"/>
<text text-anchor="start" x="53.2" y="-740" font-family="Arial" font-size="14.00">coin_id </text>
<text text-anchor="start" x="101.45" y="-740" font-family="Arial" font-size="14.00" fill="#666666">[BLOB]</text>
<polygon fill="none" stroke="black" points="46.2,-697 46.2,-727.8 274.23,-727.8 274.23,-697 46.2,-697"/>
<text text-anchor="start" x="53.2" y="-709.2" font-family="Arial" font-size="14.00">parent_parent_coin_id </text>
<text text-anchor="start" x="196.42" y="-709.2" font-family="Arial" font-size="14.00" fill="#666666">[BLOB]</text>
<polygon fill="none" stroke="black" points="46.2,-666.2 46.2,-697 274.23,-697 274.23,-666.2 46.2,-666.2"/>
<text text-anchor="start" x="53.2" y="-678.4" font-family="Arial" font-size="14.00">parent_inner_puzzle_hash </text>
<text text-anchor="start" x="222.1" y="-678.4" font-family="Arial" font-size="14.00" fill="#666666">[BLOB]</text>
<polygon fill="none" stroke="black" points="46.2,-635.4 46.2,-666.2 274.23,-666.2 274.23,-635.4 46.2,-635.4"/>
<text text-anchor="start" x="53.2" y="-647.6" font-family="Arial" font-size="14.00">parent_amount </text>
<text text-anchor="start" x="151.27" y="-647.6" font-family="Arial" font-size="14.00" fill="#666666">[BLOB]</text>
<polygon fill="none" stroke="black" points="46.2,-604.6 46.2,-635.4 274.23,-635.4 274.23,-604.6 46.2,-604.6"/>
<text text-anchor="start" x="53.2" y="-616.8" font-family="Arial" font-size="14.00">p2_puzzle_hash </text>
<text text-anchor="start" x="159.06" y="-616.8" font-family="Arial" font-size="14.00" fill="#666666">[BLOB]</text>
<polygon fill="none" stroke="black" points="46.2,-573.8 46.2,-604.6 274.23,-604.6 274.23,-573.8 46.2,-573.8"/>
<text text-anchor="start" x="53.2" y="-586" font-family="Arial" font-size="14.00">asset_id </text>
<text text-anchor="start" x="109.23" y="-586" font-family="Arial" font-size="14.00" fill="#666666">[BLOB]</text>
<polygon fill="none" stroke="black" stroke-width="3" points="44.7,-572.3 44.7,-795.7 275.73,-795.7 275.73,-572.3 44.7,-572.3"/>
</g>
<!-- coin_states -->
<g id="node2" class="node">
<title>coin_states</title>
<polygon fill="#efefef" stroke="none" points="69.95,-412.8 69.95,-448.4 250.48,-448.4 250.48,-412.8 69.95,-412.8"/>
<polygon fill="none" stroke="black" points="69.95,-412.8 69.95,-448.4 250.48,-448.4 250.48,-412.8 69.95,-412.8"/>
<text text-anchor="start" x="85.6" y="-426.2" font-family="Arial Bold" font-size="18.00">coin_states</text>
<text text-anchor="start" x="165.58" y="-426.2" font-family="Arial" font-size="14.00">    </text>
<text text-anchor="start" x="196.7" y="-426.2" font-family="Arial" font-size="14.00" fill="#666666">[table]</text>
<polygon fill="none" stroke="black" points="69.95,-382 69.95,-412.8 250.48,-412.8 250.48,-382 69.95,-382"/>
<text text-anchor="start" x="76.95" y="-394.2" font-family="Arial" font-size="14.00">coin_id </text>
<text text-anchor="start" x="125.21" y="-394.2" font-family="Arial" font-size="14.00" fill="#666666">[BLOB]</text>
<polygon fill="none" stroke="black" points="69.95,-351.2 69.95,-382 250.48,-382 250.48,-351.2 69.95,-351.2"/>
<text text-anchor="start" x="76.95" y="-363.4" font-family="Arial" font-size="14.00">parent_coin_id </text>
<text text-anchor="start" x="172.69" y="-363.4" font-family="Arial" font-size="14.00" fill="#666666">[BLOB]</text>
<polygon fill="none" stroke="black" points="69.95,-320.4 69.95,-351.2 250.48,-351.2 250.48,-320.4 69.95,-320.4"/>
<text text-anchor="start" x="76.95" y="-332.6" font-family="Arial" font-size="14.00">puzzle_hash </text>
<text text-anchor="start" x="159.46" y="-332.6" font-family="Arial" font-size="14.00" fill="#666666">[BLOB]</text>
<polygon fill="none" stroke="black" points="69.95,-289.6 69.95,-320.4 250.48,-320.4 250.48,-289.6 69.95,-289.6"/>
<text text-anchor="start" x="76.95" y="-301.8" font-family="Arial" font-size="14.00">amount </text>
<text text-anchor="start" x="127.54" y="-301.8" font-family="Arial" font-size="14.00" fill="#666666">[BLOB]</text>
<polygon fill="none" stroke="black" points="69.95,-258.8 69.95,-289.6 250.48,-289.6 250.48,-258.8 69.95,-258.8"/>
<text text-anchor="start" x="76.95" y="-271" font-family="Arial" font-size="14.00">spent_height </text>
<text text-anchor="start" x="161.02" y="-271" font-family="Arial" font-size="14.00" fill="#666666">[INTEGER]</text>
<polygon fill="none" stroke="black" points="69.95,-228 69.95,-258.8 250.48,-258.8 250.48,-228 69.95,-228"/>
<text text-anchor="start" x="76.95" y="-240.2" font-family="Arial" font-size="14.00">created_height </text>
<text text-anchor="start" x="173.47" y="-240.2" font-family="Arial" font-size="14.00" fill="#666666">[INTEGER]</text>
<polygon fill="none" stroke="black" points="69.95,-197.2 69.95,-228 250.48,-228 250.48,-197.2 69.95,-197.2"/>
<text text-anchor="start" x="76.95" y="-209.4" font-family="Arial" font-size="14.00">hint </text>
<text text-anchor="start" x="103.42" y="-209.4" font-family="Arial" font-size="14.00" fill="#666666">[BLOB]</text>
<polygon fill="none" stroke="black" points="69.95,-166.4 69.95,-197.2 250.48,-197.2 250.48,-166.4 69.95,-166.4"/>
<text text-anchor="start" x="76.95" y="-178.6" font-family="Arial" font-size="14.00">synced </text>
<text text-anchor="start" x="125.2" y="-178.6" font-family="Arial" font-size="14.00" fill="#666666">[BOOLEAN]</text>
<polygon fill="none" stroke="black" points="69.95,-135.6 69.95,-166.4 250.48,-166.4 250.48,-135.6 69.95,-135.6"/>
<text text-anchor="start" x="76.95" y="-147.8" font-family="Arial" font-size="14.00">transaction_id </text>
<text text-anchor="start" x="168.01" y="-147.8" font-family="Arial" font-size="14.00" fill="#666666">[BLOB]</text>
<polygon fill="none" stroke="black" points="69.95,-104.8 69.95,-135.6 250.48,-135.6 250.48,-104.8 69.95,-104.8"/>
<text text-anchor="start" x="76.95" y="-117" font-family="Arial" font-size="14.00">kind </text>
<text text-anchor="start" x="106.53" y="-117" font-family="Arial" font-size="14.00" fill="#666666">[INTEGER]</text>
<polygon fill="none" stroke="black" points="69.95,-74 69.95,-104.8 250.48,-104.8 250.48,-74 69.95,-74"/>
<text text-anchor="start" x="76.95" y="-86.2" font-family="Arial" font-size="14.00">spent_unixtime </text>
<text text-anchor="start" x="175.01" y="-86.2" font-family="Arial" font-size="14.00" fill="#666666">[BIGINT]</text>
<polygon fill="none" stroke="black" points="69.95,-43.2 69.95,-74 250.48,-74 250.48,-43.2 69.95,-43.2"/>
<text text-anchor="start" x="76.95" y="-55.4" font-family="Arial" font-size="14.00">created_unixtime </text>
<text text-anchor="start" x="187.46" y="-55.4" font-family="Arial" font-size="14.00" fill="#666666">[BIGINT]</text>
</g>
<!-- cat_coins&#45;&gt;coin_states -->
<g id="edge1" class="edge">
<title>cat_coins:coin_id&#45;&gt;coin_states:coin_id</title>
<path fill="none" stroke="black" d="M285.41,-740.99C349.91,-711.54 324.89,-397.4 251.48,-397.4"/>
<polygon fill="black" stroke="black" points="285.33,-741.01 274.61,-738.73 280.12,-742.14 275.89,-743.06 275.89,-743.06 275.89,-743.06 280.12,-742.14 276.51,-747.53 285.33,-741.01"/>
<text text-anchor="start" x="282.23" y="-753.2" font-family="Arial" font-size="10.00">FOREIGN KEY (coin_id) REFERENCES coin_states (coin_id) ON UPDATE NO ACTION ON DELETE CASCADE MATCH NONE</text>
</g>
</g>
</svg>
