<?xml version="1.0" encoding="UTF-8" standalone="no"?>
<!DOCTYPE svg PUBLIC "-//W3C//DTD SVG 1.1//EN"
 "http://www.w3.org/Graphics/SVG/1.1/DTD/svg11.dtd">
<!-- Generated by graphviz version 12.1.2 (20240928.0832)
 -->
<!-- Title: cats Pages: 1 -->
<svg width="240pt" height="352pt"
 viewBox="0.00 0.00 239.68 351.60" xmlns="http://www.w3.org/2000/svg" xmlns:xlink="http://www.w3.org/1999/xlink">
<g id="graph0" class="graph" transform="scale(1 1) rotate(0) translate(4 347.6)">
<title>cats</title>
<polygon fill="white" stroke="none" points="-4,4 -4,-347.6 235.68,-347.6 235.68,4 -4,4"/>
<!-- cats -->
<g id="node1" class="node">
<title>cats</title>
<polygon fill="#efefef" stroke="none" points="46.2,-261.8 46.2,-297.4 185.48,-297.4 185.48,-261.8 46.2,-261.8"/>
<polygon fill="none" stroke="black" points="46.2,-261.8 46.2,-297.4 185.48,-297.4 185.48,-261.8 46.2,-261.8"/>
<text text-anchor="start" x="67.22" y="-275.2" font-family="Arial Bold" font-size="18.00">cats</text>
<text text-anchor="start" x="95.21" y="-275.2" font-family="Arial" font-size="14.00">    </text>
<text text-anchor="start" x="126.32" y="-275.2" font-family="Arial" font-size="14.00" fill="#666666">[table]</text>
<polygon fill="none" stroke="black" points="46.2,-231 46.2,-261.8 185.48,-261.8 185.48,-231 46.2,-231"/>
<text text-anchor="start" x="53.2" y="-243.2" font-family="Arial" font-size="14.00">asset_id </text>
<text text-anchor="start" x="109.23" y="-243.2" font-family="Arial" font-size="14.00" fill="#666666">[BLOB]</text>
<polygon fill="none" stroke="black" points="46.2,-200.2 46.2,-231 185.48,-231 185.48,-200.2 46.2,-200.2"/>
<text text-anchor="start" x="53.2" y="-212.4" font-family="Arial" font-size="14.00">name </text>
<text text-anchor="start" x="92.11" y="-212.4" font-family="Arial" font-size="14.00" fill="#666666">[TEXT]</text>
<polygon fill="none" stroke="black" points="46.2,-169.4 46.2,-200.2 185.48,-200.2 185.48,-169.4 46.2,-169.4"/>
<text text-anchor="start" x="53.2" y="-181.6" font-family="Arial" font-size="14.00">ticker </text>
<text text-anchor="start" x="90.54" y="-181.6" font-family="Arial" font-size="14.00" fill="#666666">[TEXT]</text>
<polygon fill="none" stroke="black" points="46.2,-138.6 46.2,-169.4 185.48,-169.4 185.48,-138.6 46.2,-138.6"/>
<text text-anchor="start" x="53.2" y="-150.8" font-family="Arial" font-size="14.00">visible </text>
<text text-anchor="start" x="95.99" y="-150.8" font-family="Arial" font-size="14.00" fill="#666666">[BOOLEAN]</text>
<polygon fill="none" stroke="black" points="46.2,-107.8 46.2,-138.6 185.48,-138.6 185.48,-107.8 46.2,-107.8"/>
<text text-anchor="start" x="53.2" y="-120" font-family="Arial" font-size="14.00">icon </text>
<text text-anchor="start" x="82.77" y="-120" font-family="Arial" font-size="14.00" fill="#666666">[TEXT]</text>
<polygon fill="none" stroke="black" points="46.2,-77 46.2,-107.8 185.48,-107.8 185.48,-77 46.2,-77"/>
<text text-anchor="start" x="53.2" y="-89.2" font-family="Arial" font-size="14.00">description </text>
<text text-anchor="start" x="124.79" y="-89.2" font-family="Arial" font-size="14.00" fill="#666666">[TEXT]</text>
<polygon fill="none" stroke="black" points="46.2,-46.2 46.2,-77 185.48,-77 185.48,-46.2 46.2,-46.2"/>
<text text-anchor="start" x="53.2" y="-58.4" font-family="Arial" font-size="14.00">fetched </text>
<text text-anchor="start" x="103.01" y="-58.4" font-family="Arial" font-size="14.00" fill="#666666">[BOOLEAN]</text>
<polygon fill="none" stroke="black" stroke-width="3" points="44.7,-44.7 44.7,-298.9 186.98,-298.9 186.98,-44.7 44.7,-44.7"/>
</g>
</g>
</svg>
