<?xml version="1.0" encoding="UTF-8" standalone="no"?>
<!DOCTYPE svg PUBLIC "-//W3C//DTD SVG 1.1//EN"
 "http://www.w3.org/Graphics/SVG/1.1/DTD/svg11.dtd">
<!-- Generated by graphviz version 12.1.2 (20240928.0832)
 -->
<!-- Title: coin_states Pages: 1 -->
<svg width="1025pt" height="1376pt"
 viewBox="0.00 0.00 1024.95 1376.00" xmlns="http://www.w3.org/2000/svg" xmlns:xlink="http://www.w3.org/1999/xlink">
<g id="graph0" class="graph" transform="scale(1 1) rotate(0) translate(4 1372)">
<title>coin_states</title>
<polygon fill="white" stroke="none" points="-4,4 -4,-1372 1020.95,-1372 1020.95,4 -4,4"/>
<!-- coin_states -->
<g id="node1" class="node">
<title>coin_states</title>
<polygon fill="#efefef" stroke="none" points="400.95,-697 400.95,-732.6 581.48,-732.6 581.48,-697 400.95,-697"/>
<polygon fill="none" stroke="black" points="400.95,-697 400.95,-732.6 581.48,-732.6 581.48,-697 400.95,-697"/>
<text text-anchor="start" x="416.6" y="-710.4" font-family="Arial Bold" font-size="18.00">coin_states</text>
<text text-anchor="start" x="496.58" y="-710.4" font-family="Arial" font-size="14.00">    </text>
<text text-anchor="start" x="527.7" y="-710.4" font-family="Arial" font-size="14.00" fill="#666666">[table]</text>
<polygon fill="none" stroke="black" points="400.95,-666.2 400.95,-697 581.48,-697 581.48,-666.2 400.95,-666.2"/>
<text text-anchor="start" x="407.95" y="-678.4" font-family="Arial" font-size="14.00">coin_id </text>
<text text-anchor="start" x="456.21" y="-678.4" font-family="Arial" font-size="14.00" fill="#666666">[BLOB]</text>
<polygon fill="none" stroke="black" points="400.95,-635.4 400.95,-666.2 581.48,-666.2 581.48,-635.4 400.95,-635.4"/>
<text text-anchor="start" x="407.95" y="-647.6" font-family="Arial" font-size="14.00">parent_coin_id </text>
<text text-anchor="start" x="503.69" y="-647.6" font-family="Arial" font-size="14.00" fill="#666666">[BLOB]</text>
<polygon fill="none" stroke="black" points="400.95,-604.6 400.95,-635.4 581.48,-635.4 581.48,-604.6 400.95,-604.6"/>
<text text-anchor="start" x="407.95" y="-616.8" font-family="Arial" font-size="14.00">puzzle_hash </text>
<text text-anchor="start" x="490.46" y="-616.8" font-family="Arial" font-size="14.00" fill="#666666">[BLOB]</text>
<polygon fill="none" stroke="black" points="400.95,-573.8 400.95,-604.6 581.48,-604.6 581.48,-573.8 400.95,-573.8"/>
<text text-anchor="start" x="407.95" y="-586" font-family="Arial" font-size="14.00">amount </text>
<text text-anchor="start" x="458.54" y="-586" font-family="Arial" font-size="14.00" fill="#666666">[BLOB]</text>
<polygon fill="none" stroke="black" points="400.95,-543 400.95,-573.8 581.48,-573.8 581.48,-543 400.95,-543"/>
<text text-anchor="start" x="407.95" y="-555.2" font-family="Arial" font-size="14.00">spent_height </text>
<text text-anchor="start" x="492.02" y="-555.2" font-family="Arial" font-size="14.00" fill="#666666">[INTEGER]</text>
<polygon fill="none" stroke="black" points="400.95,-512.2 400.95,-543 581.48,-543 581.48,-512.2 400.95,-512.2"/>
<text text-anchor="start" x="407.95" y="-524.4" font-family="Arial" font-size="14.00">created_height </text>
<text text-anchor="start" x="504.47" y="-524.4" font-family="Arial" font-size="14.00" fill="#666666">[INTEGER]</text>
<polygon fill="none" stroke="black" points="400.95,-481.4 400.95,-512.2 581.48,-512.2 581.48,-481.4 400.95,-481.4"/>
<text text-anchor="start" x="407.95" y="-493.6" font-family="Arial" font-size="14.00">hint </text>
<text text-anchor="start" x="434.42" y="-493.6" font-family="Arial" font-size="14.00" fill="#666666">[BLOB]</text>
<polygon fill="none" stroke="black" points="400.95,-450.6 400.95,-481.4 581.48,-481.4 581.48,-450.6 400.95,-450.6"/>
<text text-anchor="start" x="407.95" y="-462.8" font-family="Arial" font-size="14.00">synced </text>
<text text-anchor="start" x="456.2" y="-462.8" font-family="Arial" font-size="14.00" fill="#666666">[BOOLEAN]</text>
<polygon fill="none" stroke="black" points="400.95,-419.8 400.95,-450.6 581.48,-450.6 581.48,-419.8 400.95,-419.8"/>
<text text-anchor="start" x="407.95" y="-432" font-family="Arial" font-size="14.00">transaction_id </text>
<text text-anchor="start" x="499.01" y="-432" font-family="Arial" font-size="14.00" fill="#666666">[BLOB]</text>
<polygon fill="none" stroke="black" points="400.95,-389 400.95,-419.8 581.48,-419.8 581.48,-389 400.95,-389"/>
<text text-anchor="start" x="407.95" y="-401.2" font-family="Arial" font-size="14.00">kind </text>
<text text-anchor="start" x="437.53" y="-401.2" font-family="Arial" font-size="14.00" fill="#666666">[INTEGER]</text>
<polygon fill="none" stroke="black" points="400.95,-358.2 400.95,-389 581.48,-389 581.48,-358.2 400.95,-358.2"/>
<text text-anchor="start" x="407.95" y="-370.4" font-family="Arial" font-size="14.00">spent_unixtime </text>
<text text-anchor="start" x="506.01" y="-370.4" font-family="Arial" font-size="14.00" fill="#666666">[BIGINT]</text>
<polygon fill="none" stroke="black" points="400.95,-327.4 400.95,-358.2 581.48,-358.2 581.48,-327.4 400.95,-327.4"/>
<text text-anchor="start" x="407.95" y="-339.6" font-family="Arial" font-size="14.00">created_unixtime </text>
<text text-anchor="start" x="518.46" y="-339.6" font-family="Arial" font-size="14.00" fill="#666666">[BIGINT]</text>
<polygon fill="none" stroke="black" stroke-width="3" points="399.45,-325.9 399.45,-734.1 582.98,-734.1 582.98,-325.9 399.45,-325.9"/>
</g>
<!-- transactions -->
<g id="node5" class="node">
<title>transactions</title>
<polygon fill="#efefef" stroke="none" points="391.6,-166.4 391.6,-202 590.84,-202 590.84,-166.4 391.6,-166.4"/>
<polygon fill="none" stroke="black" points="391.6,-166.4 391.6,-202 590.84,-202 590.84,-166.4 391.6,-166.4"/>
<text text-anchor="start" x="413.6" y="-179.8" font-family="Arial Bold" font-size="18.00">transactions</text>
<text text-anchor="start" x="499.58" y="-179.8" font-family="Arial" font-size="14.00">    </text>
<text text-anchor="start" x="530.69" y="-179.8" font-family="Arial" font-size="14.00" fill="#666666">[table]</text>
<polygon fill="none" stroke="black" points="391.6,-135.6 391.6,-166.4 590.84,-166.4 590.84,-135.6 391.6,-135.6"/>
<text text-anchor="start" x="398.6" y="-147.8" font-family="Arial" font-size="14.00">transaction_id </text>
<text text-anchor="start" x="489.65" y="-147.8" font-family="Arial" font-size="14.00" fill="#666666">[BLOB]</text>
<polygon fill="none" stroke="black" points="391.6,-104.8 391.6,-135.6 590.84,-135.6 590.84,-104.8 391.6,-104.8"/>
<text text-anchor="start" x="398.6" y="-117" font-family="Arial" font-size="14.00">aggregated_signature </text>
<text text-anchor="start" x="538.71" y="-117" font-family="Arial" font-size="14.00" fill="#666666">[BLOB]</text>
<polygon fill="none" stroke="black" points="391.6,-74 391.6,-104.8 590.84,-104.8 590.84,-74 391.6,-74"/>
<text text-anchor="start" x="398.6" y="-86.2" font-family="Arial" font-size="14.00">fee </text>
<text text-anchor="start" x="421.95" y="-86.2" font-family="Arial" font-size="14.00" fill="#666666">[BLOB]</text>
<polygon fill="none" stroke="black" points="391.6,-43.2 391.6,-74 590.84,-74 590.84,-43.2 391.6,-43.2"/>
<text text-anchor="start" x="398.6" y="-55.4" font-family="Arial" font-size="14.00">submitted_at </text>
<text text-anchor="start" x="482.64" y="-55.4" font-family="Arial" font-size="14.00" fill="#666666">[INTEGER]</text>
</g>
<!-- coin_states&#45;&gt;transactions -->
<g id="edge4" class="edge">
<title>coin_states:transaction_id&#45;&gt;transactions:transaction_id</title>
<path fill="none" stroke="black" d="M592.58,-434.57C709.27,-419.87 714.76,-151 591.84,-151"/>
<polygon fill="black" stroke="black" points="592.79,-434.56 582.53,-430.69 587.47,-434.89 583.15,-435.16 583.15,-435.16 583.15,-435.16 587.47,-434.89 583.09,-439.67 592.79,-434.56"/>
</g>
<!-- cat_coins -->
<g id="node2" class="node">
<title>cat_coins</title>
<polygon fill="#efefef" stroke="none" points="43.2,-1166 43.2,-1201.6 271.23,-1201.6 271.23,-1166 43.2,-1166"/>
<polygon fill="none" stroke="black" points="43.2,-1166 43.2,-1201.6 271.23,-1201.6 271.23,-1166 43.2,-1166"/>
<text text-anchor="start" x="88.6" y="-1179.4" font-family="Arial Bold" font-size="18.00">cat_coins</text>
<text text-anchor="start" x="156.58" y="-1179.4" font-family="Arial" font-size="14.00">    </text>
<text text-anchor="start" x="187.69" y="-1179.4" font-family="Arial" font-size="14.00" fill="#666666">[table]</text>
<polygon fill="none" stroke="black" points="43.2,-1135.2 43.2,-1166 271.23,-1166 271.23,-1135.2 43.2,-1135.2"/>
<text text-anchor="start" x="50.2" y="-1147.4" font-family="Arial" font-size="14.00">coin_id </text>
<text text-anchor="start" x="98.45" y="-1147.4" font-family="Arial" font-size="14.00" fill="#666666">[BLOB]</text>
<polygon fill="none" stroke="black" points="43.2,-1104.4 43.2,-1135.2 271.23,-1135.2 271.23,-1104.4 43.2,-1104.4"/>
<text text-anchor="start" x="50.2" y="-1116.6" font-family="Arial" font-size="14.00">parent_parent_coin_id </text>
<text text-anchor="start" x="193.42" y="-1116.6" font-family="Arial" font-size="14.00" fill="#666666">[BLOB]</text>
<polygon fill="none" stroke="black" points="43.2,-1073.6 43.2,-1104.4 271.23,-1104.4 271.23,-1073.6 43.2,-1073.6"/>
<text text-anchor="start" x="50.2" y="-1085.8" font-family="Arial" font-size="14.00">parent_inner_puzzle_hash </text>
<text text-anchor="start" x="219.1" y="-1085.8" font-family="Arial" font-size="14.00" fill="#666666">[BLOB]</text>
<polygon fill="none" stroke="black" points="43.2,-1042.8 43.2,-1073.6 271.23,-1073.6 271.23,-1042.8 43.2,-1042.8"/>
<text text-anchor="start" x="50.2" y="-1055" font-family="Arial" font-size="14.00">parent_amount </text>
<text text-anchor="start" x="148.27" y="-1055" font-family="Arial" font-size="14.00" fill="#666666">[BLOB]</text>
<polygon fill="none" stroke="black" points="43.2,-1012 43.2,-1042.8 271.23,-1042.8 271.23,-1012 43.2,-1012"/>
<text text-anchor="start" x="50.2" y="-1024.2" font-family="Arial" font-size="14.00">p2_puzzle_hash </text>
<text text-anchor="start" x="156.06" y="-1024.2" font-family="Arial" font-size="14.00" fill="#666666">[BLOB]</text>
<polygon fill="none" stroke="black" points="43.2,-981.2 43.2,-1012 271.23,-1012 271.23,-981.2 43.2,-981.2"/>
<text text-anchor="start" x="50.2" y="-993.4" font-family="Arial" font-size="14.00">asset_id </text>
<text text-anchor="start" x="106.23" y="-993.4" font-family="Arial" font-size="14.00" fill="#666666">[BLOB]</text>
</g>
<!-- cat_coins&#45;&gt;coin_states -->
<g id="edge1" class="edge">
<title>cat_coins:coin_id&#45;&gt;coin_states:coin_id</title>
<path fill="none" stroke="black" d="M282.42,-1148.76C343.06,-1125.22 299.5,-882.56 323.22,-814.8 345.79,-750.31 331.63,-681.6 399.95,-681.6"/>
<polygon fill="black" stroke="black" points="282.4,-1148.76 271.76,-1146.11 277.15,-1149.71 272.89,-1150.48 272.89,-1150.48 272.89,-1150.48 277.15,-1149.71 273.36,-1154.97 282.4,-1148.76"/>
</g>
<!-- did_coins -->
<g id="node3" class="node">
<title>did_coins</title>
<polygon fill="#efefef" stroke="none" points="375.66,-1212.2 375.66,-1247.8 606.77,-1247.8 606.77,-1212.2 375.66,-1212.2"/>
<polygon fill="none" stroke="black" points="375.66,-1212.2 375.66,-1247.8 606.77,-1247.8 606.77,-1212.2 375.66,-1212.2"/>
<text text-anchor="start" x="421.59" y="-1225.6" font-family="Arial Bold" font-size="18.00">did_coins</text>
<text text-anchor="start" x="491.59" y="-1225.6" font-family="Arial" font-size="14.00">    </text>
<text text-anchor="start" x="522.7" y="-1225.6" font-family="Arial" font-size="14.00" fill="#666666">[table]</text>
<polygon fill="none" stroke="black" points="375.66,-1181.4 375.66,-1212.2 606.77,-1212.2 606.77,-1181.4 375.66,-1181.4"/>
<text text-anchor="start" x="382.66" y="-1193.6" font-family="Arial" font-size="14.00">coin_id </text>
<text text-anchor="start" x="430.92" y="-1193.6" font-family="Arial" font-size="14.00" fill="#666666">[BLOB]</text>
<polygon fill="none" stroke="black" points="375.66,-1150.6 375.66,-1181.4 606.77,-1181.4 606.77,-1150.6 375.66,-1150.6"/>
<text text-anchor="start" x="382.66" y="-1162.8" font-family="Arial" font-size="14.00">parent_parent_coin_id </text>
<text text-anchor="start" x="525.88" y="-1162.8" font-family="Arial" font-size="14.00" fill="#666666">[BLOB]</text>
<polygon fill="none" stroke="black" points="375.66,-1119.8 375.66,-1150.6 606.77,-1150.6 606.77,-1119.8 375.66,-1119.8"/>
<text text-anchor="start" x="382.66" y="-1132" font-family="Arial" font-size="14.00">parent_inner_puzzle_hash </text>
<text text-anchor="start" x="551.56" y="-1132" font-family="Arial" font-size="14.00" fill="#666666">[BLOB]</text>
<polygon fill="none" stroke="black" points="375.66,-1089 375.66,-1119.8 606.77,-1119.8 606.77,-1089 375.66,-1089"/>
<text text-anchor="start" x="382.66" y="-1101.2" font-family="Arial" font-size="14.00">parent_amount </text>
<text text-anchor="start" x="480.73" y="-1101.2" font-family="Arial" font-size="14.00" fill="#666666">[BLOB]</text>
<polygon fill="none" stroke="black" points="375.66,-1058.2 375.66,-1089 606.77,-1089 606.77,-1058.2 375.66,-1058.2"/>
<text text-anchor="start" x="382.66" y="-1070.4" font-family="Arial" font-size="14.00">launcher_id </text>
<text text-anchor="start" x="458.94" y="-1070.4" font-family="Arial" font-size="14.00" fill="#666666">[BLOB]</text>
<polygon fill="none" stroke="black" points="375.66,-1027.4 375.66,-1058.2 606.77,-1058.2 606.77,-1027.4 375.66,-1027.4"/>
<text text-anchor="start" x="382.66" y="-1039.6" font-family="Arial" font-size="14.00">recovery_list_hash </text>
<text text-anchor="start" x="503.28" y="-1039.6" font-family="Arial" font-size="14.00" fill="#666666">[BLOB]</text>
<polygon fill="none" stroke="black" points="375.66,-996.6 375.66,-1027.4 606.77,-1027.4 606.77,-996.6 375.66,-996.6"/>
<text text-anchor="start" x="382.66" y="-1008.8" font-family="Arial" font-size="14.00">num_verifications_required </text>
<text text-anchor="start" x="554.64" y="-1008.8" font-family="Arial" font-size="14.00" fill="#666666">[BLOB]</text>
<polygon fill="none" stroke="black" points="375.66,-965.8 375.66,-996.6 606.77,-996.6 606.77,-965.8 375.66,-965.8"/>
<text text-anchor="start" x="382.66" y="-978" font-family="Arial" font-size="14.00">metadata </text>
<text text-anchor="start" x="444.92" y="-978" font-family="Arial" font-size="14.00" fill="#666666">[BLOB]</text>
<polygon fill="none" stroke="black" points="375.66,-935 375.66,-965.8 606.77,-965.8 606.77,-935 375.66,-935"/>
<text text-anchor="start" x="382.66" y="-947.2" font-family="Arial" font-size="14.00">p2_puzzle_hash </text>
<text text-anchor="start" x="488.52" y="-947.2" font-family="Arial" font-size="14.00" fill="#666666">[BLOB]</text>
</g>
<!-- did_coins&#45;&gt;coin_states -->
<g id="edge2" class="edge">
<title>did_coins:coin_id&#45;&gt;coin_states:coin_id</title>
<path fill="none" stroke="black" d="M616.72,-1192.03C662.12,-1140.09 636.55,-681.6 582.48,-681.6"/>
<polygon fill="black" stroke="black" points="616.89,-1191.94 605.95,-1192.67 612.18,-1194.45 608.36,-1196.49 608.36,-1196.49 608.36,-1196.49 612.18,-1194.45 610.18,-1200.61 616.89,-1191.94"/>
</g>
<!-- nft_coins -->
<g id="node4" class="node">
<title>nft_coins</title>
<polygon fill="#efefef" stroke="none" points="710.69,-1289.2 710.69,-1324.8 973.75,-1324.8 973.75,-1289.2 710.69,-1289.2"/>
<polygon fill="none" stroke="black" points="710.69,-1289.2 710.69,-1324.8 973.75,-1324.8 973.75,-1289.2 710.69,-1289.2"/>
<text text-anchor="start" x="774.09" y="-1302.6" font-family="Arial Bold" font-size="18.00">nft_coins</text>
<text text-anchor="start" x="841.08" y="-1302.6" font-family="Arial" font-size="14.00">    </text>
<text text-anchor="start" x="872.2" y="-1302.6" font-family="Arial" font-size="14.00" fill="#666666">[table]</text>
<polygon fill="none" stroke="black" points="710.69,-1258.4 710.69,-1289.2 973.75,-1289.2 973.75,-1258.4 710.69,-1258.4"/>
<text text-anchor="start" x="717.69" y="-1270.6" font-family="Arial" font-size="14.00">coin_id </text>
<text text-anchor="start" x="765.94" y="-1270.6" font-family="Arial" font-size="14.00" fill="#666666">[BLOB]</text>
<polygon fill="none" stroke="black" points="710.69,-1227.6 710.69,-1258.4 973.75,-1258.4 973.75,-1227.6 710.69,-1227.6"/>
<text text-anchor="start" x="717.69" y="-1239.8" font-family="Arial" font-size="14.00">parent_parent_coin_id </text>
<text text-anchor="start" x="860.91" y="-1239.8" font-family="Arial" font-size="14.00" fill="#666666">[BLOB]</text>
<polygon fill="none" stroke="black" points="710.69,-1196.8 710.69,-1227.6 973.75,-1227.6 973.75,-1196.8 710.69,-1196.8"/>
<text text-anchor="start" x="717.69" y="-1209" font-family="Arial" font-size="14.00">parent_inner_puzzle_hash </text>
<text text-anchor="start" x="886.59" y="-1209" font-family="Arial" font-size="14.00" fill="#666666">[BLOB]</text>
<polygon fill="none" stroke="black" points="710.69,-1166 710.69,-1196.8 973.75,-1196.8 973.75,-1166 710.69,-1166"/>
<text text-anchor="start" x="717.69" y="-1178.2" font-family="Arial" font-size="14.00">parent_amount </text>
<text text-anchor="start" x="815.75" y="-1178.2" font-family="Arial" font-size="14.00" fill="#666666">[BLOB]</text>
<polygon fill="none" stroke="black" points="710.69,-1135.2 710.69,-1166 973.75,-1166 973.75,-1135.2 710.69,-1135.2"/>
<text text-anchor="start" x="717.69" y="-1147.4" font-family="Arial" font-size="14.00">launcher_id </text>
<text text-anchor="start" x="793.96" y="-1147.4" font-family="Arial" font-size="14.00" fill="#666666">[BLOB]</text>
<polygon fill="none" stroke="black" points="710.69,-1104.4 710.69,-1135.2 973.75,-1135.2 973.75,-1104.4 710.69,-1104.4"/>
<text text-anchor="start" x="717.69" y="-1116.6" font-family="Arial" font-size="14.00">metadata </text>
<text text-anchor="start" x="779.95" y="-1116.6" font-family="Arial" font-size="14.00" fill="#666666">[BLOB]</text>
<polygon fill="none" stroke="black" points="710.69,-1073.6 710.69,-1104.4 973.75,-1104.4 973.75,-1073.6 710.69,-1073.6"/>
<text text-anchor="start" x="717.69" y="-1085.8" font-family="Arial" font-size="14.00">metadata_updater_puzzle_hash </text>
<text text-anchor="start" x="921.62" y="-1085.8" font-family="Arial" font-size="14.00" fill="#666666">[BLOB]</text>
<polygon fill="none" stroke="black" points="710.69,-1042.8 710.69,-1073.6 973.75,-1073.6 973.75,-1042.8 710.69,-1042.8"/>
<text text-anchor="start" x="717.69" y="-1055" font-family="Arial" font-size="14.00">current_owner </text>
<text text-anchor="start" x="811.07" y="-1055" font-family="Arial" font-size="14.00" fill="#666666">[BLOB]</text>
<polygon fill="none" stroke="black" points="710.69,-1012 710.69,-1042.8 973.75,-1042.8 973.75,-1012 710.69,-1012"/>
<text text-anchor="start" x="717.69" y="-1024.2" font-family="Arial" font-size="14.00">royalty_puzzle_hash </text>
<text text-anchor="start" x="849.21" y="-1024.2" font-family="Arial" font-size="14.00" fill="#666666">[BLOB]</text>
<polygon fill="none" stroke="black" points="710.69,-981.2 710.69,-1012 973.75,-1012 973.75,-981.2 710.69,-981.2"/>
<text text-anchor="start" x="717.69" y="-993.4" font-family="Arial" font-size="14.00">royalty_ten_thousandths </text>
<text text-anchor="start" x="874.13" y="-993.4" font-family="Arial" font-size="14.00" fill="#666666">[INTEGER]</text>
<polygon fill="none" stroke="black" points="710.69,-950.4 710.69,-981.2 973.75,-981.2 973.75,-950.4 710.69,-950.4"/>
<text text-anchor="start" x="717.69" y="-962.6" font-family="Arial" font-size="14.00">p2_puzzle_hash </text>
<text text-anchor="start" x="823.55" y="-962.6" font-family="Arial" font-size="14.00" fill="#666666">[BLOB]</text>
<polygon fill="none" stroke="black" points="710.69,-919.6 710.69,-950.4 973.75,-950.4 973.75,-919.6 710.69,-919.6"/>
<text text-anchor="start" x="717.69" y="-931.8" font-family="Arial" font-size="14.00">data_hash </text>
<text text-anchor="start" x="786.97" y="-931.8" font-family="Arial" font-size="14.00" fill="#666666">[BLOB]</text>
<polygon fill="none" stroke="black" points="710.69,-888.8 710.69,-919.6 973.75,-919.6 973.75,-888.8 710.69,-888.8"/>
<text text-anchor="start" x="717.69" y="-901" font-family="Arial" font-size="14.00">metadata_hash </text>
<text text-anchor="start" x="818.09" y="-901" font-family="Arial" font-size="14.00" fill="#666666">[BLOB]</text>
<polygon fill="none" stroke="black" points="710.69,-858 710.69,-888.8 973.75,-888.8 973.75,-858 710.69,-858"/>
<text text-anchor="start" x="717.69" y="-870.2" font-family="Arial" font-size="14.00">license_hash </text>
<text text-anchor="start" x="803.3" y="-870.2" font-family="Arial" font-size="14.00" fill="#666666">[BLOB]</text>
</g>
<!-- nft_coins&#45;&gt;coin_states -->
<g id="edge3" class="edge">
<title>nft_coins:coin_id&#45;&gt;coin_states:coin_id</title>
<path fill="none" stroke="black" d="M700.59,-1268.89C660.41,-1222.42 674.14,-860.42 659.22,-814.8 637.98,-749.86 650.8,-681.6 582.48,-681.6"/>
<polygon fill="black" stroke="black" points="700.59,-1268.9 707.26,-1277.6 705.29,-1271.43 709.1,-1273.48 709.1,-1273.48 709.1,-1273.48 705.29,-1271.43 711.53,-1269.68 700.59,-1268.9"/>
</g>
</g>
</svg>
