<?xml version="1.0" encoding="UTF-8" standalone="no"?>
<!DOCTYPE svg PUBLIC "-//W3C//DTD SVG 1.1//EN"
 "http://www.w3.org/Graphics/SVG/1.1/DTD/svg11.dtd">
<!-- Generated by graphviz version 12.1.2 (20240928.0832)
 -->
<!-- Title: coin_states Pages: 1 -->
<svg width="1561pt" height="1376pt"
 viewBox="0.00 0.00 1560.96 1376.00" xmlns="http://www.w3.org/2000/svg" xmlns:xlink="http://www.w3.org/1999/xlink">
<g id="graph0" class="graph" transform="scale(1 1) rotate(0) translate(4 1372)">
<title>coin_states</title>
<polygon fill="white" stroke="none" points="-4,4 -4,-1372 1556.96,-1372 1556.96,4 -4,4"/>
<!-- coin_states -->
<g id="node1" class="node">
<title>coin_states</title>
<polygon fill="#efefef" stroke="none" points="717.84,-697 717.84,-732.6 898.37,-732.6 898.37,-697 717.84,-697"/>
<polygon fill="none" stroke="black" points="717.84,-697 717.84,-732.6 898.37,-732.6 898.37,-697 717.84,-697"/>
<text text-anchor="start" x="733.49" y="-710.4" font-family="Arial Bold" font-size="18.00">coin_states</text>
<text text-anchor="start" x="813.47" y="-710.4" font-family="Arial" font-size="14.00">    </text>
<text text-anchor="start" x="844.59" y="-710.4" font-family="Arial" font-size="14.00" fill="#666666">[table]</text>
<polygon fill="none" stroke="black" points="717.84,-666.2 717.84,-697 898.37,-697 898.37,-666.2 717.84,-666.2"/>
<text text-anchor="start" x="724.84" y="-678.4" font-family="Arial" font-size="14.00">coin_id </text>
<text text-anchor="start" x="773.1" y="-678.4" font-family="Arial" font-size="14.00" fill="#666666">[BLOB]</text>
<polygon fill="none" stroke="black" points="717.84,-635.4 717.84,-666.2 898.37,-666.2 898.37,-635.4 717.84,-635.4"/>
<text text-anchor="start" x="724.84" y="-647.6" font-family="Arial" font-size="14.00">parent_coin_id </text>
<text text-anchor="start" x="820.58" y="-647.6" font-family="Arial" font-size="14.00" fill="#666666">[BLOB]</text>
<polygon fill="none" stroke="black" points="717.84,-604.6 717.84,-635.4 898.37,-635.4 898.37,-604.6 717.84,-604.6"/>
<text text-anchor="start" x="724.84" y="-616.8" font-family="Arial" font-size="14.00">puzzle_hash </text>
<text text-anchor="start" x="807.35" y="-616.8" font-family="Arial" font-size="14.00" fill="#666666">[BLOB]</text>
<polygon fill="none" stroke="black" points="717.84,-573.8 717.84,-604.6 898.37,-604.6 898.37,-573.8 717.84,-573.8"/>
<text text-anchor="start" x="724.84" y="-586" font-family="Arial" font-size="14.00">amount </text>
<text text-anchor="start" x="775.43" y="-586" font-family="Arial" font-size="14.00" fill="#666666">[BLOB]</text>
<polygon fill="none" stroke="black" points="717.84,-543 717.84,-573.8 898.37,-573.8 898.37,-543 717.84,-543"/>
<text text-anchor="start" x="724.84" y="-555.2" font-family="Arial" font-size="14.00">spent_height </text>
<text text-anchor="start" x="808.91" y="-555.2" font-family="Arial" font-size="14.00" fill="#666666">[INTEGER]</text>
<polygon fill="none" stroke="black" points="717.84,-512.2 717.84,-543 898.37,-543 898.37,-512.2 717.84,-512.2"/>
<text text-anchor="start" x="724.84" y="-524.4" font-family="Arial" font-size="14.00">created_height </text>
<text text-anchor="start" x="821.36" y="-524.4" font-family="Arial" font-size="14.00" fill="#666666">[INTEGER]</text>
<polygon fill="none" stroke="black" points="717.84,-481.4 717.84,-512.2 898.37,-512.2 898.37,-481.4 717.84,-481.4"/>
<text text-anchor="start" x="724.84" y="-493.6" font-family="Arial" font-size="14.00">hint </text>
<text text-anchor="start" x="751.31" y="-493.6" font-family="Arial" font-size="14.00" fill="#666666">[BLOB]</text>
<polygon fill="none" stroke="black" points="717.84,-450.6 717.84,-481.4 898.37,-481.4 898.37,-450.6 717.84,-450.6"/>
<text text-anchor="start" x="724.84" y="-462.8" font-family="Arial" font-size="14.00">synced </text>
<text text-anchor="start" x="773.09" y="-462.8" font-family="Arial" font-size="14.00" fill="#666666">[BOOLEAN]</text>
<polygon fill="none" stroke="black" points="717.84,-419.8 717.84,-450.6 898.37,-450.6 898.37,-419.8 717.84,-419.8"/>
<text text-anchor="start" x="724.84" y="-432" font-family="Arial" font-size="14.00">transaction_id </text>
<text text-anchor="start" x="815.9" y="-432" font-family="Arial" font-size="14.00" fill="#666666">[BLOB]</text>
<polygon fill="none" stroke="black" points="717.84,-389 717.84,-419.8 898.37,-419.8 898.37,-389 717.84,-389"/>
<text text-anchor="start" x="724.84" y="-401.2" font-family="Arial" font-size="14.00">kind </text>
<text text-anchor="start" x="754.42" y="-401.2" font-family="Arial" font-size="14.00" fill="#666666">[INTEGER]</text>
<polygon fill="none" stroke="black" points="717.84,-358.2 717.84,-389 898.37,-389 898.37,-358.2 717.84,-358.2"/>
<text text-anchor="start" x="724.84" y="-370.4" font-family="Arial" font-size="14.00">spent_unixtime </text>
<text text-anchor="start" x="822.9" y="-370.4" font-family="Arial" font-size="14.00" fill="#666666">[BIGINT]</text>
<polygon fill="none" stroke="black" points="717.84,-327.4 717.84,-358.2 898.37,-358.2 898.37,-327.4 717.84,-327.4"/>
<text text-anchor="start" x="724.84" y="-339.6" font-family="Arial" font-size="14.00">created_unixtime </text>
<text text-anchor="start" x="835.35" y="-339.6" font-family="Arial" font-size="14.00" fill="#666666">[BIGINT]</text>
<polygon fill="none" stroke="black" stroke-width="3" points="716.34,-325.9 716.34,-734.1 899.87,-734.1 899.87,-325.9 716.34,-325.9"/>
</g>
<!-- transactions -->
<g id="node5" class="node">
<title>transactions</title>
<polygon fill="#efefef" stroke="none" points="708.49,-166.4 708.49,-202 907.73,-202 907.73,-166.4 708.49,-166.4"/>
<polygon fill="none" stroke="black" points="708.49,-166.4 708.49,-202 907.73,-202 907.73,-166.4 708.49,-166.4"/>
<text text-anchor="start" x="730.49" y="-179.8" font-family="Arial Bold" font-size="18.00">transactions</text>
<text text-anchor="start" x="816.47" y="-179.8" font-family="Arial" font-size="14.00">    </text>
<text text-anchor="start" x="847.58" y="-179.8" font-family="Arial" font-size="14.00" fill="#666666">[table]</text>
<polygon fill="none" stroke="black" points="708.49,-135.6 708.49,-166.4 907.73,-166.4 907.73,-135.6 708.49,-135.6"/>
<text text-anchor="start" x="715.49" y="-147.8" font-family="Arial" font-size="14.00">transaction_id </text>
<text text-anchor="start" x="806.54" y="-147.8" font-family="Arial" font-size="14.00" fill="#666666">[BLOB]</text>
<polygon fill="none" stroke="black" points="708.49,-104.8 708.49,-135.6 907.73,-135.6 907.73,-104.8 708.49,-104.8"/>
<text text-anchor="start" x="715.49" y="-117" font-family="Arial" font-size="14.00">aggregated_signature </text>
<text text-anchor="start" x="855.59" y="-117" font-family="Arial" font-size="14.00" fill="#666666">[BLOB]</text>
<polygon fill="none" stroke="black" points="708.49,-74 708.49,-104.8 907.73,-104.8 907.73,-74 708.49,-74"/>
<text text-anchor="start" x="715.49" y="-86.2" font-family="Arial" font-size="14.00">fee </text>
<text text-anchor="start" x="738.84" y="-86.2" font-family="Arial" font-size="14.00" fill="#666666">[BLOB]</text>
<polygon fill="none" stroke="black" points="708.49,-43.2 708.49,-74 907.73,-74 907.73,-43.2 708.49,-43.2"/>
<text text-anchor="start" x="715.49" y="-55.4" font-family="Arial" font-size="14.00">submitted_at </text>
<text text-anchor="start" x="799.53" y="-55.4" font-family="Arial" font-size="14.00" fill="#666666">[INTEGER]</text>
</g>
<!-- coin_states&#45;&gt;transactions -->
<g id="edge4" class="edge">
<title>coin_states:transaction_id&#45;&gt;transactions:transaction_id</title>
<path fill="none" stroke="black" d="M909.47,-434.57C1026.16,-419.87 1031.65,-151 908.73,-151"/>
<polygon fill="black" stroke="black" points="909.68,-434.56 899.42,-430.69 904.36,-434.89 900.03,-435.16 900.03,-435.16 900.03,-435.16 904.36,-434.89 899.98,-439.67 909.68,-434.56"/>
<text text-anchor="start" x="906.37" y="-445.2" font-family="Arial" font-size="10.00">FOREIGN KEY (transaction_id) REFERENCES transactions (transaction_id) ON UPDATE NO ACTION ON DELETE CASCADE MATCH NONE</text>
</g>
<!-- cat_coins -->
<g id="node2" class="node">
<title>cat_coins</title>
<polygon fill="#efefef" stroke="none" points="360.09,-1166 360.09,-1201.6 588.12,-1201.6 588.12,-1166 360.09,-1166"/>
<polygon fill="none" stroke="black" points="360.09,-1166 360.09,-1201.6 588.12,-1201.6 588.12,-1166 360.09,-1166"/>
<text text-anchor="start" x="405.49" y="-1179.4" font-family="Arial Bold" font-size="18.00">cat_coins</text>
<text text-anchor="start" x="473.47" y="-1179.4" font-family="Arial" font-size="14.00">    </text>
<text text-anchor="start" x="504.58" y="-1179.4" font-family="Arial" font-size="14.00" fill="#666666">[table]</text>
<polygon fill="none" stroke="black" points="360.09,-1135.2 360.09,-1166 588.12,-1166 588.12,-1135.2 360.09,-1135.2"/>
<text text-anchor="start" x="367.09" y="-1147.4" font-family="Arial" font-size="14.00">coin_id </text>
<text text-anchor="start" x="415.34" y="-1147.4" font-family="Arial" font-size="14.00" fill="#666666">[BLOB]</text>
<polygon fill="none" stroke="black" points="360.09,-1104.4 360.09,-1135.2 588.12,-1135.2 588.12,-1104.4 360.09,-1104.4"/>
<text text-anchor="start" x="367.09" y="-1116.6" font-family="Arial" font-size="14.00">parent_parent_coin_id </text>
<text text-anchor="start" x="510.31" y="-1116.6" font-family="Arial" font-size="14.00" fill="#666666">[BLOB]</text>
<polygon fill="none" stroke="black" points="360.09,-1073.6 360.09,-1104.4 588.12,-1104.4 588.12,-1073.6 360.09,-1073.6"/>
<text text-anchor="start" x="367.09" y="-1085.8" font-family="Arial" font-size="14.00">parent_inner_puzzle_hash </text>
<text text-anchor="start" x="535.99" y="-1085.8" font-family="Arial" font-size="14.00" fill="#666666">[BLOB]</text>
<polygon fill="none" stroke="black" points="360.09,-1042.8 360.09,-1073.6 588.12,-1073.6 588.12,-1042.8 360.09,-1042.8"/>
<text text-anchor="start" x="367.09" y="-1055" font-family="Arial" font-size="14.00">parent_amount </text>
<text text-anchor="start" x="465.16" y="-1055" font-family="Arial" font-size="14.00" fill="#666666">[BLOB]</text>
<polygon fill="none" stroke="black" points="360.09,-1012 360.09,-1042.8 588.12,-1042.8 588.12,-1012 360.09,-1012"/>
<text text-anchor="start" x="367.09" y="-1024.2" font-family="Arial" font-size="14.00">p2_puzzle_hash </text>
<text text-anchor="start" x="472.95" y="-1024.2" font-family="Arial" font-size="14.00" fill="#666666">[BLOB]</text>
<polygon fill="none" stroke="black" points="360.09,-981.2 360.09,-1012 588.12,-1012 588.12,-981.2 360.09,-981.2"/>
<text text-anchor="start" x="367.09" y="-993.4" font-family="Arial" font-size="14.00">asset_id </text>
<text text-anchor="start" x="423.12" y="-993.4" font-family="Arial" font-size="14.00" fill="#666666">[BLOB]</text>
</g>
<!-- cat_coins&#45;&gt;coin_states -->
<g id="edge1" class="edge">
<title>cat_coins:coin_id&#45;&gt;coin_states:coin_id</title>
<path fill="none" stroke="black" d="M599.31,-1148.76C659.95,-1125.22 616.39,-882.56 640.11,-814.8 662.68,-750.31 648.52,-681.6 716.84,-681.6"/>
<polygon fill="black" stroke="black" points="599.29,-1148.76 588.65,-1146.11 594.04,-1149.71 589.78,-1150.48 589.78,-1150.48 589.78,-1150.48 594.04,-1149.71 590.25,-1154.97 599.29,-1148.76"/>
<text text-anchor="start" x="7" y="-1160.6" font-family="Arial" font-size="10.00">FOREIGN KEY (coin_id) REFERENCES coin_states (coin_id) ON UPDATE NO ACTION ON DELETE CASCADE MATCH NONE</text>
</g>
<!-- did_coins -->
<g id="node3" class="node">
<title>did_coins</title>
<polygon fill="#efefef" stroke="none" points="692.55,-1212.2 692.55,-1247.8 923.66,-1247.8 923.66,-1212.2 692.55,-1212.2"/>
<polygon fill="none" stroke="black" points="692.55,-1212.2 692.55,-1247.8 923.66,-1247.8 923.66,-1212.2 692.55,-1212.2"/>
<text text-anchor="start" x="738.48" y="-1225.6" font-family="Arial Bold" font-size="18.00">did_coins</text>
<text text-anchor="start" x="808.48" y="-1225.6" font-family="Arial" font-size="14.00">    </text>
<text text-anchor="start" x="839.59" y="-1225.6" font-family="Arial" font-size="14.00" fill="#666666">[table]</text>
<polygon fill="none" stroke="black" points="692.55,-1181.4 692.55,-1212.2 923.66,-1212.2 923.66,-1181.4 692.55,-1181.4"/>
<text text-anchor="start" x="699.55" y="-1193.6" font-family="Arial" font-size="14.00">coin_id </text>
<text text-anchor="start" x="747.81" y="-1193.6" font-family="Arial" font-size="14.00" fill="#666666">[BLOB]</text>
<polygon fill="none" stroke="black" points="692.55,-1150.6 692.55,-1181.4 923.66,-1181.4 923.66,-1150.6 692.55,-1150.6"/>
<text text-anchor="start" x="699.55" y="-1162.8" font-family="Arial" font-size="14.00">parent_parent_coin_id </text>
<text text-anchor="start" x="842.77" y="-1162.8" font-family="Arial" font-size="14.00" fill="#666666">[BLOB]</text>
<polygon fill="none" stroke="black" points="692.55,-1119.8 692.55,-1150.6 923.66,-1150.6 923.66,-1119.8 692.55,-1119.8"/>
<text text-anchor="start" x="699.55" y="-1132" font-family="Arial" font-size="14.00">parent_inner_puzzle_hash </text>
<text text-anchor="start" x="868.45" y="-1132" font-family="Arial" font-size="14.00" fill="#666666">[BLOB]</text>
<polygon fill="none" stroke="black" points="692.55,-1089 692.55,-1119.8 923.66,-1119.8 923.66,-1089 692.55,-1089"/>
<text text-anchor="start" x="699.55" y="-1101.2" font-family="Arial" font-size="14.00">parent_amount </text>
<text text-anchor="start" x="797.62" y="-1101.2" font-family="Arial" font-size="14.00" fill="#666666">[BLOB]</text>
<polygon fill="none" stroke="black" points="692.55,-1058.2 692.55,-1089 923.66,-1089 923.66,-1058.2 692.55,-1058.2"/>
<text text-anchor="start" x="699.55" y="-1070.4" font-family="Arial" font-size="14.00">launcher_id </text>
<text text-anchor="start" x="775.83" y="-1070.4" font-family="Arial" font-size="14.00" fill="#666666">[BLOB]</text>
<polygon fill="none" stroke="black" points="692.55,-1027.4 692.55,-1058.2 923.66,-1058.2 923.66,-1027.4 692.55,-1027.4"/>
<text text-anchor="start" x="699.55" y="-1039.6" font-family="Arial" font-size="14.00">recovery_list_hash </text>
<text text-anchor="start" x="820.16" y="-1039.6" font-family="Arial" font-size="14.00" fill="#666666">[BLOB]</text>
<polygon fill="none" stroke="black" points="692.55,-996.6 692.55,-1027.4 923.66,-1027.4 923.66,-996.6 692.55,-996.6"/>
<text text-anchor="start" x="699.55" y="-1008.8" font-family="Arial" font-size="14.00">num_verifications_required </text>
<text text-anchor="start" x="871.53" y="-1008.8" font-family="Arial" font-size="14.00" fill="#666666">[BLOB]</text>
<polygon fill="none" stroke="black" points="692.55,-965.8 692.55,-996.6 923.66,-996.6 923.66,-965.8 692.55,-965.8"/>
<text text-anchor="start" x="699.55" y="-978" font-family="Arial" font-size="14.00">metadata </text>
<text text-anchor="start" x="761.81" y="-978" font-family="Arial" font-size="14.00" fill="#666666">[BLOB]</text>
<polygon fill="none" stroke="black" points="692.55,-935 692.55,-965.8 923.66,-965.8 923.66,-935 692.55,-935"/>
<text text-anchor="start" x="699.55" y="-947.2" font-family="Arial" font-size="14.00">p2_puzzle_hash </text>
<text text-anchor="start" x="805.41" y="-947.2" font-family="Arial" font-size="14.00" fill="#666666">[BLOB]</text>
</g>
<!-- did_coins&#45;&gt;coin_states -->
<g id="edge2" class="edge">
<title>did_coins:coin_id&#45;&gt;coin_states:coin_id</title>
<path fill="none" stroke="black" d="M933.61,-1192.03C979.01,-1140.09 953.43,-681.6 899.37,-681.6"/>
<polygon fill="black" stroke="black" points="933.78,-1191.94 922.84,-1192.67 929.07,-1194.45 925.25,-1196.49 925.25,-1196.49 925.25,-1196.49 929.07,-1194.45 927.07,-1200.61 933.78,-1191.94"/>
<text text-anchor="start" x="342.54" y="-1206.8" font-family="Arial" font-size="10.00">FOREIGN KEY (coin_id) REFERENCES coin_states (coin_id) ON UPDATE NO ACTION ON DELETE CASCADE MATCH NONE</text>
</g>
<!-- nft_coins -->
<g id="node4" class="node">
<title>nft_coins</title>
<polygon fill="#efefef" stroke="none" points="1027.58,-1289.2 1027.58,-1324.8 1290.64,-1324.8 1290.64,-1289.2 1027.58,-1289.2"/>
<polygon fill="none" stroke="black" points="1027.58,-1289.2 1027.58,-1324.8 1290.64,-1324.8 1290.64,-1289.2 1027.58,-1289.2"/>
<text text-anchor="start" x="1090.98" y="-1302.6" font-family="Arial Bold" font-size="18.00">nft_coins</text>
<text text-anchor="start" x="1157.97" y="-1302.6" font-family="Arial" font-size="14.00">    </text>
<text text-anchor="start" x="1189.09" y="-1302.6" font-family="Arial" font-size="14.00" fill="#666666">[table]</text>
<polygon fill="none" stroke="black" points="1027.58,-1258.4 1027.58,-1289.2 1290.64,-1289.2 1290.64,-1258.4 1027.58,-1258.4"/>
<text text-anchor="start" x="1034.58" y="-1270.6" font-family="Arial" font-size="14.00">coin_id </text>
<text text-anchor="start" x="1082.83" y="-1270.6" font-family="Arial" font-size="14.00" fill="#666666">[BLOB]</text>
<polygon fill="none" stroke="black" points="1027.58,-1227.6 1027.58,-1258.4 1290.64,-1258.4 1290.64,-1227.6 1027.58,-1227.6"/>
<text text-anchor="start" x="1034.58" y="-1239.8" font-family="Arial" font-size="14.00">parent_parent_coin_id </text>
<text text-anchor="start" x="1177.79" y="-1239.8" font-family="Arial" font-size="14.00" fill="#666666">[BLOB]</text>
<polygon fill="none" stroke="black" points="1027.58,-1196.8 1027.58,-1227.6 1290.64,-1227.6 1290.64,-1196.8 1027.58,-1196.8"/>
<text text-anchor="start" x="1034.58" y="-1209" font-family="Arial" font-size="14.00">parent_inner_puzzle_hash </text>
<text text-anchor="start" x="1203.48" y="-1209" font-family="Arial" font-size="14.00" fill="#666666">[BLOB]</text>
<polygon fill="none" stroke="black" points="1027.58,-1166 1027.58,-1196.8 1290.64,-1196.8 1290.64,-1166 1027.58,-1166"/>
<text text-anchor="start" x="1034.58" y="-1178.2" font-family="Arial" font-size="14.00">parent_amount </text>
<text text-anchor="start" x="1132.64" y="-1178.2" font-family="Arial" font-size="14.00" fill="#666666">[BLOB]</text>
<polygon fill="none" stroke="black" points="1027.58,-1135.2 1027.58,-1166 1290.64,-1166 1290.64,-1135.2 1027.58,-1135.2"/>
<text text-anchor="start" x="1034.58" y="-1147.4" font-family="Arial" font-size="14.00">launcher_id </text>
<text text-anchor="start" x="1110.85" y="-1147.4" font-family="Arial" font-size="14.00" fill="#666666">[BLOB]</text>
<polygon fill="none" stroke="black" points="1027.58,-1104.4 1027.58,-1135.2 1290.64,-1135.2 1290.64,-1104.4 1027.58,-1104.4"/>
<text text-anchor="start" x="1034.58" y="-1116.6" font-family="Arial" font-size="14.00">metadata </text>
<text text-anchor="start" x="1096.84" y="-1116.6" font-family="Arial" font-size="14.00" fill="#666666">[BLOB]</text>
<polygon fill="none" stroke="black" points="1027.58,-1073.6 1027.58,-1104.4 1290.64,-1104.4 1290.64,-1073.6 1027.58,-1073.6"/>
<text text-anchor="start" x="1034.58" y="-1085.8" font-family="Arial" font-size="14.00">metadata_updater_puzzle_hash </text>
<text text-anchor="start" x="1238.5" y="-1085.8" font-family="Arial" font-size="14.00" fill="#666666">[BLOB]</text>
<polygon fill="none" stroke="black" points="1027.58,-1042.8 1027.58,-1073.6 1290.64,-1073.6 1290.64,-1042.8 1027.58,-1042.8"/>
<text text-anchor="start" x="1034.58" y="-1055" font-family="Arial" font-size="14.00">current_owner </text>
<text text-anchor="start" x="1127.95" y="-1055" font-family="Arial" font-size="14.00" fill="#666666">[BLOB]</text>
<polygon fill="none" stroke="black" points="1027.58,-1012 1027.58,-1042.8 1290.64,-1042.8 1290.64,-1012 1027.58,-1012"/>
<text text-anchor="start" x="1034.58" y="-1024.2" font-family="Arial" font-size="14.00">royalty_puzzle_hash </text>
<text text-anchor="start" x="1166.1" y="-1024.2" font-family="Arial" font-size="14.00" fill="#666666">[BLOB]</text>
<polygon fill="none" stroke="black" points="1027.58,-981.2 1027.58,-1012 1290.64,-1012 1290.64,-981.2 1027.58,-981.2"/>
<text text-anchor="start" x="1034.58" y="-993.4" font-family="Arial" font-size="14.00">royalty_ten_thousandths </text>
<text text-anchor="start" x="1191.02" y="-993.4" font-family="Arial" font-size="14.00" fill="#666666">[INTEGER]</text>
<polygon fill="none" stroke="black" points="1027.58,-950.4 1027.58,-981.2 1290.64,-981.2 1290.64,-950.4 1027.58,-950.4"/>
<text text-anchor="start" x="1034.58" y="-962.6" font-family="Arial" font-size="14.00">p2_puzzle_hash </text>
<text text-anchor="start" x="1140.44" y="-962.6" font-family="Arial" font-size="14.00" fill="#666666">[BLOB]</text>
<polygon fill="none" stroke="black" points="1027.58,-919.6 1027.58,-950.4 1290.64,-950.4 1290.64,-919.6 1027.58,-919.6"/>
<text text-anchor="start" x="1034.58" y="-931.8" font-family="Arial" font-size="14.00">data_hash </text>
<text text-anchor="start" x="1103.86" y="-931.8" font-family="Arial" font-size="14.00" fill="#666666">[BLOB]</text>
<polygon fill="none" stroke="black" points="1027.58,-888.8 1027.58,-919.6 1290.64,-919.6 1290.64,-888.8 1027.58,-888.8"/>
<text text-anchor="start" x="1034.58" y="-901" font-family="Arial" font-size="14.00">metadata_hash </text>
<text text-anchor="start" x="1134.98" y="-901" font-family="Arial" font-size="14.00" fill="#666666">[BLOB]</text>
<polygon fill="none" stroke="black" points="1027.58,-858 1027.58,-888.8 1290.64,-888.8 1290.64,-858 1027.58,-858"/>
<text text-anchor="start" x="1034.58" y="-870.2" font-family="Arial" font-size="14.00">license_hash </text>
<text text-anchor="start" x="1120.19" y="-870.2" font-family="Arial" font-size="14.00" fill="#666666">[BLOB]</text>
</g>
<!-- nft_coins&#45;&gt;coin_states -->
<g id="edge3" class="edge">
<title>nft_coins:coin_id&#45;&gt;coin_states:coin_id</title>
<path fill="none" stroke="black" d="M1017.48,-1268.89C977.3,-1222.42 991.03,-860.42 976.11,-814.8 954.87,-749.86 967.69,-681.6 899.37,-681.6"/>
<polygon fill="black" stroke="black" points="1017.48,-1268.9 1024.15,-1277.6 1022.17,-1271.43 1025.99,-1273.48 1025.99,-1273.48 1025.99,-1273.48 1022.17,-1271.43 1028.42,-1269.68 1017.48,-1268.9"/>
<text text-anchor="start" x="444.45" y="-1283.8" font-family="Arial" font-size="10.00">FOREIGN KEY (coin_id) REFERENCES coin_states (coin_id) ON UPDATE NO ACTION ON DELETE CASCADE MATCH NONE</text>
</g>
</g>
</svg>
