<?xml version="1.0" encoding="UTF-8" standalone="no"?>
<!DOCTYPE svg PUBLIC "-//W3C//DTD SVG 1.1//EN"
 "http://www.w3.org/Graphics/SVG/1.1/DTD/svg11.dtd">
<!-- Generated by graphviz version 12.1.2 (20240928.0832)
 -->
<!-- Title: collections Pages: 1 -->
<svg width="305pt" height="321pt"
 viewBox="0.00 0.00 305.05 320.80" xmlns="http://www.w3.org/2000/svg" xmlns:xlink="http://www.w3.org/1999/xlink">
<g id="graph0" class="graph" transform="scale(1 1) rotate(0) translate(4 316.8)">
<title>collections</title>
<polygon fill="white" stroke="none" points="-4,4 -4,-316.8 301.05,-316.8 301.05,4 -4,4"/>
<!-- collections -->
<g id="node1" class="node">
<title>collections</title>
<polygon fill="#efefef" stroke="none" points="46.2,-231 46.2,-266.6 250.85,-266.6 250.85,-231 46.2,-231"/>
<polygon fill="none" stroke="black" points="46.2,-231 46.2,-266.6 250.85,-266.6 250.85,-231 46.2,-231"/>
<text text-anchor="start" x="74.91" y="-244.4" font-family="Arial Bold" font-size="18.00">collections</text>
<text text-anchor="start" x="152.89" y="-244.4" font-family="Arial" font-size="14.00">    </text>
<text text-anchor="start" x="184.01" y="-244.4" font-family="Arial" font-size="14.00" fill="#666666">[table]</text>
<polygon fill="none" stroke="black" points="46.2,-200.2 46.2,-231 250.85,-231 250.85,-200.2 46.2,-200.2"/>
<text text-anchor="start" x="53.2" y="-212.4" font-family="Arial" font-size="14.00">collection_id </text>
<text text-anchor="start" x="134.14" y="-212.4" font-family="Arial" font-size="14.00" fill="#666666">[BLOB]</text>
<polygon fill="none" stroke="black" points="46.2,-169.4 46.2,-200.2 250.85,-200.2 250.85,-169.4 46.2,-169.4"/>
<text text-anchor="start" x="53.2" y="-181.6" font-family="Arial" font-size="14.00">did_id </text>
<text text-anchor="start" x="94.45" y="-181.6" font-family="Arial" font-size="14.00" fill="#666666">[BLOB]</text>
<polygon fill="none" stroke="black" points="46.2,-138.6 46.2,-169.4 250.85,-169.4 250.85,-138.6 46.2,-138.6"/>
<text text-anchor="start" x="53.2" y="-150.8" font-family="Arial" font-size="14.00">metadata_collection_id </text>
<text text-anchor="start" x="200.3" y="-150.8" font-family="Arial" font-size="14.00" fill="#666666">[TEXT]</text>
<polygon fill="none" stroke="black" points="46.2,-107.8 46.2,-138.6 250.85,-138.6 250.85,-107.8 46.2,-107.8"/>
<text text-anchor="start" x="53.2" y="-120" font-family="Arial" font-size="14.00">name </text>
<text text-anchor="start" x="92.11" y="-120" font-family="Arial" font-size="14.00" fill="#666666">[TEXT]</text>
<polygon fill="none" stroke="black" points="46.2,-77 46.2,-107.8 250.85,-107.8 250.85,-77 46.2,-77"/>
<text text-anchor="start" x="53.2" y="-89.2" font-family="Arial" font-size="14.00">visible </text>
<text text-anchor="start" x="95.99" y="-89.2" font-family="Arial" font-size="14.00" fill="#666666">[BOOLEAN]</text>
<polygon fill="none" stroke="black" points="46.2,-46.2 46.2,-77 250.85,-77 250.85,-46.2 46.2,-46.2"/>
<text text-anchor="start" x="53.2" y="-58.4" font-family="Arial" font-size="14.00">icon </text>
<text text-anchor="start" x="82.77" y="-58.4" font-family="Arial" font-size="14.00" fill="#666666">[TEXT]</text>
<polygon fill="none" stroke="black" stroke-width="3" points="44.7,-44.7 44.7,-268.1 252.35,-268.1 252.35,-44.7 44.7,-44.7"/>
</g>
</g>
</svg>
