<?xml version="1.0" encoding="UTF-8" standalone="no"?>
<!DOCTYPE svg PUBLIC "-//W3C//DTD SVG 1.1//EN"
 "http://www.w3.org/Graphics/SVG/1.1/DTD/svg11.dtd">
<!-- Generated by graphviz version 12.1.2 (20240928.0832)
 -->
<!-- Title: derivations Pages: 1 -->
<svg width="265pt" height="259pt"
 viewBox="0.00 0.00 265.39 259.20" xmlns="http://www.w3.org/2000/svg" xmlns:xlink="http://www.w3.org/1999/xlink">
<g id="graph0" class="graph" transform="scale(1 1) rotate(0) translate(4 255.2)">
<title>derivations</title>
<polygon fill="white" stroke="none" points="-4,4 -4,-255.2 261.39,-255.2 261.39,4 -4,4"/>
<!-- derivations -->
<g id="node1" class="node">
<title>derivations</title>
<polygon fill="#efefef" stroke="none" points="46.2,-169.4 46.2,-205 211.19,-205 211.19,-169.4 46.2,-169.4"/>
<polygon fill="none" stroke="black" points="46.2,-169.4 46.2,-205 211.19,-205 211.19,-169.4 46.2,-169.4"/>
<text text-anchor="start" x="54.08" y="-182.8" font-family="Arial Bold" font-size="18.00">derivations</text>
<text text-anchor="start" x="134.06" y="-182.8" font-family="Arial" font-size="14.00">    </text>
<text text-anchor="start" x="165.18" y="-182.8" font-family="Arial" font-size="14.00" fill="#666666">[table]</text>
<polygon fill="none" stroke="black" points="46.2,-138.6 46.2,-169.4 211.19,-169.4 211.19,-138.6 46.2,-138.6"/>
<text text-anchor="start" x="53.2" y="-150.8" font-family="Arial" font-size="14.00">p2_puzzle_hash </text>
<text text-anchor="start" x="159.06" y="-150.8" font-family="Arial" font-size="14.00" fill="#666666">[BLOB]</text>
<polygon fill="none" stroke="black" points="46.2,-107.8 46.2,-138.6 211.19,-138.6 211.19,-107.8 46.2,-107.8"/>
<text text-anchor="start" x="53.2" y="-120" font-family="Arial" font-size="14.00">index </text>
<text text-anchor="start" x="90.56" y="-120" font-family="Arial" font-size="14.00" fill="#666666">[INTEGER]</text>
<polygon fill="none" stroke="black" points="46.2,-77 46.2,-107.8 211.19,-107.8 211.19,-77 46.2,-77"/>
<text text-anchor="start" x="53.2" y="-89.2" font-family="Arial" font-size="14.00">hardened </text>
<text text-anchor="start" x="116.25" y="-89.2" font-family="Arial" font-size="14.00" fill="#666666">[BOOLEAN]</text>
<polygon fill="none" stroke="black" points="46.2,-46.2 46.2,-77 211.19,-77 211.19,-46.2 46.2,-46.2"/>
<text text-anchor="start" x="53.2" y="-58.4" font-family="Arial" font-size="14.00">synthetic_key </text>
<text text-anchor="start" x="141.91" y="-58.4" font-family="Arial" font-size="14.00" fill="#666666">[BLOB]</text>
<polygon fill="none" stroke="black" stroke-width="3" points="44.7,-44.7 44.7,-206.5 212.69,-206.5 212.69,-44.7 44.7,-44.7"/>
</g>
</g>
</svg>
