<?xml version="1.0" encoding="UTF-8" standalone="no"?>
<!DOCTYPE svg PUBLIC "-//W3C//DTD SVG 1.1//EN"
 "http://www.w3.org/Graphics/SVG/1.1/DTD/svg11.dtd">
<!-- Generated by graphviz version 12.1.2 (20240928.0832)
 -->
<!-- Title: did_coins Pages: 1 -->
<svg width="875pt" height="1284pt"
 viewBox="0.00 0.00 875.43 1283.60" xmlns="http://www.w3.org/2000/svg" xmlns:xlink="http://www.w3.org/1999/xlink">
<g id="graph0" class="graph" transform="scale(1 1) rotate(0) translate(4 1279.6)">
<title>did_coins</title>
<polygon fill="white" stroke="none" points="-4,4 -4,-1279.6 871.43,-1279.6 871.43,4 -4,4"/>
<!-- did_coins -->
<g id="node1" class="node">
<title>did_coins</title>
<polygon fill="#efefef" stroke="none" points="46.2,-851 46.2,-886.6 277.31,-886.6 277.31,-851 46.2,-851"/>
<polygon fill="none" stroke="black" points="46.2,-851 46.2,-886.6 277.31,-886.6 277.31,-851 46.2,-851"/>
<text text-anchor="start" x="92.13" y="-864.4" font-family="Arial Bold" font-size="18.00">did_coins</text>
<text text-anchor="start" x="162.13" y="-864.4" font-family="Arial" font-size="14.00">    </text>
<text text-anchor="start" x="193.24" y="-864.4" font-family="Arial" font-size="14.00" fill="#666666">[table]</text>
<polygon fill="none" stroke="black" points="46.2,-820.2 46.2,-851 277.31,-851 277.31,-820.2 46.2,-820.2"/>
<text text-anchor="start" x="53.2" y="-832.4" font-family="Arial" font-size="14.00">coin_id </text>
<text text-anchor="start" x="101.45" y="-832.4" font-family="Arial" font-size="14.00" fill="#666666">[BLOB]</text>
<polygon fill="none" stroke="black" points="46.2,-789.4 46.2,-820.2 277.31,-820.2 277.31,-789.4 46.2,-789.4"/>
<text text-anchor="start" x="53.2" y="-801.6" font-family="Arial" font-size="14.00">parent_parent_coin_id </text>
<text text-anchor="start" x="196.42" y="-801.6" font-family="Arial" font-size="14.00" fill="#666666">[BLOB]</text>
<polygon fill="none" stroke="black" points="46.2,-758.6 46.2,-789.4 277.31,-789.4 277.31,-758.6 46.2,-758.6"/>
<text text-anchor="start" x="53.2" y="-770.8" font-family="Arial" font-size="14.00">parent_inner_puzzle_hash </text>
<text text-anchor="start" x="222.1" y="-770.8" font-family="Arial" font-size="14.00" fill="#666666">[BLOB]</text>
<polygon fill="none" stroke="black" points="46.2,-727.8 46.2,-758.6 277.31,-758.6 277.31,-727.8 46.2,-727.8"/>
<text text-anchor="start" x="53.2" y="-740" font-family="Arial" font-size="14.00">parent_amount </text>
<text text-anchor="start" x="151.27" y="-740" font-family="Arial" font-size="14.00" fill="#666666">[BLOB]</text>
<polygon fill="none" stroke="black" points="46.2,-697 46.2,-727.8 277.31,-727.8 277.31,-697 46.2,-697"/>
<text text-anchor="start" x="53.2" y="-709.2" font-family="Arial" font-size="14.00">launcher_id </text>
<text text-anchor="start" x="129.48" y="-709.2" font-family="Arial" font-size="14.00" fill="#666666">[BLOB]</text>
<polygon fill="none" stroke="black" points="46.2,-666.2 46.2,-697 277.31,-697 277.31,-666.2 46.2,-666.2"/>
<text text-anchor="start" x="53.2" y="-678.4" font-family="Arial" font-size="14.00">recovery_list_hash </text>
<text text-anchor="start" x="173.81" y="-678.4" font-family="Arial" font-size="14.00" fill="#666666">[BLOB]</text>
<polygon fill="none" stroke="black" points="46.2,-635.4 46.2,-666.2 277.31,-666.2 277.31,-635.4 46.2,-635.4"/>
<text text-anchor="start" x="53.2" y="-647.6" font-family="Arial" font-size="14.00">num_verifications_required </text>
<text text-anchor="start" x="225.18" y="-647.6" font-family="Arial" font-size="14.00" fill="#666666">[BLOB]</text>
<polygon fill="none" stroke="black" points="46.2,-604.6 46.2,-635.4 277.31,-635.4 277.31,-604.6 46.2,-604.6"/>
<text text-anchor="start" x="53.2" y="-616.8" font-family="Arial" font-size="14.00">metadata </text>
<text text-anchor="start" x="115.46" y="-616.8" font-family="Arial" font-size="14.00" fill="#666666">[BLOB]</text>
<polygon fill="none" stroke="black" points="46.2,-573.8 46.2,-604.6 277.31,-604.6 277.31,-573.8 46.2,-573.8"/>
<text text-anchor="start" x="53.2" y="-586" font-family="Arial" font-size="14.00">p2_puzzle_hash </text>
<text text-anchor="start" x="159.06" y="-586" font-family="Arial" font-size="14.00" fill="#666666">[BLOB]</text>
<polygon fill="none" stroke="black" stroke-width="3" points="44.7,-572.3 44.7,-888.1 278.81,-888.1 278.81,-572.3 44.7,-572.3"/>
</g>
<!-- coin_states -->
<g id="node2" class="node">
<title>coin_states</title>
<polygon fill="#efefef" stroke="none" points="71.49,-412.8 71.49,-448.4 252.02,-448.4 252.02,-412.8 71.49,-412.8"/>
<polygon fill="none" stroke="black" points="71.49,-412.8 71.49,-448.4 252.02,-448.4 252.02,-412.8 71.49,-412.8"/>
<text text-anchor="start" x="87.14" y="-426.2" font-family="Arial Bold" font-size="18.00">coin_states</text>
<text text-anchor="start" x="167.12" y="-426.2" font-family="Arial" font-size="14.00">    </text>
<text text-anchor="start" x="198.23" y="-426.2" font-family="Arial" font-size="14.00" fill="#666666">[table]</text>
<polygon fill="none" stroke="black" points="71.49,-382 71.49,-412.8 252.02,-412.8 252.02,-382 71.49,-382"/>
<text text-anchor="start" x="78.49" y="-394.2" font-family="Arial" font-size="14.00">coin_id </text>
<text text-anchor="start" x="126.75" y="-394.2" font-family="Arial" font-size="14.00" fill="#666666">[BLOB]</text>
<polygon fill="none" stroke="black" points="71.49,-351.2 71.49,-382 252.02,-382 252.02,-351.2 71.49,-351.2"/>
<text text-anchor="start" x="78.49" y="-363.4" font-family="Arial" font-size="14.00">parent_coin_id </text>
<text text-anchor="start" x="174.23" y="-363.4" font-family="Arial" font-size="14.00" fill="#666666">[BLOB]</text>
<polygon fill="none" stroke="black" points="71.49,-320.4 71.49,-351.2 252.02,-351.2 252.02,-320.4 71.49,-320.4"/>
<text text-anchor="start" x="78.49" y="-332.6" font-family="Arial" font-size="14.00">puzzle_hash </text>
<text text-anchor="start" x="161" y="-332.6" font-family="Arial" font-size="14.00" fill="#666666">[BLOB]</text>
<polygon fill="none" stroke="black" points="71.49,-289.6 71.49,-320.4 252.02,-320.4 252.02,-289.6 71.49,-289.6"/>
<text text-anchor="start" x="78.49" y="-301.8" font-family="Arial" font-size="14.00">amount </text>
<text text-anchor="start" x="129.08" y="-301.8" font-family="Arial" font-size="14.00" fill="#666666">[BLOB]</text>
<polygon fill="none" stroke="black" points="71.49,-258.8 71.49,-289.6 252.02,-289.6 252.02,-258.8 71.49,-258.8"/>
<text text-anchor="start" x="78.49" y="-271" font-family="Arial" font-size="14.00">spent_height </text>
<text text-anchor="start" x="162.56" y="-271" font-family="Arial" font-size="14.00" fill="#666666">[INTEGER]</text>
<polygon fill="none" stroke="black" points="71.49,-228 71.49,-258.8 252.02,-258.8 252.02,-228 71.49,-228"/>
<text text-anchor="start" x="78.49" y="-240.2" font-family="Arial" font-size="14.00">created_height </text>
<text text-anchor="start" x="175.01" y="-240.2" font-family="Arial" font-size="14.00" fill="#666666">[INTEGER]</text>
<polygon fill="none" stroke="black" points="71.49,-197.2 71.49,-228 252.02,-228 252.02,-197.2 71.49,-197.2"/>
<text text-anchor="start" x="78.49" y="-209.4" font-family="Arial" font-size="14.00">hint </text>
<text text-anchor="start" x="104.95" y="-209.4" font-family="Arial" font-size="14.00" fill="#666666">[BLOB]</text>
<polygon fill="none" stroke="black" points="71.49,-166.4 71.49,-197.2 252.02,-197.2 252.02,-166.4 71.49,-166.4"/>
<text text-anchor="start" x="78.49" y="-178.6" font-family="Arial" font-size="14.00">synced </text>
<text text-anchor="start" x="126.74" y="-178.6" font-family="Arial" font-size="14.00" fill="#666666">[BOOLEAN]</text>
<polygon fill="none" stroke="black" points="71.49,-135.6 71.49,-166.4 252.02,-166.4 252.02,-135.6 71.49,-135.6"/>
<text text-anchor="start" x="78.49" y="-147.8" font-family="Arial" font-size="14.00">transaction_id </text>
<text text-anchor="start" x="169.55" y="-147.8" font-family="Arial" font-size="14.00" fill="#666666">[BLOB]</text>
<polygon fill="none" stroke="black" points="71.49,-104.8 71.49,-135.6 252.02,-135.6 252.02,-104.8 71.49,-104.8"/>
<text text-anchor="start" x="78.49" y="-117" font-family="Arial" font-size="14.00">kind </text>
<text text-anchor="start" x="108.07" y="-117" font-family="Arial" font-size="14.00" fill="#666666">[INTEGER]</text>
<polygon fill="none" stroke="black" points="71.49,-74 71.49,-104.8 252.02,-104.8 252.02,-74 71.49,-74"/>
<text text-anchor="start" x="78.49" y="-86.2" font-family="Arial" font-size="14.00">spent_unixtime </text>
<text text-anchor="start" x="176.55" y="-86.2" font-family="Arial" font-size="14.00" fill="#666666">[BIGINT]</text>
<polygon fill="none" stroke="black" points="71.49,-43.2 71.49,-74 252.02,-74 252.02,-43.2 71.49,-43.2"/>
<text text-anchor="start" x="78.49" y="-55.4" font-family="Arial" font-size="14.00">created_unixtime </text>
<text text-anchor="start" x="189" y="-55.4" font-family="Arial" font-size="14.00" fill="#666666">[BIGINT]</text>
</g>
<!-- did_coins&#45;&gt;coin_states -->
<g id="edge1" class="edge">
<title>did_coins:coin_id&#45;&gt;coin_states:coin_id</title>
<path fill="none" stroke="black" d="M288.4,-833.93C373.93,-804.51 347.03,-397.4 253.02,-397.4"/>
<polygon fill="black" stroke="black" points="288.5,-833.91 277.9,-831.11 283.24,-834.78 278.97,-835.49 278.97,-835.49 278.97,-835.49 283.24,-834.78 279.38,-839.98 288.5,-833.91"/>
<text text-anchor="start" x="285.31" y="-845.6" font-family="Arial" font-size="10.00">FOREIGN KEY (coin_id) REFERENCES coin_states (coin_id) ON UPDATE NO ACTION ON DELETE CASCADE MATCH NONE</text>
</g>
<!-- dids -->
<g id="node3" class="node">
<title>dids</title>
<polygon fill="#efefef" stroke="none" points="71.49,-1196.8 71.49,-1232.4 252.02,-1232.4 252.02,-1196.8 71.49,-1196.8"/>
<polygon fill="none" stroke="black" points="71.49,-1196.8 71.49,-1232.4 252.02,-1232.4 252.02,-1196.8 71.49,-1196.8"/>
<text text-anchor="start" x="112.12" y="-1210.2" font-family="Arial Bold" font-size="18.00">dids</text>
<text text-anchor="start" x="142.13" y="-1210.2" font-family="Arial" font-size="14.00">    </text>
<text text-anchor="start" x="173.25" y="-1210.2" font-family="Arial" font-size="14.00" fill="#666666">[table]</text>
<polygon fill="none" stroke="black" points="71.49,-1166 71.49,-1196.8 252.02,-1196.8 252.02,-1166 71.49,-1166"/>
<text text-anchor="start" x="78.49" y="-1178.2" font-family="Arial" font-size="14.00">launcher_id </text>
<text text-anchor="start" x="154.77" y="-1178.2" font-family="Arial" font-size="14.00" fill="#666666">[BLOB]</text>
<polygon fill="none" stroke="black" points="71.49,-1135.2 71.49,-1166 252.02,-1166 252.02,-1135.2 71.49,-1135.2"/>
<text text-anchor="start" x="78.49" y="-1147.4" font-family="Arial" font-size="14.00">coin_id </text>
<text text-anchor="start" x="126.75" y="-1147.4" font-family="Arial" font-size="14.00" fill="#666666">[BLOB]</text>
<polygon fill="none" stroke="black" points="71.49,-1104.4 71.49,-1135.2 252.02,-1135.2 252.02,-1104.4 71.49,-1104.4"/>
<text text-anchor="start" x="78.49" y="-1116.6" font-family="Arial" font-size="14.00">name </text>
<text text-anchor="start" x="117.4" y="-1116.6" font-family="Arial" font-size="14.00" fill="#666666">[TEXT]</text>
<polygon fill="none" stroke="black" points="71.49,-1073.6 71.49,-1104.4 252.02,-1104.4 252.02,-1073.6 71.49,-1073.6"/>
<text text-anchor="start" x="78.49" y="-1085.8" font-family="Arial" font-size="14.00">visible </text>
<text text-anchor="start" x="121.29" y="-1085.8" font-family="Arial" font-size="14.00" fill="#666666">[BOOLEAN]</text>
<polygon fill="none" stroke="black" points="71.49,-1042.8 71.49,-1073.6 252.02,-1073.6 252.02,-1042.8 71.49,-1042.8"/>
<text text-anchor="start" x="78.49" y="-1055" font-family="Arial" font-size="14.00">is_owned </text>
<text text-anchor="start" x="141.53" y="-1055" font-family="Arial" font-size="14.00" fill="#666666">[BOOLEAN]</text>
<polygon fill="none" stroke="black" points="71.49,-1012 71.49,-1042.8 252.02,-1042.8 252.02,-1012 71.49,-1012"/>
<text text-anchor="start" x="78.49" y="-1024.2" font-family="Arial" font-size="14.00">created_height </text>
<text text-anchor="start" x="175.01" y="-1024.2" font-family="Arial" font-size="14.00" fill="#666666">[INTEGER]</text>
</g>
<!-- dids&#45;&gt;did_coins -->
<g id="edge2" class="edge">
<title>dids:coin_id&#45;&gt;did_coins:coin_id</title>
<path fill="none" stroke="black" d="M262.98,-1148.42C325.48,-1120.59 345.11,-835.6 278.31,-835.6"/>
<polygon fill="black" stroke="black" points="263.11,-1148.39 252.38,-1146.13 257.9,-1149.53 253.67,-1150.46 253.67,-1150.46 253.67,-1150.46 257.9,-1149.53 254.31,-1154.92 263.11,-1148.39"/>
<text text-anchor="start" x="260.02" y="-1160.6" font-family="Arial" font-size="10.00">FOREIGN KEY (coin_id) REFERENCES did_coins (coin_id) ON UPDATE NO ACTION ON DELETE CASCADE MATCH NONE</text>
</g>
</g>
</svg>
