<?xml version="1.0" encoding="UTF-8" standalone="no"?>
<!DOCTYPE svg PUBLIC "-//W3C//DTD SVG 1.1//EN"
 "http://www.w3.org/Graphics/SVG/1.1/DTD/svg11.dtd">
<!-- Generated by graphviz version 12.1.2 (20240928.0832)
 -->
<!-- Title: dids Pages: 1 -->
<svg width="839pt" height="756pt"
 viewBox="0.00 0.00 838.80 756.00" xmlns="http://www.w3.org/2000/svg" xmlns:xlink="http://www.w3.org/1999/xlink">
<g id="graph0" class="graph" transform="scale(1 1) rotate(0) translate(4 752)">
<title>dids</title>
<polygon fill="white" stroke="none" points="-4,4 -4,-752 834.8,-752 834.8,4 -4,4"/>
<!-- dids -->
<g id="node1" class="node">
<title>dids</title>
<polygon fill="#efefef" stroke="none" points="68.49,-666.2 68.49,-701.8 249.02,-701.8 249.02,-666.2 68.49,-666.2"/>
<polygon fill="none" stroke="black" points="68.49,-666.2 68.49,-701.8 249.02,-701.8 249.02,-666.2 68.49,-666.2"/>
<text text-anchor="start" x="109.12" y="-679.6" font-family="Arial Bold" font-size="18.00">dids</text>
<text text-anchor="start" x="139.13" y="-679.6" font-family="Arial" font-size="14.00">    </text>
<text text-anchor="start" x="170.25" y="-679.6" font-family="Arial" font-size="14.00" fill="#666666">[table]</text>
<polygon fill="none" stroke="black" points="68.49,-635.4 68.49,-666.2 249.02,-666.2 249.02,-635.4 68.49,-635.4"/>
<text text-anchor="start" x="75.49" y="-647.6" font-family="Arial" font-size="14.00">launcher_id </text>
<text text-anchor="start" x="151.77" y="-647.6" font-family="Arial" font-size="14.00" fill="#666666">[BLOB]</text>
<polygon fill="none" stroke="black" points="68.49,-604.6 68.49,-635.4 249.02,-635.4 249.02,-604.6 68.49,-604.6"/>
<text text-anchor="start" x="75.49" y="-616.8" font-family="Arial" font-size="14.00">coin_id </text>
<text text-anchor="start" x="123.75" y="-616.8" font-family="Arial" font-size="14.00" fill="#666666">[BLOB]</text>
<polygon fill="none" stroke="black" points="68.49,-573.8 68.49,-604.6 249.02,-604.6 249.02,-573.8 68.49,-573.8"/>
<text text-anchor="start" x="75.49" y="-586" font-family="Arial" font-size="14.00">name </text>
<text text-anchor="start" x="114.4" y="-586" font-family="Arial" font-size="14.00" fill="#666666">[TEXT]</text>
<polygon fill="none" stroke="black" points="68.49,-543 68.49,-573.8 249.02,-573.8 249.02,-543 68.49,-543"/>
<text text-anchor="start" x="75.49" y="-555.2" font-family="Arial" font-size="14.00">visible </text>
<text text-anchor="start" x="118.29" y="-555.2" font-family="Arial" font-size="14.00" fill="#666666">[BOOLEAN]</text>
<polygon fill="none" stroke="black" points="68.49,-512.2 68.49,-543 249.02,-543 249.02,-512.2 68.49,-512.2"/>
<text text-anchor="start" x="75.49" y="-524.4" font-family="Arial" font-size="14.00">is_owned </text>
<text text-anchor="start" x="138.53" y="-524.4" font-family="Arial" font-size="14.00" fill="#666666">[BOOLEAN]</text>
<polygon fill="none" stroke="black" points="68.49,-481.4 68.49,-512.2 249.02,-512.2 249.02,-481.4 68.49,-481.4"/>
<text text-anchor="start" x="75.49" y="-493.6" font-family="Arial" font-size="14.00">created_height </text>
<text text-anchor="start" x="172.01" y="-493.6" font-family="Arial" font-size="14.00" fill="#666666">[INTEGER]</text>
<polygon fill="none" stroke="black" stroke-width="3" points="66.99,-479.9 66.99,-703.3 250.52,-703.3 250.52,-479.9 66.99,-479.9"/>
</g>
<!-- did_coins -->
<g id="node2" class="node">
<title>did_coins</title>
<polygon fill="#efefef" stroke="none" points="43.2,-320.4 43.2,-356 274.31,-356 274.31,-320.4 43.2,-320.4"/>
<polygon fill="none" stroke="black" points="43.2,-320.4 43.2,-356 274.31,-356 274.31,-320.4 43.2,-320.4"/>
<text text-anchor="start" x="89.13" y="-333.8" font-family="Arial Bold" font-size="18.00">did_coins</text>
<text text-anchor="start" x="159.13" y="-333.8" font-family="Arial" font-size="14.00">    </text>
<text text-anchor="start" x="190.24" y="-333.8" font-family="Arial" font-size="14.00" fill="#666666">[table]</text>
<polygon fill="none" stroke="black" points="43.2,-289.6 43.2,-320.4 274.31,-320.4 274.31,-289.6 43.2,-289.6"/>
<text text-anchor="start" x="50.2" y="-301.8" font-family="Arial" font-size="14.00">coin_id </text>
<text text-anchor="start" x="98.45" y="-301.8" font-family="Arial" font-size="14.00" fill="#666666">[BLOB]</text>
<polygon fill="none" stroke="black" points="43.2,-258.8 43.2,-289.6 274.31,-289.6 274.31,-258.8 43.2,-258.8"/>
<text text-anchor="start" x="50.2" y="-271" font-family="Arial" font-size="14.00">parent_parent_coin_id </text>
<text text-anchor="start" x="193.42" y="-271" font-family="Arial" font-size="14.00" fill="#666666">[BLOB]</text>
<polygon fill="none" stroke="black" points="43.2,-228 43.2,-258.8 274.31,-258.8 274.31,-228 43.2,-228"/>
<text text-anchor="start" x="50.2" y="-240.2" font-family="Arial" font-size="14.00">parent_inner_puzzle_hash </text>
<text text-anchor="start" x="219.1" y="-240.2" font-family="Arial" font-size="14.00" fill="#666666">[BLOB]</text>
<polygon fill="none" stroke="black" points="43.2,-197.2 43.2,-228 274.31,-228 274.31,-197.2 43.2,-197.2"/>
<text text-anchor="start" x="50.2" y="-209.4" font-family="Arial" font-size="14.00">parent_amount </text>
<text text-anchor="start" x="148.27" y="-209.4" font-family="Arial" font-size="14.00" fill="#666666">[BLOB]</text>
<polygon fill="none" stroke="black" points="43.2,-166.4 43.2,-197.2 274.31,-197.2 274.31,-166.4 43.2,-166.4"/>
<text text-anchor="start" x="50.2" y="-178.6" font-family="Arial" font-size="14.00">launcher_id </text>
<text text-anchor="start" x="126.48" y="-178.6" font-family="Arial" font-size="14.00" fill="#666666">[BLOB]</text>
<polygon fill="none" stroke="black" points="43.2,-135.6 43.2,-166.4 274.31,-166.4 274.31,-135.6 43.2,-135.6"/>
<text text-anchor="start" x="50.2" y="-147.8" font-family="Arial" font-size="14.00">recovery_list_hash </text>
<text text-anchor="start" x="170.81" y="-147.8" font-family="Arial" font-size="14.00" fill="#666666">[BLOB]</text>
<polygon fill="none" stroke="black" points="43.2,-104.8 43.2,-135.6 274.31,-135.6 274.31,-104.8 43.2,-104.8"/>
<text text-anchor="start" x="50.2" y="-117" font-family="Arial" font-size="14.00">num_verifications_required </text>
<text text-anchor="start" x="222.18" y="-117" font-family="Arial" font-size="14.00" fill="#666666">[BLOB]</text>
<polygon fill="none" stroke="black" points="43.2,-74 43.2,-104.8 274.31,-104.8 274.31,-74 43.2,-74"/>
<text text-anchor="start" x="50.2" y="-86.2" font-family="Arial" font-size="14.00">metadata </text>
<text text-anchor="start" x="112.46" y="-86.2" font-family="Arial" font-size="14.00" fill="#666666">[BLOB]</text>
<polygon fill="none" stroke="black" points="43.2,-43.2 43.2,-74 274.31,-74 274.31,-43.2 43.2,-43.2"/>
<text text-anchor="start" x="50.2" y="-55.4" font-family="Arial" font-size="14.00">p2_puzzle_hash </text>
<text text-anchor="start" x="156.06" y="-55.4" font-family="Arial" font-size="14.00" fill="#666666">[BLOB]</text>
</g>
<!-- dids&#45;&gt;did_coins -->
<g id="edge1" class="edge">
<title>dids:coin_id&#45;&gt;did_coins:coin_id</title>
<path fill="none" stroke="black" d="M259.98,-617.82C322.48,-589.99 342.11,-305 275.31,-305"/>
<polygon fill="black" stroke="black" points="260.11,-617.79 249.38,-615.53 254.9,-618.93 250.67,-619.86 250.67,-619.86 250.67,-619.86 254.9,-618.93 251.31,-624.32 260.11,-617.79"/>
<text text-anchor="start" x="257.02" y="-630" font-family="Arial" font-size="10.00">FOREIGN KEY (coin_id) REFERENCES did_coins (coin_id) ON UPDATE NO ACTION ON DELETE CASCADE MATCH NONE</text>
</g>
</g>
</svg>
