<?xml version="1.0" encoding="UTF-8" standalone="no"?>
<!DOCTYPE svg PUBLIC "-//W3C//DTD SVG 1.1//EN"
 "http://www.w3.org/Graphics/SVG/1.1/DTD/svg11.dtd">
<!-- Generated by graphviz version 12.1.2 (20240928.0832)
 -->
<!-- Title: future_did_names Pages: 1 -->
<svg width="314pt" height="198pt"
 viewBox="0.00 0.00 313.62 197.60" xmlns="http://www.w3.org/2000/svg" xmlns:xlink="http://www.w3.org/1999/xlink">
<g id="graph0" class="graph" transform="scale(1 1) rotate(0) translate(4 193.6)">
<title>future_did_names</title>
<polygon fill="white" stroke="none" points="-4,4 -4,-193.6 309.62,-193.6 309.62,4 -4,4"/>
<!-- future_did_names -->
<g id="node1" class="node">
<title>future_did_names</title>
<polygon fill="#efefef" stroke="none" points="46.2,-107.8 46.2,-143.4 259.42,-143.4 259.42,-107.8 46.2,-107.8"/>
<polygon fill="none" stroke="black" points="46.2,-107.8 46.2,-143.4 259.42,-143.4 259.42,-107.8 46.2,-107.8"/>
<text text-anchor="start" x="53.2" y="-121.2" font-family="Arial Bold" font-size="18.00">future_did_names</text>
<text text-anchor="start" x="183.16" y="-121.2" font-family="Arial" font-size="14.00">    </text>
<text text-anchor="start" x="214.28" y="-121.2" font-family="Arial" font-size="14.00" fill="#666666">[table]</text>
<polygon fill="none" stroke="black" points="46.2,-77 46.2,-107.8 259.42,-107.8 259.42,-77 46.2,-77"/>
<text text-anchor="start" x="53.2" y="-89.2" font-family="Arial" font-size="14.00">launcher_id </text>
<text text-anchor="start" x="129.48" y="-89.2" font-family="Arial" font-size="14.00" fill="#666666">[BLOB]</text>
<polygon fill="none" stroke="black" points="46.2,-46.2 46.2,-77 259.42,-77 259.42,-46.2 46.2,-46.2"/>
<text text-anchor="start" x="53.2" y="-58.4" font-family="Arial" font-size="14.00">name </text>
<text text-anchor="start" x="92.11" y="-58.4" font-family="Arial" font-size="14.00" fill="#666666">[TEXT]</text>
<polygon fill="none" stroke="black" stroke-width="3" points="44.7,-44.7 44.7,-144.9 260.92,-144.9 260.92,-44.7 44.7,-44.7"/>
</g>
</g>
</svg>
