<?xml version="1.0" encoding="UTF-8" standalone="no"?>
<!DOCTYPE svg PUBLIC "-//W3C//DTD SVG 1.1//EN"
 "http://www.w3.org/Graphics/SVG/1.1/DTD/svg11.dtd">
<!-- Generated by graphviz version 12.1.2 (20240928.0832)
 -->
<!-- Title: nft_data Pages: 1 -->
<svg width="285pt" height="259pt"
 viewBox="0.00 0.00 284.81 259.20" xmlns="http://www.w3.org/2000/svg" xmlns:xlink="http://www.w3.org/1999/xlink">
<g id="graph0" class="graph" transform="scale(1 1) rotate(0) translate(4 255.2)">
<title>nft_data</title>
<polygon fill="white" stroke="none" points="-4,4 -4,-255.2 280.81,-255.2 280.81,4 -4,4"/>
<!-- nft_data -->
<g id="node1" class="node">
<title>nft_data</title>
<polygon fill="#efefef" stroke="none" points="46.2,-169.4 46.2,-205 230.61,-205 230.61,-169.4 46.2,-169.4"/>
<polygon fill="none" stroke="black" points="46.2,-169.4 46.2,-205 230.61,-205 230.61,-169.4 46.2,-169.4"/>
<text text-anchor="start" x="74.29" y="-182.8" font-family="Arial Bold" font-size="18.00">nft_data</text>
<text text-anchor="start" x="133.27" y="-182.8" font-family="Arial" font-size="14.00">    </text>
<text text-anchor="start" x="164.38" y="-182.8" font-family="Arial" font-size="14.00" fill="#666666">[table]</text>
<polygon fill="none" stroke="black" points="46.2,-138.6 46.2,-169.4 230.61,-169.4 230.61,-138.6 46.2,-138.6"/>
<text text-anchor="start" x="53.2" y="-150.8" font-family="Arial" font-size="14.00">hash </text>
<text text-anchor="start" x="87.45" y="-150.8" font-family="Arial" font-size="14.00" fill="#666666">[BLOB]</text>
<polygon fill="none" stroke="black" points="46.2,-107.8 46.2,-138.6 230.61,-138.6 230.61,-107.8 46.2,-107.8"/>
<text text-anchor="start" x="53.2" y="-120" font-family="Arial" font-size="14.00">data </text>
<text text-anchor="start" x="84.34" y="-120" font-family="Arial" font-size="14.00" fill="#666666">[BLOB]</text>
<polygon fill="none" stroke="black" points="46.2,-77 46.2,-107.8 230.61,-107.8 230.61,-77 46.2,-77"/>
<text text-anchor="start" x="53.2" y="-89.2" font-family="Arial" font-size="14.00">mime_type </text>
<text text-anchor="start" x="125.56" y="-89.2" font-family="Arial" font-size="14.00" fill="#666666">[TEXT]</text>
<polygon fill="none" stroke="black" points="46.2,-46.2 46.2,-77 230.61,-77 230.61,-46.2 46.2,-46.2"/>
<text text-anchor="start" x="53.2" y="-58.4" font-family="Arial" font-size="14.00">hash_matches </text>
<text text-anchor="start" x="148.14" y="-58.4" font-family="Arial" font-size="14.00" fill="#666666">[BOOLEAN]</text>
<polygon fill="none" stroke="black" stroke-width="3" points="44.7,-44.7 44.7,-206.5 232.11,-206.5 232.11,-44.7 44.7,-44.7"/>
</g>
</g>
</svg>
