<?xml version="1.0" encoding="UTF-8" standalone="no"?>
<!DOCTYPE svg PUBLIC "-//W3C//DTD SVG 1.1//EN"
 "http://www.w3.org/Graphics/SVG/1.1/DTD/svg11.dtd">
<!-- Generated by graphviz version 12.1.2 (20240928.0832)
 -->
<!-- Title: nft_coins Pages: 1 -->
<svg width="907pt" height="1653pt"
 viewBox="0.00 0.00 907.38 1653.20" xmlns="http://www.w3.org/2000/svg" xmlns:xlink="http://www.w3.org/1999/xlink">
<g id="graph0" class="graph" transform="scale(1 1) rotate(0) translate(4 1649.2)">
<title>nft_coins</title>
<polygon fill="white" stroke="none" points="-4,4 -4,-1649.2 903.38,-1649.2 903.38,4 -4,4"/>
<!-- nft_coins -->
<g id="node1" class="node">
<title>nft_coins</title>
<polygon fill="#efefef" stroke="none" points="46.2,-1005 46.2,-1040.6 309.26,-1040.6 309.26,-1005 46.2,-1005"/>
<polygon fill="none" stroke="black" points="46.2,-1005 46.2,-1040.6 309.26,-1040.6 309.26,-1005 46.2,-1005"/>
<text text-anchor="start" x="109.61" y="-1018.4" font-family="Arial Bold" font-size="18.00">nft_coins</text>
<text text-anchor="start" x="176.6" y="-1018.4" font-family="Arial" font-size="14.00">    </text>
<text text-anchor="start" x="207.72" y="-1018.4" font-family="Arial" font-size="14.00" fill="#666666">[table]</text>
<polygon fill="none" stroke="black" points="46.2,-974.2 46.2,-1005 309.26,-1005 309.26,-974.2 46.2,-974.2"/>
<text text-anchor="start" x="53.2" y="-986.4" font-family="Arial" font-size="14.00">coin_id </text>
<text text-anchor="start" x="101.45" y="-986.4" font-family="Arial" font-size="14.00" fill="#666666">[BLOB]</text>
<polygon fill="none" stroke="black" points="46.2,-943.4 46.2,-974.2 309.26,-974.2 309.26,-943.4 46.2,-943.4"/>
<text text-anchor="start" x="53.2" y="-955.6" font-family="Arial" font-size="14.00">parent_parent_coin_id </text>
<text text-anchor="start" x="196.42" y="-955.6" font-family="Arial" font-size="14.00" fill="#666666">[BLOB]</text>
<polygon fill="none" stroke="black" points="46.2,-912.6 46.2,-943.4 309.26,-943.4 309.26,-912.6 46.2,-912.6"/>
<text text-anchor="start" x="53.2" y="-924.8" font-family="Arial" font-size="14.00">parent_inner_puzzle_hash </text>
<text text-anchor="start" x="222.1" y="-924.8" font-family="Arial" font-size="14.00" fill="#666666">[BLOB]</text>
<polygon fill="none" stroke="black" points="46.2,-881.8 46.2,-912.6 309.26,-912.6 309.26,-881.8 46.2,-881.8"/>
<text text-anchor="start" x="53.2" y="-894" font-family="Arial" font-size="14.00">parent_amount </text>
<text text-anchor="start" x="151.27" y="-894" font-family="Arial" font-size="14.00" fill="#666666">[BLOB]</text>
<polygon fill="none" stroke="black" points="46.2,-851 46.2,-881.8 309.26,-881.8 309.26,-851 46.2,-851"/>
<text text-anchor="start" x="53.2" y="-863.2" font-family="Arial" font-size="14.00">launcher_id </text>
<text text-anchor="start" x="129.48" y="-863.2" font-family="Arial" font-size="14.00" fill="#666666">[BLOB]</text>
<polygon fill="none" stroke="black" points="46.2,-820.2 46.2,-851 309.26,-851 309.26,-820.2 46.2,-820.2"/>
<text text-anchor="start" x="53.2" y="-832.4" font-family="Arial" font-size="14.00">metadata </text>
<text text-anchor="start" x="115.46" y="-832.4" font-family="Arial" font-size="14.00" fill="#666666">[BLOB]</text>
<polygon fill="none" stroke="black" points="46.2,-789.4 46.2,-820.2 309.26,-820.2 309.26,-789.4 46.2,-789.4"/>
<text text-anchor="start" x="53.2" y="-801.6" font-family="Arial" font-size="14.00">metadata_updater_puzzle_hash </text>
<text text-anchor="start" x="257.13" y="-801.6" font-family="Arial" font-size="14.00" fill="#666666">[BLOB]</text>
<polygon fill="none" stroke="black" points="46.2,-758.6 46.2,-789.4 309.26,-789.4 309.26,-758.6 46.2,-758.6"/>
<text text-anchor="start" x="53.2" y="-770.8" font-family="Arial" font-size="14.00">current_owner </text>
<text text-anchor="start" x="146.58" y="-770.8" font-family="Arial" font-size="14.00" fill="#666666">[BLOB]</text>
<polygon fill="none" stroke="black" points="46.2,-727.8 46.2,-758.6 309.26,-758.6 309.26,-727.8 46.2,-727.8"/>
<text text-anchor="start" x="53.2" y="-740" font-family="Arial" font-size="14.00">royalty_puzzle_hash </text>
<text text-anchor="start" x="184.72" y="-740" font-family="Arial" font-size="14.00" fill="#666666">[BLOB]</text>
<polygon fill="none" stroke="black" points="46.2,-697 46.2,-727.8 309.26,-727.8 309.26,-697 46.2,-697"/>
<text text-anchor="start" x="53.2" y="-709.2" font-family="Arial" font-size="14.00">royalty_ten_thousandths </text>
<text text-anchor="start" x="209.64" y="-709.2" font-family="Arial" font-size="14.00" fill="#666666">[INTEGER]</text>
<polygon fill="none" stroke="black" points="46.2,-666.2 46.2,-697 309.26,-697 309.26,-666.2 46.2,-666.2"/>
<text text-anchor="start" x="53.2" y="-678.4" font-family="Arial" font-size="14.00">p2_puzzle_hash </text>
<text text-anchor="start" x="159.06" y="-678.4" font-family="Arial" font-size="14.00" fill="#666666">[BLOB]</text>
<polygon fill="none" stroke="black" points="46.2,-635.4 46.2,-666.2 309.26,-666.2 309.26,-635.4 46.2,-635.4"/>
<text text-anchor="start" x="53.2" y="-647.6" font-family="Arial" font-size="14.00">data_hash </text>
<text text-anchor="start" x="122.48" y="-647.6" font-family="Arial" font-size="14.00" fill="#666666">[BLOB]</text>
<polygon fill="none" stroke="black" points="46.2,-604.6 46.2,-635.4 309.26,-635.4 309.26,-604.6 46.2,-604.6"/>
<text text-anchor="start" x="53.2" y="-616.8" font-family="Arial" font-size="14.00">metadata_hash </text>
<text text-anchor="start" x="153.61" y="-616.8" font-family="Arial" font-size="14.00" fill="#666666">[BLOB]</text>
<polygon fill="none" stroke="black" points="46.2,-573.8 46.2,-604.6 309.26,-604.6 309.26,-573.8 46.2,-573.8"/>
<text text-anchor="start" x="53.2" y="-586" font-family="Arial" font-size="14.00">license_hash </text>
<text text-anchor="start" x="138.81" y="-586" font-family="Arial" font-size="14.00" fill="#666666">[BLOB]</text>
<polygon fill="none" stroke="black" stroke-width="3" points="44.7,-572.3 44.7,-1042.1 310.76,-1042.1 310.76,-572.3 44.7,-572.3"/>
</g>
<!-- coin_states -->
<g id="node2" class="node">
<title>coin_states</title>
<polygon fill="#efefef" stroke="none" points="87.47,-412.8 87.47,-448.4 267.99,-448.4 267.99,-412.8 87.47,-412.8"/>
<polygon fill="none" stroke="black" points="87.47,-412.8 87.47,-448.4 267.99,-448.4 267.99,-412.8 87.47,-412.8"/>
<text text-anchor="start" x="103.11" y="-426.2" font-family="Arial Bold" font-size="18.00">coin_states</text>
<text text-anchor="start" x="183.09" y="-426.2" font-family="Arial" font-size="14.00">    </text>
<text text-anchor="start" x="214.21" y="-426.2" font-family="Arial" font-size="14.00" fill="#666666">[table]</text>
<polygon fill="none" stroke="black" points="87.47,-382 87.47,-412.8 267.99,-412.8 267.99,-382 87.47,-382"/>
<text text-anchor="start" x="94.47" y="-394.2" font-family="Arial" font-size="14.00">coin_id </text>
<text text-anchor="start" x="142.72" y="-394.2" font-family="Arial" font-size="14.00" fill="#666666">[BLOB]</text>
<polygon fill="none" stroke="black" points="87.47,-351.2 87.47,-382 267.99,-382 267.99,-351.2 87.47,-351.2"/>
<text text-anchor="start" x="94.47" y="-363.4" font-family="Arial" font-size="14.00">parent_coin_id </text>
<text text-anchor="start" x="190.21" y="-363.4" font-family="Arial" font-size="14.00" fill="#666666">[BLOB]</text>
<polygon fill="none" stroke="black" points="87.47,-320.4 87.47,-351.2 267.99,-351.2 267.99,-320.4 87.47,-320.4"/>
<text text-anchor="start" x="94.47" y="-332.6" font-family="Arial" font-size="14.00">puzzle_hash </text>
<text text-anchor="start" x="176.97" y="-332.6" font-family="Arial" font-size="14.00" fill="#666666">[BLOB]</text>
<polygon fill="none" stroke="black" points="87.47,-289.6 87.47,-320.4 267.99,-320.4 267.99,-289.6 87.47,-289.6"/>
<text text-anchor="start" x="94.47" y="-301.8" font-family="Arial" font-size="14.00">amount </text>
<text text-anchor="start" x="145.05" y="-301.8" font-family="Arial" font-size="14.00" fill="#666666">[BLOB]</text>
<polygon fill="none" stroke="black" points="87.47,-258.8 87.47,-289.6 267.99,-289.6 267.99,-258.8 87.47,-258.8"/>
<text text-anchor="start" x="94.47" y="-271" font-family="Arial" font-size="14.00">spent_height </text>
<text text-anchor="start" x="178.54" y="-271" font-family="Arial" font-size="14.00" fill="#666666">[INTEGER]</text>
<polygon fill="none" stroke="black" points="87.47,-228 87.47,-258.8 267.99,-258.8 267.99,-228 87.47,-228"/>
<text text-anchor="start" x="94.47" y="-240.2" font-family="Arial" font-size="14.00">created_height </text>
<text text-anchor="start" x="190.99" y="-240.2" font-family="Arial" font-size="14.00" fill="#666666">[INTEGER]</text>
<polygon fill="none" stroke="black" points="87.47,-197.2 87.47,-228 267.99,-228 267.99,-197.2 87.47,-197.2"/>
<text text-anchor="start" x="94.47" y="-209.4" font-family="Arial" font-size="14.00">hint </text>
<text text-anchor="start" x="120.93" y="-209.4" font-family="Arial" font-size="14.00" fill="#666666">[BLOB]</text>
<polygon fill="none" stroke="black" points="87.47,-166.4 87.47,-197.2 267.99,-197.2 267.99,-166.4 87.47,-166.4"/>
<text text-anchor="start" x="94.47" y="-178.6" font-family="Arial" font-size="14.00">synced </text>
<text text-anchor="start" x="142.72" y="-178.6" font-family="Arial" font-size="14.00" fill="#666666">[BOOLEAN]</text>
<polygon fill="none" stroke="black" points="87.47,-135.6 87.47,-166.4 267.99,-166.4 267.99,-135.6 87.47,-135.6"/>
<text text-anchor="start" x="94.47" y="-147.8" font-family="Arial" font-size="14.00">transaction_id </text>
<text text-anchor="start" x="185.52" y="-147.8" font-family="Arial" font-size="14.00" fill="#666666">[BLOB]</text>
<polygon fill="none" stroke="black" points="87.47,-104.8 87.47,-135.6 267.99,-135.6 267.99,-104.8 87.47,-104.8"/>
<text text-anchor="start" x="94.47" y="-117" font-family="Arial" font-size="14.00">kind </text>
<text text-anchor="start" x="124.04" y="-117" font-family="Arial" font-size="14.00" fill="#666666">[INTEGER]</text>
<polygon fill="none" stroke="black" points="87.47,-74 87.47,-104.8 267.99,-104.8 267.99,-74 87.47,-74"/>
<text text-anchor="start" x="94.47" y="-86.2" font-family="Arial" font-size="14.00">spent_unixtime </text>
<text text-anchor="start" x="192.52" y="-86.2" font-family="Arial" font-size="14.00" fill="#666666">[BIGINT]</text>
<polygon fill="none" stroke="black" points="87.47,-43.2 87.47,-74 267.99,-74 267.99,-43.2 87.47,-43.2"/>
<text text-anchor="start" x="94.47" y="-55.4" font-family="Arial" font-size="14.00">created_unixtime </text>
<text text-anchor="start" x="204.97" y="-55.4" font-family="Arial" font-size="14.00" fill="#666666">[BIGINT]</text>
</g>
<!-- nft_coins&#45;&gt;coin_states -->
<g id="edge1" class="edge">
<title>nft_coins:coin_id&#45;&gt;coin_states:coin_id</title>
<path fill="none" stroke="black" d="M319.49,-985.17C371.97,-930.98 331.6,-397.4 268.99,-397.4"/>
<polygon fill="black" stroke="black" points="319.58,-985.13 308.62,-985.4 314.77,-987.44 310.86,-989.31 310.86,-989.31 310.86,-989.31 314.77,-987.44 312.51,-993.51 319.58,-985.13"/>
<text text-anchor="start" x="317.26" y="-999.6" font-family="Arial" font-size="10.00">FOREIGN KEY (coin_id) REFERENCES coin_states (coin_id) ON UPDATE NO ACTION ON DELETE CASCADE MATCH NONE</text>
</g>
<!-- nfts -->
<g id="node3" class="node">
<title>nfts</title>
<polygon fill="#efefef" stroke="none" points="76.96,-1566.4 76.96,-1602 278.5,-1602 278.5,-1566.4 76.96,-1566.4"/>
<polygon fill="none" stroke="black" points="76.96,-1566.4 76.96,-1602 278.5,-1602 278.5,-1566.4 76.96,-1566.4"/>
<text text-anchor="start" x="129.6" y="-1579.8" font-family="Arial Bold" font-size="18.00">nfts</text>
<text text-anchor="start" x="156.6" y="-1579.8" font-family="Arial" font-size="14.00">    </text>
<text text-anchor="start" x="187.72" y="-1579.8" font-family="Arial" font-size="14.00" fill="#666666">[table]</text>
<polygon fill="none" stroke="black" points="76.96,-1535.6 76.96,-1566.4 278.5,-1566.4 278.5,-1535.6 76.96,-1535.6"/>
<text text-anchor="start" x="83.96" y="-1547.8" font-family="Arial" font-size="14.00">launcher_id </text>
<text text-anchor="start" x="160.24" y="-1547.8" font-family="Arial" font-size="14.00" fill="#666666">[BLOB]</text>
<polygon fill="none" stroke="black" points="76.96,-1504.8 76.96,-1535.6 278.5,-1535.6 278.5,-1504.8 76.96,-1504.8"/>
<text text-anchor="start" x="83.96" y="-1517" font-family="Arial" font-size="14.00">coin_id </text>
<text text-anchor="start" x="132.22" y="-1517" font-family="Arial" font-size="14.00" fill="#666666">[BLOB]</text>
<polygon fill="none" stroke="black" points="76.96,-1474 76.96,-1504.8 278.5,-1504.8 278.5,-1474 76.96,-1474"/>
<text text-anchor="start" x="83.96" y="-1486.2" font-family="Arial" font-size="14.00">collection_id </text>
<text text-anchor="start" x="164.9" y="-1486.2" font-family="Arial" font-size="14.00" fill="#666666">[BLOB]</text>
<polygon fill="none" stroke="black" points="76.96,-1443.2 76.96,-1474 278.5,-1474 278.5,-1443.2 76.96,-1443.2"/>
<text text-anchor="start" x="83.96" y="-1455.4" font-family="Arial" font-size="14.00">minter_did </text>
<text text-anchor="start" x="153.22" y="-1455.4" font-family="Arial" font-size="14.00" fill="#666666">[BLOB]</text>
<polygon fill="none" stroke="black" points="76.96,-1412.4 76.96,-1443.2 278.5,-1443.2 278.5,-1412.4 76.96,-1412.4"/>
<text text-anchor="start" x="83.96" y="-1424.6" font-family="Arial" font-size="14.00">owner_did </text>
<text text-anchor="start" x="152.45" y="-1424.6" font-family="Arial" font-size="14.00" fill="#666666">[BLOB]</text>
<polygon fill="none" stroke="black" points="76.96,-1381.6 76.96,-1412.4 278.5,-1412.4 278.5,-1381.6 76.96,-1381.6"/>
<text text-anchor="start" x="83.96" y="-1393.8" font-family="Arial" font-size="14.00">visible </text>
<text text-anchor="start" x="126.75" y="-1393.8" font-family="Arial" font-size="14.00" fill="#666666">[BOOLEAN]</text>
<polygon fill="none" stroke="black" points="76.96,-1350.8 76.96,-1381.6 278.5,-1381.6 278.5,-1350.8 76.96,-1350.8"/>
<text text-anchor="start" x="83.96" y="-1363" font-family="Arial" font-size="14.00">sensitive_content </text>
<text text-anchor="start" x="196.03" y="-1363" font-family="Arial" font-size="14.00" fill="#666666">[BOOLEAN]</text>
<polygon fill="none" stroke="black" points="76.96,-1320 76.96,-1350.8 278.5,-1350.8 278.5,-1320 76.96,-1320"/>
<text text-anchor="start" x="83.96" y="-1332.2" font-family="Arial" font-size="14.00">name </text>
<text text-anchor="start" x="122.87" y="-1332.2" font-family="Arial" font-size="14.00" fill="#666666">[TEXT]</text>
<polygon fill="none" stroke="black" points="76.96,-1289.2 76.96,-1320 278.5,-1320 278.5,-1289.2 76.96,-1289.2"/>
<text text-anchor="start" x="83.96" y="-1301.4" font-family="Arial" font-size="14.00">is_owned </text>
<text text-anchor="start" x="147" y="-1301.4" font-family="Arial" font-size="14.00" fill="#666666">[BOOLEAN]</text>
<polygon fill="none" stroke="black" points="76.96,-1258.4 76.96,-1289.2 278.5,-1289.2 278.5,-1258.4 76.96,-1258.4"/>
<text text-anchor="start" x="83.96" y="-1270.6" font-family="Arial" font-size="14.00">created_height </text>
<text text-anchor="start" x="180.48" y="-1270.6" font-family="Arial" font-size="14.00" fill="#666666">[INTEGER]</text>
<polygon fill="none" stroke="black" points="76.96,-1227.6 76.96,-1258.4 278.5,-1258.4 278.5,-1227.6 76.96,-1227.6"/>
<text text-anchor="start" x="83.96" y="-1239.8" font-family="Arial" font-size="14.00">metadata_hash </text>
<text text-anchor="start" x="184.37" y="-1239.8" font-family="Arial" font-size="14.00" fill="#666666">[BLOB]</text>
<polygon fill="none" stroke="black" points="76.96,-1196.8 76.96,-1227.6 278.5,-1227.6 278.5,-1196.8 76.96,-1196.8"/>
<text text-anchor="start" x="83.96" y="-1209" font-family="Arial" font-size="14.00">edition_number </text>
<text text-anchor="start" x="184.36" y="-1209" font-family="Arial" font-size="14.00" fill="#666666">[INTEGER]</text>
<polygon fill="none" stroke="black" points="76.96,-1166 76.96,-1196.8 278.5,-1196.8 278.5,-1166 76.96,-1166"/>
<text text-anchor="start" x="83.96" y="-1178.2" font-family="Arial" font-size="14.00">edition_total </text>
<text text-anchor="start" x="163.35" y="-1178.2" font-family="Arial" font-size="14.00" fill="#666666">[INTEGER]</text>
</g>
<!-- nfts&#45;&gt;nft_coins -->
<g id="edge2" class="edge">
<title>nfts:coin_id&#45;&gt;nft_coins:coin_id</title>
<path fill="none" stroke="black" d="M289.65,-1518.86C399.28,-1489.57 424.91,-989.6 310.26,-989.6"/>
<polygon fill="black" stroke="black" points="289.74,-1518.85 279.24,-1515.69 284.46,-1519.55 280.16,-1520.11 280.16,-1520.11 280.16,-1520.11 284.46,-1519.55 280.42,-1524.62 289.74,-1518.85"/>
<text text-anchor="start" x="286.5" y="-1530.2" font-family="Arial" font-size="10.00">FOREIGN KEY (coin_id) REFERENCES nft_coins (coin_id) ON UPDATE NO ACTION ON DELETE CASCADE MATCH NONE</text>
</g>
</g>
</svg>
