<?xml version="1.0" encoding="UTF-8" standalone="no"?>
<!DOCTYPE svg PUBLIC "-//W3C//DTD SVG 1.1//EN"
 "http://www.w3.org/Graphics/SVG/1.1/DTD/svg11.dtd">
<!-- Generated by graphviz version 12.1.2 (20240928.0832)
 -->
<!-- Title: nft_thumbnails Pages: 1 -->
<svg width="293pt" height="228pt"
 viewBox="0.00 0.00 292.65 228.40" xmlns="http://www.w3.org/2000/svg" xmlns:xlink="http://www.w3.org/1999/xlink">
<g id="graph0" class="graph" transform="scale(1 1) rotate(0) translate(4 224.4)">
<title>nft_thumbnails</title>
<polygon fill="white" stroke="none" points="-4,4 -4,-224.4 288.65,-224.4 288.65,4 -4,4"/>
<!-- nft_thumbnails -->
<g id="node1" class="node">
<title>nft_thumbnails</title>
<polygon fill="#efefef" stroke="none" points="46.2,-138.6 46.2,-174.2 238.45,-174.2 238.45,-138.6 46.2,-138.6"/>
<polygon fill="none" stroke="black" points="46.2,-138.6 46.2,-174.2 238.45,-174.2 238.45,-138.6 46.2,-138.6"/>
<text text-anchor="start" x="53.2" y="-152" font-family="Arial Bold" font-size="18.00">nft_thumbnails</text>
<text text-anchor="start" x="162.19" y="-152" font-family="Arial" font-size="14.00">    </text>
<text text-anchor="start" x="193.31" y="-152" font-family="Arial" font-size="14.00" fill="#666666">[table]</text>
<polygon fill="none" stroke="black" points="46.2,-107.8 46.2,-138.6 238.45,-138.6 238.45,-107.8 46.2,-107.8"/>
<text text-anchor="start" x="53.2" y="-120" font-family="Arial" font-size="14.00">hash </text>
<text text-anchor="start" x="87.45" y="-120" font-family="Arial" font-size="14.00" fill="#666666">[BLOB]</text>
<polygon fill="none" stroke="black" points="46.2,-77 46.2,-107.8 238.45,-107.8 238.45,-77 46.2,-77"/>
<text text-anchor="start" x="53.2" y="-89.2" font-family="Arial" font-size="14.00">icon </text>
<text text-anchor="start" x="82.77" y="-89.2" font-family="Arial" font-size="14.00" fill="#666666">[BLOB]</text>
<polygon fill="none" stroke="black" points="46.2,-46.2 46.2,-77 238.45,-77 238.45,-46.2 46.2,-46.2"/>
<text text-anchor="start" x="53.2" y="-58.4" font-family="Arial" font-size="14.00">thumbnail </text>
<text text-anchor="start" x="117.79" y="-58.4" font-family="Arial" font-size="14.00" fill="#666666">[BLOB]</text>
<polygon fill="none" stroke="black" stroke-width="3" points="44.7,-44.7 44.7,-175.7 239.95,-175.7 239.95,-44.7 44.7,-44.7"/>
</g>
</g>
</svg>
