<?xml version="1.0" encoding="UTF-8" standalone="no"?>
<!DOCTYPE svg PUBLIC "-//W3C//DTD SVG 1.1//EN"
 "http://www.w3.org/Graphics/SVG/1.1/DTD/svg11.dtd">
<!-- Generated by graphviz version 12.1.2 (20240928.0832)
 -->
<!-- Title: nfts Pages: 1 -->
<svg width="863pt" height="1126pt"
 viewBox="0.00 0.00 863.06 1125.60" xmlns="http://www.w3.org/2000/svg" xmlns:xlink="http://www.w3.org/1999/xlink">
<g id="graph0" class="graph" transform="scale(1 1) rotate(0) translate(4 1121.6)">
<title>nfts</title>
<polygon fill="white" stroke="none" points="-4,4 -4,-1121.6 859.06,-1121.6 859.06,4 -4,4"/>
<!-- nfts -->
<g id="node1" class="node">
<title>nfts</title>
<polygon fill="#efefef" stroke="none" points="73.96,-1035.8 73.96,-1071.4 275.5,-1071.4 275.5,-1035.8 73.96,-1035.8"/>
<polygon fill="none" stroke="black" points="73.96,-1035.8 73.96,-1071.4 275.5,-1071.4 275.5,-1035.8 73.96,-1035.8"/>
<text text-anchor="start" x="126.6" y="-1049.2" font-family="Arial Bold" font-size="18.00">nfts</text>
<text text-anchor="start" x="153.6" y="-1049.2" font-family="Arial" font-size="14.00">    </text>
<text text-anchor="start" x="184.72" y="-1049.2" font-family="Arial" font-size="14.00" fill="#666666">[table]</text>
<polygon fill="none" stroke="black" points="73.96,-1005 73.96,-1035.8 275.5,-1035.8 275.5,-1005 73.96,-1005"/>
<text text-anchor="start" x="80.96" y="-1017.2" font-family="Arial" font-size="14.00">launcher_id </text>
<text text-anchor="start" x="157.24" y="-1017.2" font-family="Arial" font-size="14.00" fill="#666666">[BLOB]</text>
<polygon fill="none" stroke="black" points="73.96,-974.2 73.96,-1005 275.5,-1005 275.5,-974.2 73.96,-974.2"/>
<text text-anchor="start" x="80.96" y="-986.4" font-family="Arial" font-size="14.00">coin_id </text>
<text text-anchor="start" x="129.22" y="-986.4" font-family="Arial" font-size="14.00" fill="#666666">[BLOB]</text>
<polygon fill="none" stroke="black" points="73.96,-943.4 73.96,-974.2 275.5,-974.2 275.5,-943.4 73.96,-943.4"/>
<text text-anchor="start" x="80.96" y="-955.6" font-family="Arial" font-size="14.00">collection_id </text>
<text text-anchor="start" x="161.9" y="-955.6" font-family="Arial" font-size="14.00" fill="#666666">[BLOB]</text>
<polygon fill="none" stroke="black" points="73.96,-912.6 73.96,-943.4 275.5,-943.4 275.5,-912.6 73.96,-912.6"/>
<text text-anchor="start" x="80.96" y="-924.8" font-family="Arial" font-size="14.00">minter_did </text>
<text text-anchor="start" x="150.22" y="-924.8" font-family="Arial" font-size="14.00" fill="#666666">[BLOB]</text>
<polygon fill="none" stroke="black" points="73.96,-881.8 73.96,-912.6 275.5,-912.6 275.5,-881.8 73.96,-881.8"/>
<text text-anchor="start" x="80.96" y="-894" font-family="Arial" font-size="14.00">owner_did </text>
<text text-anchor="start" x="149.45" y="-894" font-family="Arial" font-size="14.00" fill="#666666">[BLOB]</text>
<polygon fill="none" stroke="black" points="73.96,-851 73.96,-881.8 275.5,-881.8 275.5,-851 73.96,-851"/>
<text text-anchor="start" x="80.96" y="-863.2" font-family="Arial" font-size="14.00">visible </text>
<text text-anchor="start" x="123.75" y="-863.2" font-family="Arial" font-size="14.00" fill="#666666">[BOOLEAN]</text>
<polygon fill="none" stroke="black" points="73.96,-820.2 73.96,-851 275.5,-851 275.5,-820.2 73.96,-820.2"/>
<text text-anchor="start" x="80.96" y="-832.4" font-family="Arial" font-size="14.00">sensitive_content </text>
<text text-anchor="start" x="193.03" y="-832.4" font-family="Arial" font-size="14.00" fill="#666666">[BOOLEAN]</text>
<polygon fill="none" stroke="black" points="73.96,-789.4 73.96,-820.2 275.5,-820.2 275.5,-789.4 73.96,-789.4"/>
<text text-anchor="start" x="80.96" y="-801.6" font-family="Arial" font-size="14.00">name </text>
<text text-anchor="start" x="119.87" y="-801.6" font-family="Arial" font-size="14.00" fill="#666666">[TEXT]</text>
<polygon fill="none" stroke="black" points="73.96,-758.6 73.96,-789.4 275.5,-789.4 275.5,-758.6 73.96,-758.6"/>
<text text-anchor="start" x="80.96" y="-770.8" font-family="Arial" font-size="14.00">is_owned </text>
<text text-anchor="start" x="144" y="-770.8" font-family="Arial" font-size="14.00" fill="#666666">[BOOLEAN]</text>
<polygon fill="none" stroke="black" points="73.96,-727.8 73.96,-758.6 275.5,-758.6 275.5,-727.8 73.96,-727.8"/>
<text text-anchor="start" x="80.96" y="-740" font-family="Arial" font-size="14.00">created_height </text>
<text text-anchor="start" x="177.48" y="-740" font-family="Arial" font-size="14.00" fill="#666666">[INTEGER]</text>
<polygon fill="none" stroke="black" points="73.96,-697 73.96,-727.8 275.5,-727.8 275.5,-697 73.96,-697"/>
<text text-anchor="start" x="80.96" y="-709.2" font-family="Arial" font-size="14.00">metadata_hash </text>
<text text-anchor="start" x="181.37" y="-709.2" font-family="Arial" font-size="14.00" fill="#666666">[BLOB]</text>
<polygon fill="none" stroke="black" points="73.96,-666.2 73.96,-697 275.5,-697 275.5,-666.2 73.96,-666.2"/>
<text text-anchor="start" x="80.96" y="-678.4" font-family="Arial" font-size="14.00">edition_number </text>
<text text-anchor="start" x="181.36" y="-678.4" font-family="Arial" font-size="14.00" fill="#666666">[INTEGER]</text>
<polygon fill="none" stroke="black" points="73.96,-635.4 73.96,-666.2 275.5,-666.2 275.5,-635.4 73.96,-635.4"/>
<text text-anchor="start" x="80.96" y="-647.6" font-family="Arial" font-size="14.00">edition_total </text>
<text text-anchor="start" x="160.35" y="-647.6" font-family="Arial" font-size="14.00" fill="#666666">[INTEGER]</text>
<polygon fill="none" stroke="black" stroke-width="3" points="72.46,-633.9 72.46,-1072.9 277,-1072.9 277,-633.9 72.46,-633.9"/>
</g>
<!-- nft_coins -->
<g id="node2" class="node">
<title>nft_coins</title>
<polygon fill="#efefef" stroke="none" points="43.2,-474.4 43.2,-510 306.26,-510 306.26,-474.4 43.2,-474.4"/>
<polygon fill="none" stroke="black" points="43.2,-474.4 43.2,-510 306.26,-510 306.26,-474.4 43.2,-474.4"/>
<text text-anchor="start" x="106.61" y="-487.8" font-family="Arial Bold" font-size="18.00">nft_coins</text>
<text text-anchor="start" x="173.6" y="-487.8" font-family="Arial" font-size="14.00">    </text>
<text text-anchor="start" x="204.72" y="-487.8" font-family="Arial" font-size="14.00" fill="#666666">[table]</text>
<polygon fill="none" stroke="black" points="43.2,-443.6 43.2,-474.4 306.26,-474.4 306.26,-443.6 43.2,-443.6"/>
<text text-anchor="start" x="50.2" y="-455.8" font-family="Arial" font-size="14.00">coin_id </text>
<text text-anchor="start" x="98.45" y="-455.8" font-family="Arial" font-size="14.00" fill="#666666">[BLOB]</text>
<polygon fill="none" stroke="black" points="43.2,-412.8 43.2,-443.6 306.26,-443.6 306.26,-412.8 43.2,-412.8"/>
<text text-anchor="start" x="50.2" y="-425" font-family="Arial" font-size="14.00">parent_parent_coin_id </text>
<text text-anchor="start" x="193.42" y="-425" font-family="Arial" font-size="14.00" fill="#666666">[BLOB]</text>
<polygon fill="none" stroke="black" points="43.2,-382 43.2,-412.8 306.26,-412.8 306.26,-382 43.2,-382"/>
<text text-anchor="start" x="50.2" y="-394.2" font-family="Arial" font-size="14.00">parent_inner_puzzle_hash </text>
<text text-anchor="start" x="219.1" y="-394.2" font-family="Arial" font-size="14.00" fill="#666666">[BLOB]</text>
<polygon fill="none" stroke="black" points="43.2,-351.2 43.2,-382 306.26,-382 306.26,-351.2 43.2,-351.2"/>
<text text-anchor="start" x="50.2" y="-363.4" font-family="Arial" font-size="14.00">parent_amount </text>
<text text-anchor="start" x="148.27" y="-363.4" font-family="Arial" font-size="14.00" fill="#666666">[BLOB]</text>
<polygon fill="none" stroke="black" points="43.2,-320.4 43.2,-351.2 306.26,-351.2 306.26,-320.4 43.2,-320.4"/>
<text text-anchor="start" x="50.2" y="-332.6" font-family="Arial" font-size="14.00">launcher_id </text>
<text text-anchor="start" x="126.48" y="-332.6" font-family="Arial" font-size="14.00" fill="#666666">[BLOB]</text>
<polygon fill="none" stroke="black" points="43.2,-289.6 43.2,-320.4 306.26,-320.4 306.26,-289.6 43.2,-289.6"/>
<text text-anchor="start" x="50.2" y="-301.8" font-family="Arial" font-size="14.00">metadata </text>
<text text-anchor="start" x="112.46" y="-301.8" font-family="Arial" font-size="14.00" fill="#666666">[BLOB]</text>
<polygon fill="none" stroke="black" points="43.2,-258.8 43.2,-289.6 306.26,-289.6 306.26,-258.8 43.2,-258.8"/>
<text text-anchor="start" x="50.2" y="-271" font-family="Arial" font-size="14.00">metadata_updater_puzzle_hash </text>
<text text-anchor="start" x="254.13" y="-271" font-family="Arial" font-size="14.00" fill="#666666">[BLOB]</text>
<polygon fill="none" stroke="black" points="43.2,-228 43.2,-258.8 306.26,-258.8 306.26,-228 43.2,-228"/>
<text text-anchor="start" x="50.2" y="-240.2" font-family="Arial" font-size="14.00">current_owner </text>
<text text-anchor="start" x="143.58" y="-240.2" font-family="Arial" font-size="14.00" fill="#666666">[BLOB]</text>
<polygon fill="none" stroke="black" points="43.2,-197.2 43.2,-228 306.26,-228 306.26,-197.2 43.2,-197.2"/>
<text text-anchor="start" x="50.2" y="-209.4" font-family="Arial" font-size="14.00">royalty_puzzle_hash </text>
<text text-anchor="start" x="181.72" y="-209.4" font-family="Arial" font-size="14.00" fill="#666666">[BLOB]</text>
<polygon fill="none" stroke="black" points="43.2,-166.4 43.2,-197.2 306.26,-197.2 306.26,-166.4 43.2,-166.4"/>
<text text-anchor="start" x="50.2" y="-178.6" font-family="Arial" font-size="14.00">royalty_ten_thousandths </text>
<text text-anchor="start" x="206.64" y="-178.6" font-family="Arial" font-size="14.00" fill="#666666">[INTEGER]</text>
<polygon fill="none" stroke="black" points="43.2,-135.6 43.2,-166.4 306.26,-166.4 306.26,-135.6 43.2,-135.6"/>
<text text-anchor="start" x="50.2" y="-147.8" font-family="Arial" font-size="14.00">p2_puzzle_hash </text>
<text text-anchor="start" x="156.06" y="-147.8" font-family="Arial" font-size="14.00" fill="#666666">[BLOB]</text>
<polygon fill="none" stroke="black" points="43.2,-104.8 43.2,-135.6 306.26,-135.6 306.26,-104.8 43.2,-104.8"/>
<text text-anchor="start" x="50.2" y="-117" font-family="Arial" font-size="14.00">data_hash </text>
<text text-anchor="start" x="119.48" y="-117" font-family="Arial" font-size="14.00" fill="#666666">[BLOB]</text>
<polygon fill="none" stroke="black" points="43.2,-74 43.2,-104.8 306.26,-104.8 306.26,-74 43.2,-74"/>
<text text-anchor="start" x="50.2" y="-86.2" font-family="Arial" font-size="14.00">metadata_hash </text>
<text text-anchor="start" x="150.61" y="-86.2" font-family="Arial" font-size="14.00" fill="#666666">[BLOB]</text>
<polygon fill="none" stroke="black" points="43.2,-43.2 43.2,-74 306.26,-74 306.26,-43.2 43.2,-43.2"/>
<text text-anchor="start" x="50.2" y="-55.4" font-family="Arial" font-size="14.00">license_hash </text>
<text text-anchor="start" x="135.81" y="-55.4" font-family="Arial" font-size="14.00" fill="#666666">[BLOB]</text>
</g>
<!-- nfts&#45;&gt;nft_coins -->
<g id="edge1" class="edge">
<title>nfts:coin_id&#45;&gt;nft_coins:coin_id</title>
<path fill="none" stroke="black" d="M285.6,-985.33C338.55,-935.11 363.2,-459 307.26,-459"/>
<polygon fill="black" stroke="black" points="285.85,-985.21 274.89,-985.38 281.02,-987.48 277.1,-989.32 277.1,-989.32 277.1,-989.32 281.02,-987.48 278.71,-993.53 285.85,-985.21"/>
<text text-anchor="start" x="283.5" y="-999.6" font-family="Arial" font-size="10.00">FOREIGN KEY (coin_id) REFERENCES nft_coins (coin_id) ON UPDATE NO ACTION ON DELETE CASCADE MATCH NONE</text>
</g>
</g>
</svg>
