<?xml version="1.0" encoding="UTF-8" standalone="no"?>
<!DOCTYPE svg PUBLIC "-//W3C//DTD SVG 1.1//EN"
 "http://www.w3.org/Graphics/SVG/1.1/DTD/svg11.dtd">
<!-- Generated by graphviz version 12.1.2 (20240928.0832)
 -->
<!-- Title: offers Pages: 1 -->
<svg width="1140pt" height="756pt"
 viewBox="0.00 0.00 1140.32 756.00" xmlns="http://www.w3.org/2000/svg" xmlns:xlink="http://www.w3.org/1999/xlink">
<g id="graph0" class="graph" transform="scale(1 1) rotate(0) translate(4 752)">
<title>offers</title>
<polygon fill="white" stroke="none" points="-4,4 -4,-752 1136.32,-752 1136.32,4 -4,4"/>
<!-- offers -->
<g id="node1" class="node">
<title>offers</title>
<polygon fill="#efefef" stroke="none" points="460.26,-261.8 460.26,-297.4 656.35,-297.4 656.35,-261.8 460.26,-261.8"/>
<polygon fill="none" stroke="black" points="460.26,-261.8 460.26,-297.4 656.35,-297.4 656.35,-261.8 460.26,-261.8"/>
<text text-anchor="start" x="502.69" y="-275.2" font-family="Arial Bold" font-size="18.00">offers</text>
<text text-anchor="start" x="544.67" y="-275.2" font-family="Arial" font-size="14.00">    </text>
<text text-anchor="start" x="575.78" y="-275.2" font-family="Arial" font-size="14.00" fill="#666666">[table]</text>
<polygon fill="none" stroke="black" points="460.26,-231 460.26,-261.8 656.35,-261.8 656.35,-231 460.26,-231"/>
<text text-anchor="start" x="467.26" y="-243.2" font-family="Arial" font-size="14.00">offer_id </text>
<text text-anchor="start" x="517.85" y="-243.2" font-family="Arial" font-size="14.00" fill="#666666">[BLOB]</text>
<polygon fill="none" stroke="black" points="460.26,-200.2 460.26,-231 656.35,-231 656.35,-200.2 460.26,-200.2"/>
<text text-anchor="start" x="467.26" y="-212.4" font-family="Arial" font-size="14.00">encoded_offer </text>
<text text-anchor="start" x="560.67" y="-212.4" font-family="Arial" font-size="14.00" fill="#666666">[TEXT]</text>
<polygon fill="none" stroke="black" points="460.26,-169.4 460.26,-200.2 656.35,-200.2 656.35,-169.4 460.26,-169.4"/>
<text text-anchor="start" x="467.26" y="-181.6" font-family="Arial" font-size="14.00">expiration_height </text>
<text text-anchor="start" x="577.79" y="-181.6" font-family="Arial" font-size="14.00" fill="#666666">[INTEGER]</text>
<polygon fill="none" stroke="black" points="460.26,-138.6 460.26,-169.4 656.35,-169.4 656.35,-138.6 460.26,-138.6"/>
<text text-anchor="start" x="467.26" y="-150.8" font-family="Arial" font-size="14.00">expiration_timestamp </text>
<text text-anchor="start" x="604.22" y="-150.8" font-family="Arial" font-size="14.00" fill="#666666">[BLOB]</text>
<polygon fill="none" stroke="black" points="460.26,-107.8 460.26,-138.6 656.35,-138.6 656.35,-107.8 460.26,-107.8"/>
<text text-anchor="start" x="467.26" y="-120" font-family="Arial" font-size="14.00">fee </text>
<text text-anchor="start" x="490.62" y="-120" font-family="Arial" font-size="14.00" fill="#666666">[BLOB]</text>
<polygon fill="none" stroke="black" points="460.26,-77 460.26,-107.8 656.35,-107.8 656.35,-77 460.26,-77"/>
<text text-anchor="start" x="467.26" y="-89.2" font-family="Arial" font-size="14.00">status </text>
<text text-anchor="start" x="508.51" y="-89.2" font-family="Arial" font-size="14.00" fill="#666666">[INTEGER]</text>
<polygon fill="none" stroke="black" points="460.26,-46.2 460.26,-77 656.35,-77 656.35,-46.2 460.26,-46.2"/>
<text text-anchor="start" x="467.26" y="-58.4" font-family="Arial" font-size="14.00">inserted_timestamp </text>
<text text-anchor="start" x="593.32" y="-58.4" font-family="Arial" font-size="14.00" fill="#666666">[BLOB]</text>
<polygon fill="none" stroke="black" stroke-width="3" points="458.76,-44.7 458.76,-298.9 657.85,-298.9 657.85,-44.7 458.76,-44.7"/>
</g>
<!-- offered_coins -->
<g id="node2" class="node">
<title>offered_coins</title>
<polygon fill="#efefef" stroke="none" points="43.2,-576.8 43.2,-612.4 225.41,-612.4 225.41,-576.8 43.2,-576.8"/>
<polygon fill="none" stroke="black" points="43.2,-576.8 43.2,-612.4 225.41,-612.4 225.41,-576.8 43.2,-576.8"/>
<text text-anchor="start" x="50.2" y="-590.2" font-family="Arial Bold" font-size="18.00">offered_coins</text>
<text text-anchor="start" x="149.16" y="-590.2" font-family="Arial" font-size="14.00">    </text>
<text text-anchor="start" x="180.27" y="-590.2" font-family="Arial" font-size="14.00" fill="#666666">[table]</text>
<polygon fill="none" stroke="black" points="43.2,-546 43.2,-576.8 225.41,-576.8 225.41,-546 43.2,-546"/>
<text text-anchor="start" x="50.2" y="-558.2" font-family="Arial" font-size="14.00">offer_id </text>
<text text-anchor="start" x="100.79" y="-558.2" font-family="Arial" font-size="14.00" fill="#666666">[BLOB]</text>
<polygon fill="none" stroke="black" points="43.2,-515.2 43.2,-546 225.41,-546 225.41,-515.2 43.2,-515.2"/>
<text text-anchor="start" x="50.2" y="-527.4" font-family="Arial" font-size="14.00">coin_id </text>
<text text-anchor="start" x="98.45" y="-527.4" font-family="Arial" font-size="14.00" fill="#666666">[BLOB]</text>
</g>
<!-- offered_coins&#45;&gt;offers -->
<g id="edge1" class="edge">
<title>offered_coins:offer_id&#45;&gt;offers:offer_id</title>
<path fill="none" stroke="black" d="M236.75,-560.73C303.32,-551.35 231.67,-445.47 277.31,-379.6 334.39,-297.22 359.04,-246.4 459.26,-246.4"/>
<polygon fill="black" stroke="black" points="236.72,-560.73 226.45,-556.89 231.4,-561.08 227.08,-561.36 227.08,-561.36 227.08,-561.36 231.4,-561.08 227.04,-565.87 236.72,-560.73"/>
</g>
<!-- offer_xch -->
<g id="node3" class="node">
<title>offer_xch</title>
<polygon fill="#efefef" stroke="none" points="329.49,-607.6 329.49,-643.2 485.12,-643.2 485.12,-607.6 329.49,-607.6"/>
<polygon fill="none" stroke="black" points="329.49,-607.6 329.49,-643.2 485.12,-643.2 485.12,-607.6 329.49,-607.6"/>
<text text-anchor="start" x="337.7" y="-621" font-family="Arial Bold" font-size="18.00">offer_xch</text>
<text text-anchor="start" x="407.66" y="-621" font-family="Arial" font-size="14.00">    </text>
<text text-anchor="start" x="438.78" y="-621" font-family="Arial" font-size="14.00" fill="#666666">[table]</text>
<polygon fill="none" stroke="black" points="329.49,-576.8 329.49,-607.6 485.12,-607.6 485.12,-576.8 329.49,-576.8"/>
<text text-anchor="start" x="336.49" y="-589" font-family="Arial" font-size="14.00">offer_id </text>
<text text-anchor="start" x="387.08" y="-589" font-family="Arial" font-size="14.00" fill="#666666">[BLOB]</text>
<polygon fill="none" stroke="black" points="329.49,-546 329.49,-576.8 485.12,-576.8 485.12,-546 329.49,-546"/>
<text text-anchor="start" x="336.49" y="-558.2" font-family="Arial" font-size="14.00">requested </text>
<text text-anchor="start" x="402.65" y="-558.2" font-family="Arial" font-size="14.00" fill="#666666">[BOOLEAN]</text>
<polygon fill="none" stroke="black" points="329.49,-515.2 329.49,-546 485.12,-546 485.12,-515.2 329.49,-515.2"/>
<text text-anchor="start" x="336.49" y="-527.4" font-family="Arial" font-size="14.00">amount </text>
<text text-anchor="start" x="387.08" y="-527.4" font-family="Arial" font-size="14.00" fill="#666666">[BLOB]</text>
<polygon fill="none" stroke="black" points="329.49,-484.4 329.49,-515.2 485.12,-515.2 485.12,-484.4 329.49,-484.4"/>
<text text-anchor="start" x="336.49" y="-496.6" font-family="Arial" font-size="14.00">royalty </text>
<text text-anchor="start" x="381.62" y="-496.6" font-family="Arial" font-size="14.00" fill="#666666">[BLOB]</text>
</g>
<!-- offer_xch&#45;&gt;offers -->
<g id="edge2" class="edge">
<title>offer_xch:offer_id&#45;&gt;offers:offer_id</title>
<path fill="none" stroke="black" d="M496.42,-591.75C589.18,-583.04 474.17,-450.09 460.26,-343.6 454.67,-300.76 416.06,-246.4 459.26,-246.4"/>
<polygon fill="black" stroke="black" points="496.44,-591.75 486.26,-587.69 491.11,-591.98 486.79,-592.17 486.79,-592.17 486.79,-592.17 491.11,-591.98 486.65,-596.68 496.44,-591.75"/>
</g>
<!-- offer_nfts -->
<g id="node4" class="node">
<title>offer_nfts</title>
<polygon fill="#efefef" stroke="none" points="589.08,-669.2 589.08,-704.8 829.53,-704.8 829.53,-669.2 589.08,-669.2"/>
<polygon fill="none" stroke="black" points="589.08,-669.2 589.08,-704.8 829.53,-704.8 829.53,-669.2 589.08,-669.2"/>
<text text-anchor="start" x="639.19" y="-682.6" font-family="Arial Bold" font-size="18.00">offer_nfts</text>
<text text-anchor="start" x="710.16" y="-682.6" font-family="Arial" font-size="14.00">    </text>
<text text-anchor="start" x="741.28" y="-682.6" font-family="Arial" font-size="14.00" fill="#666666">[table]</text>
<polygon fill="none" stroke="black" points="589.08,-638.4 589.08,-669.2 829.53,-669.2 829.53,-638.4 589.08,-638.4"/>
<text text-anchor="start" x="596.08" y="-650.6" font-family="Arial" font-size="14.00">offer_id </text>
<text text-anchor="start" x="646.67" y="-650.6" font-family="Arial" font-size="14.00" fill="#666666">[BLOB]</text>
<polygon fill="none" stroke="black" points="589.08,-607.6 589.08,-638.4 829.53,-638.4 829.53,-607.6 589.08,-607.6"/>
<text text-anchor="start" x="596.08" y="-619.8" font-family="Arial" font-size="14.00">requested </text>
<text text-anchor="start" x="662.24" y="-619.8" font-family="Arial" font-size="14.00" fill="#666666">[BOOLEAN]</text>
<polygon fill="none" stroke="black" points="589.08,-576.8 589.08,-607.6 829.53,-607.6 829.53,-576.8 589.08,-576.8"/>
<text text-anchor="start" x="596.08" y="-589" font-family="Arial" font-size="14.00">launcher_id </text>
<text text-anchor="start" x="672.36" y="-589" font-family="Arial" font-size="14.00" fill="#666666">[BLOB]</text>
<polygon fill="none" stroke="black" points="589.08,-546 589.08,-576.8 829.53,-576.8 829.53,-546 589.08,-546"/>
<text text-anchor="start" x="596.08" y="-558.2" font-family="Arial" font-size="14.00">royalty_puzzle_hash </text>
<text text-anchor="start" x="727.61" y="-558.2" font-family="Arial" font-size="14.00" fill="#666666">[BLOB]</text>
<polygon fill="none" stroke="black" points="589.08,-515.2 589.08,-546 829.53,-546 829.53,-515.2 589.08,-515.2"/>
<text text-anchor="start" x="596.08" y="-527.4" font-family="Arial" font-size="14.00">royalty_ten_thousandths </text>
<text text-anchor="start" x="752.52" y="-527.4" font-family="Arial" font-size="14.00" fill="#666666">[INTEGER]</text>
<polygon fill="none" stroke="black" points="589.08,-484.4 589.08,-515.2 829.53,-515.2 829.53,-484.4 589.08,-484.4"/>
<text text-anchor="start" x="596.08" y="-496.6" font-family="Arial" font-size="14.00">name </text>
<text text-anchor="start" x="634.99" y="-496.6" font-family="Arial" font-size="14.00" fill="#666666">[TEXT]</text>
<polygon fill="none" stroke="black" points="589.08,-453.6 589.08,-484.4 829.53,-484.4 829.53,-453.6 589.08,-453.6"/>
<text text-anchor="start" x="596.08" y="-465.8" font-family="Arial" font-size="14.00">thumbnail </text>
<text text-anchor="start" x="660.67" y="-465.8" font-family="Arial" font-size="14.00" fill="#666666">[BLOB]</text>
<polygon fill="none" stroke="black" points="589.08,-422.8 589.08,-453.6 829.53,-453.6 829.53,-422.8 589.08,-422.8"/>
<text text-anchor="start" x="596.08" y="-435" font-family="Arial" font-size="14.00">thumbnail_mime_type </text>
<text text-anchor="start" x="736.93" y="-435" font-family="Arial" font-size="14.00" fill="#666666">[TEXT]</text>
</g>
<!-- offer_nfts&#45;&gt;offers -->
<g id="edge3" class="edge">
<title>offer_nfts:offer_id&#45;&gt;offers:offer_id</title>
<path fill="none" stroke="black" d="M578,-651.45C530.85,-627.54 559.58,-428.65 589.08,-379.6 606.56,-350.54 638.77,-372.6 656.35,-343.6 678.74,-306.65 700.55,-246.4 657.35,-246.4"/>
<polygon fill="black" stroke="black" points="578.02,-651.45 586.73,-658.11 583.21,-652.66 587.43,-653.65 587.43,-653.65 587.43,-653.65 583.21,-652.66 588.78,-649.34 578.02,-651.45"/>
</g>
<!-- offer_cats -->
<g id="node5" class="node">
<title>offer_cats</title>
<polygon fill="#efefef" stroke="none" points="933.49,-669.2 933.49,-704.8 1089.12,-704.8 1089.12,-669.2 933.49,-669.2"/>
<polygon fill="none" stroke="black" points="933.49,-669.2 933.49,-704.8 1089.12,-704.8 1089.12,-669.2 933.49,-669.2"/>
<text text-anchor="start" x="940.7" y="-682.6" font-family="Arial Bold" font-size="18.00">offer_cats</text>
<text text-anchor="start" x="1012.66" y="-682.6" font-family="Arial" font-size="14.00">    </text>
<text text-anchor="start" x="1043.77" y="-682.6" font-family="Arial" font-size="14.00" fill="#666666">[table]</text>
<polygon fill="none" stroke="black" points="933.49,-638.4 933.49,-669.2 1089.12,-669.2 1089.12,-638.4 933.49,-638.4"/>
<text text-anchor="start" x="940.49" y="-650.6" font-family="Arial" font-size="14.00">offer_id </text>
<text text-anchor="start" x="991.08" y="-650.6" font-family="Arial" font-size="14.00" fill="#666666">[BLOB]</text>
<polygon fill="none" stroke="black" points="933.49,-607.6 933.49,-638.4 1089.12,-638.4 1089.12,-607.6 933.49,-607.6"/>
<text text-anchor="start" x="940.49" y="-619.8" font-family="Arial" font-size="14.00">requested </text>
<text text-anchor="start" x="1006.65" y="-619.8" font-family="Arial" font-size="14.00" fill="#666666">[BOOLEAN]</text>
<polygon fill="none" stroke="black" points="933.49,-576.8 933.49,-607.6 1089.12,-607.6 1089.12,-576.8 933.49,-576.8"/>
<text text-anchor="start" x="940.49" y="-589" font-family="Arial" font-size="14.00">asset_id </text>
<text text-anchor="start" x="996.53" y="-589" font-family="Arial" font-size="14.00" fill="#666666">[BLOB]</text>
<polygon fill="none" stroke="black" points="933.49,-546 933.49,-576.8 1089.12,-576.8 1089.12,-546 933.49,-546"/>
<text text-anchor="start" x="940.49" y="-558.2" font-family="Arial" font-size="14.00">amount </text>
<text text-anchor="start" x="991.08" y="-558.2" font-family="Arial" font-size="14.00" fill="#666666">[BLOB]</text>
<polygon fill="none" stroke="black" points="933.49,-515.2 933.49,-546 1089.12,-546 1089.12,-515.2 933.49,-515.2"/>
<text text-anchor="start" x="940.49" y="-527.4" font-family="Arial" font-size="14.00">royalty </text>
<text text-anchor="start" x="985.62" y="-527.4" font-family="Arial" font-size="14.00" fill="#666666">[BLOB]</text>
<polygon fill="none" stroke="black" points="933.49,-484.4 933.49,-515.2 1089.12,-515.2 1089.12,-484.4 933.49,-484.4"/>
<text text-anchor="start" x="940.49" y="-496.6" font-family="Arial" font-size="14.00">name </text>
<text text-anchor="start" x="979.4" y="-496.6" font-family="Arial" font-size="14.00" fill="#666666">[TEXT]</text>
<polygon fill="none" stroke="black" points="933.49,-453.6 933.49,-484.4 1089.12,-484.4 1089.12,-453.6 933.49,-453.6"/>
<text text-anchor="start" x="940.49" y="-465.8" font-family="Arial" font-size="14.00">ticker </text>
<text text-anchor="start" x="977.83" y="-465.8" font-family="Arial" font-size="14.00" fill="#666666">[TEXT]</text>
<polygon fill="none" stroke="black" points="933.49,-422.8 933.49,-453.6 1089.12,-453.6 1089.12,-422.8 933.49,-422.8"/>
<text text-anchor="start" x="940.49" y="-435" font-family="Arial" font-size="14.00">icon </text>
<text text-anchor="start" x="970.06" y="-435" font-family="Arial" font-size="14.00" fill="#666666">[TEXT]</text>
</g>
<!-- offer_cats&#45;&gt;offers -->
<g id="edge4" class="edge">
<title>offer_cats:offer_id&#45;&gt;offers:offer_id</title>
<path fill="none" stroke="black" d="M922.38,-651.43C875.81,-627.38 914.64,-427.35 881.31,-379.6 815.02,-284.64 773.16,-246.4 657.35,-246.4"/>
<polygon fill="black" stroke="black" points="922.43,-651.44 931.14,-658.11 927.62,-652.66 931.84,-653.65 931.84,-653.65 931.84,-653.65 927.62,-652.66 933.19,-649.34 922.43,-651.44"/>
</g>
</g>
</svg>
