<?xml version="1.0" encoding="UTF-8" standalone="no"?>
<!DOCTYPE svg PUBLIC "-//W3C//DTD SVG 1.1//EN"
 "http://www.w3.org/Graphics/SVG/1.1/DTD/svg11.dtd">
<!-- Generated by graphviz version 12.1.2 (20240928.0832)
 -->
<!-- Title: offers Pages: 1 -->
<svg width="1848pt" height="756pt"
 viewBox="0.00 0.00 1847.83 756.00" xmlns="http://www.w3.org/2000/svg" xmlns:xlink="http://www.w3.org/1999/xlink">
<g id="graph0" class="graph" transform="scale(1 1) rotate(0) translate(4 752)">
<title>offers</title>
<polygon fill="white" stroke="none" points="-4,4 -4,-752 1843.83,-752 1843.83,4 -4,4"/>
<!-- offers -->
<g id="node1" class="node">
<title>offers</title>
<polygon fill="#efefef" stroke="none" points="800.73,-261.8 800.73,-297.4 996.81,-297.4 996.81,-261.8 800.73,-261.8"/>
<polygon fill="none" stroke="black" points="800.73,-261.8 800.73,-297.4 996.81,-297.4 996.81,-261.8 800.73,-261.8"/>
<text text-anchor="start" x="843.15" y="-275.2" font-family="Arial Bold" font-size="18.00">offers</text>
<text text-anchor="start" x="885.13" y="-275.2" font-family="Arial" font-size="14.00">    </text>
<text text-anchor="start" x="916.25" y="-275.2" font-family="Arial" font-size="14.00" fill="#666666">[table]</text>
<polygon fill="none" stroke="black" points="800.73,-231 800.73,-261.8 996.81,-261.8 996.81,-231 800.73,-231"/>
<text text-anchor="start" x="807.73" y="-243.2" font-family="Arial" font-size="14.00">offer_id </text>
<text text-anchor="start" x="858.32" y="-243.2" font-family="Arial" font-size="14.00" fill="#666666">[BLOB]</text>
<polygon fill="none" stroke="black" points="800.73,-200.2 800.73,-231 996.81,-231 996.81,-200.2 800.73,-200.2"/>
<text text-anchor="start" x="807.73" y="-212.4" font-family="Arial" font-size="14.00">encoded_offer </text>
<text text-anchor="start" x="901.14" y="-212.4" font-family="Arial" font-size="14.00" fill="#666666">[TEXT]</text>
<polygon fill="none" stroke="black" points="800.73,-169.4 800.73,-200.2 996.81,-200.2 996.81,-169.4 800.73,-169.4"/>
<text text-anchor="start" x="807.73" y="-181.6" font-family="Arial" font-size="14.00">expiration_height </text>
<text text-anchor="start" x="918.25" y="-181.6" font-family="Arial" font-size="14.00" fill="#666666">[INTEGER]</text>
<polygon fill="none" stroke="black" points="800.73,-138.6 800.73,-169.4 996.81,-169.4 996.81,-138.6 800.73,-138.6"/>
<text text-anchor="start" x="807.73" y="-150.8" font-family="Arial" font-size="14.00">expiration_timestamp </text>
<text text-anchor="start" x="944.68" y="-150.8" font-family="Arial" font-size="14.00" fill="#666666">[BLOB]</text>
<polygon fill="none" stroke="black" points="800.73,-107.8 800.73,-138.6 996.81,-138.6 996.81,-107.8 800.73,-107.8"/>
<text text-anchor="start" x="807.73" y="-120" font-family="Arial" font-size="14.00">fee </text>
<text text-anchor="start" x="831.08" y="-120" font-family="Arial" font-size="14.00" fill="#666666">[BLOB]</text>
<polygon fill="none" stroke="black" points="800.73,-77 800.73,-107.8 996.81,-107.8 996.81,-77 800.73,-77"/>
<text text-anchor="start" x="807.73" y="-89.2" font-family="Arial" font-size="14.00">status </text>
<text text-anchor="start" x="848.97" y="-89.2" font-family="Arial" font-size="14.00" fill="#666666">[INTEGER]</text>
<polygon fill="none" stroke="black" points="800.73,-46.2 800.73,-77 996.81,-77 996.81,-46.2 800.73,-46.2"/>
<text text-anchor="start" x="807.73" y="-58.4" font-family="Arial" font-size="14.00">inserted_timestamp </text>
<text text-anchor="start" x="933.78" y="-58.4" font-family="Arial" font-size="14.00" fill="#666666">[BLOB]</text>
<polygon fill="none" stroke="black" stroke-width="3" points="799.23,-44.7 799.23,-298.9 998.31,-298.9 998.31,-44.7 799.23,-44.7"/>
</g>
<!-- offered_coins -->
<g id="node2" class="node">
<title>offered_coins</title>
<polygon fill="#efefef" stroke="none" points="383.67,-576.8 383.67,-612.4 565.88,-612.4 565.88,-576.8 383.67,-576.8"/>
<polygon fill="none" stroke="black" points="383.67,-576.8 383.67,-612.4 565.88,-612.4 565.88,-576.8 383.67,-576.8"/>
<text text-anchor="start" x="390.67" y="-590.2" font-family="Arial Bold" font-size="18.00">offered_coins</text>
<text text-anchor="start" x="489.62" y="-590.2" font-family="Arial" font-size="14.00">    </text>
<text text-anchor="start" x="520.74" y="-590.2" font-family="Arial" font-size="14.00" fill="#666666">[table]</text>
<polygon fill="none" stroke="black" points="383.67,-546 383.67,-576.8 565.88,-576.8 565.88,-546 383.67,-546"/>
<text text-anchor="start" x="390.67" y="-558.2" font-family="Arial" font-size="14.00">offer_id </text>
<text text-anchor="start" x="441.25" y="-558.2" font-family="Arial" font-size="14.00" fill="#666666">[BLOB]</text>
<polygon fill="none" stroke="black" points="383.67,-515.2 383.67,-546 565.88,-546 565.88,-515.2 383.67,-515.2"/>
<text text-anchor="start" x="390.67" y="-527.4" font-family="Arial" font-size="14.00">coin_id </text>
<text text-anchor="start" x="438.92" y="-527.4" font-family="Arial" font-size="14.00" fill="#666666">[BLOB]</text>
</g>
<!-- offered_coins&#45;&gt;offers -->
<g id="edge1" class="edge">
<title>offered_coins:offer_id&#45;&gt;offers:offer_id</title>
<path fill="none" stroke="black" d="M577.21,-560.73C643.78,-551.35 572.13,-445.47 617.77,-379.6 674.85,-297.22 699.51,-246.4 799.73,-246.4"/>
<polygon fill="black" stroke="black" points="577.19,-560.73 566.92,-556.89 571.87,-561.08 567.54,-561.36 567.54,-561.36 567.54,-561.36 571.87,-561.08 567.5,-565.87 577.19,-560.73"/>
<text text-anchor="start" x="7" y="-571.4" font-family="Arial" font-size="10.00">FOREIGN KEY (offer_id) REFERENCES offers (offer_id) ON UPDATE NO ACTION ON DELETE CASCADE MATCH NONE</text>
</g>
<!-- offer_xch -->
<g id="node3" class="node">
<title>offer_xch</title>
<polygon fill="#efefef" stroke="none" points="669.96,-607.6 669.96,-643.2 825.58,-643.2 825.58,-607.6 669.96,-607.6"/>
<polygon fill="none" stroke="black" points="669.96,-607.6 669.96,-643.2 825.58,-643.2 825.58,-607.6 669.96,-607.6"/>
<text text-anchor="start" x="678.16" y="-621" font-family="Arial Bold" font-size="18.00">offer_xch</text>
<text text-anchor="start" x="748.12" y="-621" font-family="Arial" font-size="14.00">    </text>
<text text-anchor="start" x="779.24" y="-621" font-family="Arial" font-size="14.00" fill="#666666">[table]</text>
<polygon fill="none" stroke="black" points="669.96,-576.8 669.96,-607.6 825.58,-607.6 825.58,-576.8 669.96,-576.8"/>
<text text-anchor="start" x="676.96" y="-589" font-family="Arial" font-size="14.00">offer_id </text>
<text text-anchor="start" x="727.54" y="-589" font-family="Arial" font-size="14.00" fill="#666666">[BLOB]</text>
<polygon fill="none" stroke="black" points="669.96,-546 669.96,-576.8 825.58,-576.8 825.58,-546 669.96,-546"/>
<text text-anchor="start" x="676.96" y="-558.2" font-family="Arial" font-size="14.00">requested </text>
<text text-anchor="start" x="743.12" y="-558.2" font-family="Arial" font-size="14.00" fill="#666666">[BOOLEAN]</text>
<polygon fill="none" stroke="black" points="669.96,-515.2 669.96,-546 825.58,-546 825.58,-515.2 669.96,-515.2"/>
<text text-anchor="start" x="676.96" y="-527.4" font-family="Arial" font-size="14.00">amount </text>
<text text-anchor="start" x="727.54" y="-527.4" font-family="Arial" font-size="14.00" fill="#666666">[BLOB]</text>
<polygon fill="none" stroke="black" points="669.96,-484.4 669.96,-515.2 825.58,-515.2 825.58,-484.4 669.96,-484.4"/>
<text text-anchor="start" x="676.96" y="-496.6" font-family="Arial" font-size="14.00">royalty </text>
<text text-anchor="start" x="722.08" y="-496.6" font-family="Arial" font-size="14.00" fill="#666666">[BLOB]</text>
</g>
<!-- offer_xch&#45;&gt;offers -->
<g id="edge2" class="edge">
<title>offer_xch:offer_id&#45;&gt;offers:offer_id</title>
<path fill="none" stroke="black" d="M836.89,-591.75C929.65,-583.04 814.63,-450.09 800.73,-343.6 795.14,-300.76 756.53,-246.4 799.73,-246.4"/>
<polygon fill="black" stroke="black" points="836.91,-591.75 826.72,-587.69 831.58,-591.98 827.25,-592.17 827.25,-592.17 827.25,-592.17 831.58,-591.98 827.12,-596.68 836.91,-591.75"/>
<text text-anchor="start" x="266.71" y="-602.2" font-family="Arial" font-size="10.00">FOREIGN KEY (offer_id) REFERENCES offers (offer_id) ON UPDATE NO ACTION ON DELETE CASCADE MATCH NONE</text>
</g>
<!-- offer_nfts -->
<g id="node4" class="node">
<title>offer_nfts</title>
<polygon fill="#efefef" stroke="none" points="929.55,-669.2 929.55,-704.8 1169.99,-704.8 1169.99,-669.2 929.55,-669.2"/>
<polygon fill="none" stroke="black" points="929.55,-669.2 929.55,-704.8 1169.99,-704.8 1169.99,-669.2 929.55,-669.2"/>
<text text-anchor="start" x="979.66" y="-682.6" font-family="Arial Bold" font-size="18.00">offer_nfts</text>
<text text-anchor="start" x="1050.63" y="-682.6" font-family="Arial" font-size="14.00">    </text>
<text text-anchor="start" x="1081.75" y="-682.6" font-family="Arial" font-size="14.00" fill="#666666">[table]</text>
<polygon fill="none" stroke="black" points="929.55,-638.4 929.55,-669.2 1169.99,-669.2 1169.99,-638.4 929.55,-638.4"/>
<text text-anchor="start" x="936.55" y="-650.6" font-family="Arial" font-size="14.00">offer_id </text>
<text text-anchor="start" x="987.13" y="-650.6" font-family="Arial" font-size="14.00" fill="#666666">[BLOB]</text>
<polygon fill="none" stroke="black" points="929.55,-607.6 929.55,-638.4 1169.99,-638.4 1169.99,-607.6 929.55,-607.6"/>
<text text-anchor="start" x="936.55" y="-619.8" font-family="Arial" font-size="14.00">requested </text>
<text text-anchor="start" x="1002.71" y="-619.8" font-family="Arial" font-size="14.00" fill="#666666">[BOOLEAN]</text>
<polygon fill="none" stroke="black" points="929.55,-576.8 929.55,-607.6 1169.99,-607.6 1169.99,-576.8 929.55,-576.8"/>
<text text-anchor="start" x="936.55" y="-589" font-family="Arial" font-size="14.00">launcher_id </text>
<text text-anchor="start" x="1012.82" y="-589" font-family="Arial" font-size="14.00" fill="#666666">[BLOB]</text>
<polygon fill="none" stroke="black" points="929.55,-546 929.55,-576.8 1169.99,-576.8 1169.99,-546 929.55,-546"/>
<text text-anchor="start" x="936.55" y="-558.2" font-family="Arial" font-size="14.00">royalty_puzzle_hash </text>
<text text-anchor="start" x="1068.07" y="-558.2" font-family="Arial" font-size="14.00" fill="#666666">[BLOB]</text>
<polygon fill="none" stroke="black" points="929.55,-515.2 929.55,-546 1169.99,-546 1169.99,-515.2 929.55,-515.2"/>
<text text-anchor="start" x="936.55" y="-527.4" font-family="Arial" font-size="14.00">royalty_ten_thousandths </text>
<text text-anchor="start" x="1092.99" y="-527.4" font-family="Arial" font-size="14.00" fill="#666666">[INTEGER]</text>
<polygon fill="none" stroke="black" points="929.55,-484.4 929.55,-515.2 1169.99,-515.2 1169.99,-484.4 929.55,-484.4"/>
<text text-anchor="start" x="936.55" y="-496.6" font-family="Arial" font-size="14.00">name </text>
<text text-anchor="start" x="975.46" y="-496.6" font-family="Arial" font-size="14.00" fill="#666666">[TEXT]</text>
<polygon fill="none" stroke="black" points="929.55,-453.6 929.55,-484.4 1169.99,-484.4 1169.99,-453.6 929.55,-453.6"/>
<text text-anchor="start" x="936.55" y="-465.8" font-family="Arial" font-size="14.00">thumbnail </text>
<text text-anchor="start" x="1001.14" y="-465.8" font-family="Arial" font-size="14.00" fill="#666666">[BLOB]</text>
<polygon fill="none" stroke="black" points="929.55,-422.8 929.55,-453.6 1169.99,-453.6 1169.99,-422.8 929.55,-422.8"/>
<text text-anchor="start" x="936.55" y="-435" font-family="Arial" font-size="14.00">thumbnail_mime_type </text>
<text text-anchor="start" x="1077.39" y="-435" font-family="Arial" font-size="14.00" fill="#666666">[TEXT]</text>
</g>
<!-- offer_nfts&#45;&gt;offers -->
<g id="edge3" class="edge">
<title>offer_nfts:offer_id&#45;&gt;offers:offer_id</title>
<path fill="none" stroke="black" d="M918.46,-651.45C871.31,-627.54 900.04,-428.65 929.55,-379.6 947.02,-350.54 979.24,-372.6 996.81,-343.6 1019.2,-306.65 1041.01,-246.4 997.81,-246.4"/>
<polygon fill="black" stroke="black" points="918.48,-651.45 927.2,-658.11 923.68,-652.66 927.9,-653.65 927.9,-653.65 927.9,-653.65 923.68,-652.66 929.24,-649.34 918.48,-651.45"/>
<text text-anchor="start" x="935.55" y="-663.8" font-family="Arial" font-size="10.00">FOREIGN KEY (offer_id) REFERENCES offers (offer_id) ON UPDATE NO ACTION ON DELETE CASCADE MATCH NONE</text>
</g>
<!-- offer_cats -->
<g id="node5" class="node">
<title>offer_cats</title>
<polygon fill="#efefef" stroke="none" points="1273.96,-669.2 1273.96,-704.8 1429.58,-704.8 1429.58,-669.2 1273.96,-669.2"/>
<polygon fill="none" stroke="black" points="1273.96,-669.2 1273.96,-704.8 1429.58,-704.8 1429.58,-669.2 1273.96,-669.2"/>
<text text-anchor="start" x="1281.17" y="-682.6" font-family="Arial Bold" font-size="18.00">offer_cats</text>
<text text-anchor="start" x="1353.12" y="-682.6" font-family="Arial" font-size="14.00">    </text>
<text text-anchor="start" x="1384.24" y="-682.6" font-family="Arial" font-size="14.00" fill="#666666">[table]</text>
<polygon fill="none" stroke="black" points="1273.96,-638.4 1273.96,-669.2 1429.58,-669.2 1429.58,-638.4 1273.96,-638.4"/>
<text text-anchor="start" x="1280.96" y="-650.6" font-family="Arial" font-size="14.00">offer_id </text>
<text text-anchor="start" x="1331.54" y="-650.6" font-family="Arial" font-size="14.00" fill="#666666">[BLOB]</text>
<polygon fill="none" stroke="black" points="1273.96,-607.6 1273.96,-638.4 1429.58,-638.4 1429.58,-607.6 1273.96,-607.6"/>
<text text-anchor="start" x="1280.96" y="-619.8" font-family="Arial" font-size="14.00">requested </text>
<text text-anchor="start" x="1347.12" y="-619.8" font-family="Arial" font-size="14.00" fill="#666666">[BOOLEAN]</text>
<polygon fill="none" stroke="black" points="1273.96,-576.8 1273.96,-607.6 1429.58,-607.6 1429.58,-576.8 1273.96,-576.8"/>
<text text-anchor="start" x="1280.96" y="-589" font-family="Arial" font-size="14.00">asset_id </text>
<text text-anchor="start" x="1336.99" y="-589" font-family="Arial" font-size="14.00" fill="#666666">[BLOB]</text>
<polygon fill="none" stroke="black" points="1273.96,-546 1273.96,-576.8 1429.58,-576.8 1429.58,-546 1273.96,-546"/>
<text text-anchor="start" x="1280.96" y="-558.2" font-family="Arial" font-size="14.00">amount </text>
<text text-anchor="start" x="1331.54" y="-558.2" font-family="Arial" font-size="14.00" fill="#666666">[BLOB]</text>
<polygon fill="none" stroke="black" points="1273.96,-515.2 1273.96,-546 1429.58,-546 1429.58,-515.2 1273.96,-515.2"/>
<text text-anchor="start" x="1280.96" y="-527.4" font-family="Arial" font-size="14.00">royalty </text>
<text text-anchor="start" x="1326.08" y="-527.4" font-family="Arial" font-size="14.00" fill="#666666">[BLOB]</text>
<polygon fill="none" stroke="black" points="1273.96,-484.4 1273.96,-515.2 1429.58,-515.2 1429.58,-484.4 1273.96,-484.4"/>
<text text-anchor="start" x="1280.96" y="-496.6" font-family="Arial" font-size="14.00">name </text>
<text text-anchor="start" x="1319.87" y="-496.6" font-family="Arial" font-size="14.00" fill="#666666">[TEXT]</text>
<polygon fill="none" stroke="black" points="1273.96,-453.6 1273.96,-484.4 1429.58,-484.4 1429.58,-453.6 1273.96,-453.6"/>
<text text-anchor="start" x="1280.96" y="-465.8" font-family="Arial" font-size="14.00">ticker </text>
<text text-anchor="start" x="1318.29" y="-465.8" font-family="Arial" font-size="14.00" fill="#666666">[TEXT]</text>
<polygon fill="none" stroke="black" points="1273.96,-422.8 1273.96,-453.6 1429.58,-453.6 1429.58,-422.8 1273.96,-422.8"/>
<text text-anchor="start" x="1280.96" y="-435" font-family="Arial" font-size="14.00">icon </text>
<text text-anchor="start" x="1310.53" y="-435" font-family="Arial" font-size="14.00" fill="#666666">[TEXT]</text>
</g>
<!-- offer_cats&#45;&gt;offers -->
<g id="edge4" class="edge">
<title>offer_cats:offer_id&#45;&gt;offers:offer_id</title>
<path fill="none" stroke="black" d="M1262.85,-651.43C1216.28,-627.38 1255.1,-427.35 1221.77,-379.6 1155.48,-284.64 1113.62,-246.4 997.81,-246.4"/>
<polygon fill="black" stroke="black" points="1262.89,-651.44 1271.6,-658.11 1268.09,-652.66 1272.31,-653.65 1272.31,-653.65 1272.31,-653.65 1268.09,-652.66 1273.66,-649.34 1262.89,-651.44"/>
<text text-anchor="start" x="1279.96" y="-637.8" font-family="Arial" font-size="10.00">FOREIGN KEY (offer_id) REFERENCES offers (offer_id) ON UPDATE NO ACTION ON DELETE CASCADE MATCH NONE</text>
</g>
</g>
</svg>
