<?xml version="1.0" encoding="UTF-8" standalone="no"?>
<!DOCTYPE svg PUBLIC "-//W3C//DTD SVG 1.1//EN"
 "http://www.w3.org/Graphics/SVG/1.1/DTD/svg11.dtd">
<!-- Generated by graphviz version 12.1.2 (20240928.0832)
 -->
<!-- Title: offer_xch Pages: 1 -->
<svg width="290pt" height="633pt"
 viewBox="0.00 0.00 290.48 632.80" xmlns="http://www.w3.org/2000/svg" xmlns:xlink="http://www.w3.org/1999/xlink">
<g id="graph0" class="graph" transform="scale(1 1) rotate(0) translate(4 628.8)">
<title>offer_xch</title>
<polygon fill="white" stroke="none" points="-4,4 -4,-628.8 286.48,-628.8 286.48,4 -4,4"/>
<!-- offer_xch -->
<g id="node1" class="node">
<title>offer_xch</title>
<polygon fill="#efefef" stroke="none" points="63.43,-543 63.43,-578.6 219.05,-578.6 219.05,-543 63.43,-543"/>
<polygon fill="none" stroke="black" points="63.43,-543 63.43,-578.6 219.05,-578.6 219.05,-543 63.43,-543"/>
<text text-anchor="start" x="71.63" y="-556.4" font-family="Arial Bold" font-size="18.00">offer_xch</text>
<text text-anchor="start" x="141.59" y="-556.4" font-family="Arial" font-size="14.00">    </text>
<text text-anchor="start" x="172.71" y="-556.4" font-family="Arial" font-size="14.00" fill="#666666">[table]</text>
<polygon fill="none" stroke="black" points="63.43,-512.2 63.43,-543 219.05,-543 219.05,-512.2 63.43,-512.2"/>
<text text-anchor="start" x="70.43" y="-524.4" font-family="Arial" font-size="14.00">offer_id </text>
<text text-anchor="start" x="121.01" y="-524.4" font-family="Arial" font-size="14.00" fill="#666666">[BLOB]</text>
<polygon fill="none" stroke="black" points="63.43,-481.4 63.43,-512.2 219.05,-512.2 219.05,-481.4 63.43,-481.4"/>
<text text-anchor="start" x="70.43" y="-493.6" font-family="Arial" font-size="14.00">requested </text>
<text text-anchor="start" x="136.59" y="-493.6" font-family="Arial" font-size="14.00" fill="#666666">[BOOLEAN]</text>
<polygon fill="none" stroke="black" points="63.43,-450.6 63.43,-481.4 219.05,-481.4 219.05,-450.6 63.43,-450.6"/>
<text text-anchor="start" x="70.43" y="-462.8" font-family="Arial" font-size="14.00">amount </text>
<text text-anchor="start" x="121.01" y="-462.8" font-family="Arial" font-size="14.00" fill="#666666">[BLOB]</text>
<polygon fill="none" stroke="black" points="63.43,-419.8 63.43,-450.6 219.05,-450.6 219.05,-419.8 63.43,-419.8"/>
<text text-anchor="start" x="70.43" y="-432" font-family="Arial" font-size="14.00">royalty </text>
<text text-anchor="start" x="115.55" y="-432" font-family="Arial" font-size="14.00" fill="#666666">[BLOB]</text>
<polygon fill="none" stroke="black" stroke-width="3" points="61.93,-418.3 61.93,-580.1 220.55,-580.1 220.55,-418.3 61.93,-418.3"/>
</g>
<!-- offers -->
<g id="node2" class="node">
<title>offers</title>
<polygon fill="#efefef" stroke="none" points="43.2,-258.8 43.2,-294.4 239.28,-294.4 239.28,-258.8 43.2,-258.8"/>
<polygon fill="none" stroke="black" points="43.2,-258.8 43.2,-294.4 239.28,-294.4 239.28,-258.8 43.2,-258.8"/>
<text text-anchor="start" x="85.63" y="-272.2" font-family="Arial Bold" font-size="18.00">offers</text>
<text text-anchor="start" x="127.6" y="-272.2" font-family="Arial" font-size="14.00">    </text>
<text text-anchor="start" x="158.72" y="-272.2" font-family="Arial" font-size="14.00" fill="#666666">[table]</text>
<polygon fill="none" stroke="black" points="43.2,-228 43.2,-258.8 239.28,-258.8 239.28,-228 43.2,-228"/>
<text text-anchor="start" x="50.2" y="-240.2" font-family="Arial" font-size="14.00">offer_id </text>
<text text-anchor="start" x="100.79" y="-240.2" font-family="Arial" font-size="14.00" fill="#666666">[BLOB]</text>
<polygon fill="none" stroke="black" points="43.2,-197.2 43.2,-228 239.28,-228 239.28,-197.2 43.2,-197.2"/>
<text text-anchor="start" x="50.2" y="-209.4" font-family="Arial" font-size="14.00">encoded_offer </text>
<text text-anchor="start" x="143.61" y="-209.4" font-family="Arial" font-size="14.00" fill="#666666">[TEXT]</text>
<polygon fill="none" stroke="black" points="43.2,-166.4 43.2,-197.2 239.28,-197.2 239.28,-166.4 43.2,-166.4"/>
<text text-anchor="start" x="50.2" y="-178.6" font-family="Arial" font-size="14.00">expiration_height </text>
<text text-anchor="start" x="160.72" y="-178.6" font-family="Arial" font-size="14.00" fill="#666666">[INTEGER]</text>
<polygon fill="none" stroke="black" points="43.2,-135.6 43.2,-166.4 239.28,-166.4 239.28,-135.6 43.2,-135.6"/>
<text text-anchor="start" x="50.2" y="-147.8" font-family="Arial" font-size="14.00">expiration_timestamp </text>
<text text-anchor="start" x="187.15" y="-147.8" font-family="Arial" font-size="14.00" fill="#666666">[BLOB]</text>
<polygon fill="none" stroke="black" points="43.2,-104.8 43.2,-135.6 239.28,-135.6 239.28,-104.8 43.2,-104.8"/>
<text text-anchor="start" x="50.2" y="-117" font-family="Arial" font-size="14.00">fee </text>
<text text-anchor="start" x="73.55" y="-117" font-family="Arial" font-size="14.00" fill="#666666">[BLOB]</text>
<polygon fill="none" stroke="black" points="43.2,-74 43.2,-104.8 239.28,-104.8 239.28,-74 43.2,-74"/>
<text text-anchor="start" x="50.2" y="-86.2" font-family="Arial" font-size="14.00">status </text>
<text text-anchor="start" x="91.44" y="-86.2" font-family="Arial" font-size="14.00" fill="#666666">[INTEGER]</text>
<polygon fill="none" stroke="black" points="43.2,-43.2 43.2,-74 239.28,-74 239.28,-43.2 43.2,-43.2"/>
<text text-anchor="start" x="50.2" y="-55.4" font-family="Arial" font-size="14.00">inserted_timestamp </text>
<text text-anchor="start" x="176.25" y="-55.4" font-family="Arial" font-size="14.00" fill="#666666">[BLOB]</text>
</g>
<!-- offer_xch&#45;&gt;offers -->
<g id="edge1" class="edge">
<title>offer_xch:offer_id&#45;&gt;offers:offer_id</title>
<path fill="none" stroke="black" d="M230.05,-525.14C285.33,-497.37 300.13,-243.4 240.28,-243.4"/>
<polygon fill="black" stroke="black" points="230.09,-525.13 219.31,-523.15 224.91,-526.41 220.7,-527.44 220.7,-527.44 220.7,-527.44 224.91,-526.41 221.45,-531.89 230.09,-525.13"/>
</g>
</g>
</svg>
