<?xml version="1.0" encoding="UTF-8" standalone="no"?>
<!DOCTYPE svg PUBLIC "-//W3C//DTD SVG 1.1//EN"
 "http://www.w3.org/Graphics/SVG/1.1/DTD/svg11.dtd">
<!-- Generated by graphviz version 12.1.2 (20240928.0832)
 -->
<!-- Title: offer_cats Pages: 1 -->
<svg width="290pt" height="756pt"
 viewBox="0.00 0.00 290.48 756.00" xmlns="http://www.w3.org/2000/svg" xmlns:xlink="http://www.w3.org/1999/xlink">
<g id="graph0" class="graph" transform="scale(1 1) rotate(0) translate(4 752)">
<title>offer_cats</title>
<polygon fill="white" stroke="none" points="-4,4 -4,-752 286.48,-752 286.48,4 -4,4"/>
<!-- offer_cats -->
<g id="node1" class="node">
<title>offer_cats</title>
<polygon fill="#efefef" stroke="none" points="63.43,-666.2 63.43,-701.8 219.05,-701.8 219.05,-666.2 63.43,-666.2"/>
<polygon fill="none" stroke="black" points="63.43,-666.2 63.43,-701.8 219.05,-701.8 219.05,-666.2 63.43,-666.2"/>
<text text-anchor="start" x="70.64" y="-679.6" font-family="Arial Bold" font-size="18.00">offer_cats</text>
<text text-anchor="start" x="142.59" y="-679.6" font-family="Arial" font-size="14.00">    </text>
<text text-anchor="start" x="173.71" y="-679.6" font-family="Arial" font-size="14.00" fill="#666666">[table]</text>
<polygon fill="none" stroke="black" points="63.43,-635.4 63.43,-666.2 219.05,-666.2 219.05,-635.4 63.43,-635.4"/>
<text text-anchor="start" x="70.43" y="-647.6" font-family="Arial" font-size="14.00">offer_id </text>
<text text-anchor="start" x="121.01" y="-647.6" font-family="Arial" font-size="14.00" fill="#666666">[BLOB]</text>
<polygon fill="none" stroke="black" points="63.43,-604.6 63.43,-635.4 219.05,-635.4 219.05,-604.6 63.43,-604.6"/>
<text text-anchor="start" x="70.43" y="-616.8" font-family="Arial" font-size="14.00">requested </text>
<text text-anchor="start" x="136.59" y="-616.8" font-family="Arial" font-size="14.00" fill="#666666">[BOOLEAN]</text>
<polygon fill="none" stroke="black" points="63.43,-573.8 63.43,-604.6 219.05,-604.6 219.05,-573.8 63.43,-573.8"/>
<text text-anchor="start" x="70.43" y="-586" font-family="Arial" font-size="14.00">asset_id </text>
<text text-anchor="start" x="126.46" y="-586" font-family="Arial" font-size="14.00" fill="#666666">[BLOB]</text>
<polygon fill="none" stroke="black" points="63.43,-543 63.43,-573.8 219.05,-573.8 219.05,-543 63.43,-543"/>
<text text-anchor="start" x="70.43" y="-555.2" font-family="Arial" font-size="14.00">amount </text>
<text text-anchor="start" x="121.01" y="-555.2" font-family="Arial" font-size="14.00" fill="#666666">[BLOB]</text>
<polygon fill="none" stroke="black" points="63.43,-512.2 63.43,-543 219.05,-543 219.05,-512.2 63.43,-512.2"/>
<text text-anchor="start" x="70.43" y="-524.4" font-family="Arial" font-size="14.00">royalty </text>
<text text-anchor="start" x="115.55" y="-524.4" font-family="Arial" font-size="14.00" fill="#666666">[BLOB]</text>
<polygon fill="none" stroke="black" points="63.43,-481.4 63.43,-512.2 219.05,-512.2 219.05,-481.4 63.43,-481.4"/>
<text text-anchor="start" x="70.43" y="-493.6" font-family="Arial" font-size="14.00">name </text>
<text text-anchor="start" x="109.34" y="-493.6" font-family="Arial" font-size="14.00" fill="#666666">[TEXT]</text>
<polygon fill="none" stroke="black" points="63.43,-450.6 63.43,-481.4 219.05,-481.4 219.05,-450.6 63.43,-450.6"/>
<text text-anchor="start" x="70.43" y="-462.8" font-family="Arial" font-size="14.00">ticker </text>
<text text-anchor="start" x="107.77" y="-462.8" font-family="Arial" font-size="14.00" fill="#666666">[TEXT]</text>
<polygon fill="none" stroke="black" points="63.43,-419.8 63.43,-450.6 219.05,-450.6 219.05,-419.8 63.43,-419.8"/>
<text text-anchor="start" x="70.43" y="-432" font-family="Arial" font-size="14.00">icon </text>
<text text-anchor="start" x="100" y="-432" font-family="Arial" font-size="14.00" fill="#666666">[TEXT]</text>
<polygon fill="none" stroke="black" stroke-width="3" points="61.93,-418.3 61.93,-703.3 220.55,-703.3 220.55,-418.3 61.93,-418.3"/>
</g>
<!-- offers -->
<g id="node2" class="node">
<title>offers</title>
<polygon fill="#efefef" stroke="none" points="43.2,-258.8 43.2,-294.4 239.28,-294.4 239.28,-258.8 43.2,-258.8"/>
<polygon fill="none" stroke="black" points="43.2,-258.8 43.2,-294.4 239.28,-294.4 239.28,-258.8 43.2,-258.8"/>
<text text-anchor="start" x="85.63" y="-272.2" font-family="Arial Bold" font-size="18.00">offers</text>
<text text-anchor="start" x="127.6" y="-272.2" font-family="Arial" font-size="14.00">    </text>
<text text-anchor="start" x="158.72" y="-272.2" font-family="Arial" font-size="14.00" fill="#666666">[table]</text>
<polygon fill="none" stroke="black" points="43.2,-228 43.2,-258.8 239.28,-258.8 239.28,-228 43.2,-228"/>
<text text-anchor="start" x="50.2" y="-240.2" font-family="Arial" font-size="14.00">offer_id </text>
<text text-anchor="start" x="100.79" y="-240.2" font-family="Arial" font-size="14.00" fill="#666666">[BLOB]</text>
<polygon fill="none" stroke="black" points="43.2,-197.2 43.2,-228 239.28,-228 239.28,-197.2 43.2,-197.2"/>
<text text-anchor="start" x="50.2" y="-209.4" font-family="Arial" font-size="14.00">encoded_offer </text>
<text text-anchor="start" x="143.61" y="-209.4" font-family="Arial" font-size="14.00" fill="#666666">[TEXT]</text>
<polygon fill="none" stroke="black" points="43.2,-166.4 43.2,-197.2 239.28,-197.2 239.28,-166.4 43.2,-166.4"/>
<text text-anchor="start" x="50.2" y="-178.6" font-family="Arial" font-size="14.00">expiration_height </text>
<text text-anchor="start" x="160.72" y="-178.6" font-family="Arial" font-size="14.00" fill="#666666">[INTEGER]</text>
<polygon fill="none" stroke="black" points="43.2,-135.6 43.2,-166.4 239.28,-166.4 239.28,-135.6 43.2,-135.6"/>
<text text-anchor="start" x="50.2" y="-147.8" font-family="Arial" font-size="14.00">expiration_timestamp </text>
<text text-anchor="start" x="187.15" y="-147.8" font-family="Arial" font-size="14.00" fill="#666666">[BLOB]</text>
<polygon fill="none" stroke="black" points="43.2,-104.8 43.2,-135.6 239.28,-135.6 239.28,-104.8 43.2,-104.8"/>
<text text-anchor="start" x="50.2" y="-117" font-family="Arial" font-size="14.00">fee </text>
<text text-anchor="start" x="73.55" y="-117" font-family="Arial" font-size="14.00" fill="#666666">[BLOB]</text>
<polygon fill="none" stroke="black" points="43.2,-74 43.2,-104.8 239.28,-104.8 239.28,-74 43.2,-74"/>
<text text-anchor="start" x="50.2" y="-86.2" font-family="Arial" font-size="14.00">status </text>
<text text-anchor="start" x="91.44" y="-86.2" font-family="Arial" font-size="14.00" fill="#666666">[INTEGER]</text>
<polygon fill="none" stroke="black" points="43.2,-43.2 43.2,-74 239.28,-74 239.28,-43.2 43.2,-43.2"/>
<text text-anchor="start" x="50.2" y="-55.4" font-family="Arial" font-size="14.00">inserted_timestamp </text>
<text text-anchor="start" x="176.25" y="-55.4" font-family="Arial" font-size="14.00" fill="#666666">[BLOB]</text>
</g>
<!-- offer_cats&#45;&gt;offers -->
<g id="edge1" class="edge">
<title>offer_cats:offer_id&#45;&gt;offers:offer_id</title>
<path fill="none" stroke="black" d="M228.74,-645.65C267.77,-598.49 282.59,-243.4 240.28,-243.4"/>
<polygon fill="black" stroke="black" points="228.94,-645.53 218.05,-646.76 224.36,-648.25 220.63,-650.46 220.63,-650.46 220.63,-650.46 224.36,-648.25 222.64,-654.5 228.94,-645.53"/>
</g>
</g>
</svg>
