<?xml version="1.0" encoding="UTF-8" standalone="no"?>
<!DOCTYPE svg PUBLIC "-//W3C//DTD SVG 1.1//EN"
 "http://www.w3.org/Graphics/SVG/1.1/DTD/svg11.dtd">
<!-- Generated by graphviz version 12.1.2 (20240928.0832)
 -->
<!-- Title: offered_coins Pages: 1 -->
<svg width="290pt" height="571pt"
 viewBox="0.00 0.00 290.48 571.20" xmlns="http://www.w3.org/2000/svg" xmlns:xlink="http://www.w3.org/1999/xlink">
<g id="graph0" class="graph" transform="scale(1 1) rotate(0) translate(4 567.2)">
<title>offered_coins</title>
<polygon fill="white" stroke="none" points="-4,4 -4,-567.2 286.48,-567.2 286.48,4 -4,4"/>
<!-- offered_coins -->
<g id="node1" class="node">
<title>offered_coins</title>
<polygon fill="#efefef" stroke="none" points="50.14,-481.4 50.14,-517 232.35,-517 232.35,-481.4 50.14,-481.4"/>
<polygon fill="none" stroke="black" points="50.14,-481.4 50.14,-517 232.35,-517 232.35,-481.4 50.14,-481.4"/>
<text text-anchor="start" x="57.14" y="-494.8" font-family="Arial Bold" font-size="18.00">offered_coins</text>
<text text-anchor="start" x="156.09" y="-494.8" font-family="Arial" font-size="14.00">    </text>
<text text-anchor="start" x="187.21" y="-494.8" font-family="Arial" font-size="14.00" fill="#666666">[table]</text>
<polygon fill="none" stroke="black" points="50.14,-450.6 50.14,-481.4 232.35,-481.4 232.35,-450.6 50.14,-450.6"/>
<text text-anchor="start" x="57.14" y="-462.8" font-family="Arial" font-size="14.00">offer_id </text>
<text text-anchor="start" x="107.72" y="-462.8" font-family="Arial" font-size="14.00" fill="#666666">[BLOB]</text>
<polygon fill="none" stroke="black" points="50.14,-419.8 50.14,-450.6 232.35,-450.6 232.35,-419.8 50.14,-419.8"/>
<text text-anchor="start" x="57.14" y="-432" font-family="Arial" font-size="14.00">coin_id </text>
<text text-anchor="start" x="105.39" y="-432" font-family="Arial" font-size="14.00" fill="#666666">[BLOB]</text>
<polygon fill="none" stroke="black" stroke-width="3" points="48.64,-418.3 48.64,-518.5 233.85,-518.5 233.85,-418.3 48.64,-418.3"/>
</g>
<!-- offers -->
<g id="node2" class="node">
<title>offers</title>
<polygon fill="#efefef" stroke="none" points="43.2,-258.8 43.2,-294.4 239.28,-294.4 239.28,-258.8 43.2,-258.8"/>
<polygon fill="none" stroke="black" points="43.2,-258.8 43.2,-294.4 239.28,-294.4 239.28,-258.8 43.2,-258.8"/>
<text text-anchor="start" x="85.63" y="-272.2" font-family="Arial Bold" font-size="18.00">offers</text>
<text text-anchor="start" x="127.6" y="-272.2" font-family="Arial" font-size="14.00">    </text>
<text text-anchor="start" x="158.72" y="-272.2" font-family="Arial" font-size="14.00" fill="#666666">[table]</text>
<polygon fill="none" stroke="black" points="43.2,-228 43.2,-258.8 239.28,-258.8 239.28,-228 43.2,-228"/>
<text text-anchor="start" x="50.2" y="-240.2" font-family="Arial" font-size="14.00">offer_id </text>
<text text-anchor="start" x="100.79" y="-240.2" font-family="Arial" font-size="14.00" fill="#666666">[BLOB]</text>
<polygon fill="none" stroke="black" points="43.2,-197.2 43.2,-228 239.28,-228 239.28,-197.2 43.2,-197.2"/>
<text text-anchor="start" x="50.2" y="-209.4" font-family="Arial" font-size="14.00">encoded_offer </text>
<text text-anchor="start" x="143.61" y="-209.4" font-family="Arial" font-size="14.00" fill="#666666">[TEXT]</text>
<polygon fill="none" stroke="black" points="43.2,-166.4 43.2,-197.2 239.28,-197.2 239.28,-166.4 43.2,-166.4"/>
<text text-anchor="start" x="50.2" y="-178.6" font-family="Arial" font-size="14.00">expiration_height </text>
<text text-anchor="start" x="160.72" y="-178.6" font-family="Arial" font-size="14.00" fill="#666666">[INTEGER]</text>
<polygon fill="none" stroke="black" points="43.2,-135.6 43.2,-166.4 239.28,-166.4 239.28,-135.6 43.2,-135.6"/>
<text text-anchor="start" x="50.2" y="-147.8" font-family="Arial" font-size="14.00">expiration_timestamp </text>
<text text-anchor="start" x="187.15" y="-147.8" font-family="Arial" font-size="14.00" fill="#666666">[BLOB]</text>
<polygon fill="none" stroke="black" points="43.2,-104.8 43.2,-135.6 239.28,-135.6 239.28,-104.8 43.2,-104.8"/>
<text text-anchor="start" x="50.2" y="-117" font-family="Arial" font-size="14.00">fee </text>
<text text-anchor="start" x="73.55" y="-117" font-family="Arial" font-size="14.00" fill="#666666">[BLOB]</text>
<polygon fill="none" stroke="black" points="43.2,-74 43.2,-104.8 239.28,-104.8 239.28,-74 43.2,-74"/>
<text text-anchor="start" x="50.2" y="-86.2" font-family="Arial" font-size="14.00">status </text>
<text text-anchor="start" x="91.44" y="-86.2" font-family="Arial" font-size="14.00" fill="#666666">[INTEGER]</text>
<polygon fill="none" stroke="black" points="43.2,-43.2 43.2,-74 239.28,-74 239.28,-43.2 43.2,-43.2"/>
<text text-anchor="start" x="50.2" y="-55.4" font-family="Arial" font-size="14.00">inserted_timestamp </text>
<text text-anchor="start" x="176.25" y="-55.4" font-family="Arial" font-size="14.00" fill="#666666">[BLOB]</text>
</g>
<!-- offered_coins&#45;&gt;offers -->
<g id="edge1" class="edge">
<title>offered_coins:offer_id&#45;&gt;offers:offer_id</title>
<path fill="none" stroke="black" d="M243.15,-462.85C283.53,-435.8 286.29,-243.4 240.28,-243.4"/>
<polygon fill="black" stroke="black" points="243.19,-462.84 232.29,-461.61 238.11,-464.47 233.98,-465.8 233.98,-465.8 233.98,-465.8 238.11,-464.47 235.04,-470.18 243.19,-462.84"/>
</g>
</g>
</svg>
