<?xml version="1.0" encoding="UTF-8" standalone="no"?>
<!DOCTYPE svg PUBLIC "-//W3C//DTD SVG 1.1//EN"
 "http://www.w3.org/Graphics/SVG/1.1/DTD/svg11.dtd">
<!-- Generated by graphviz version 12.1.2 (20240928.0832)
 -->
<!-- Title: offer_nfts Pages: 1 -->
<svg width="863pt" height="756pt"
 viewBox="0.00 0.00 862.52 756.00" xmlns="http://www.w3.org/2000/svg" xmlns:xlink="http://www.w3.org/1999/xlink">
<g id="graph0" class="graph" transform="scale(1 1) rotate(0) translate(4 752)">
<title>offer_nfts</title>
<polygon fill="white" stroke="none" points="-4,4 -4,-752 858.52,-752 858.52,4 -4,4"/>
<!-- offer_nfts -->
<g id="node1" class="node">
<title>offer_nfts</title>
<polygon fill="#efefef" stroke="none" points="46.2,-666.2 46.2,-701.8 286.65,-701.8 286.65,-666.2 46.2,-666.2"/>
<polygon fill="none" stroke="black" points="46.2,-666.2 46.2,-701.8 286.65,-701.8 286.65,-666.2 46.2,-666.2"/>
<text text-anchor="start" x="96.31" y="-679.6" font-family="Arial Bold" font-size="18.00">offer_nfts</text>
<text text-anchor="start" x="167.28" y="-679.6" font-family="Arial" font-size="14.00">    </text>
<text text-anchor="start" x="198.4" y="-679.6" font-family="Arial" font-size="14.00" fill="#666666">[table]</text>
<polygon fill="none" stroke="black" points="46.2,-635.4 46.2,-666.2 286.65,-666.2 286.65,-635.4 46.2,-635.4"/>
<text text-anchor="start" x="53.2" y="-647.6" font-family="Arial" font-size="14.00">offer_id </text>
<text text-anchor="start" x="103.79" y="-647.6" font-family="Arial" font-size="14.00" fill="#666666">[BLOB]</text>
<polygon fill="none" stroke="black" points="46.2,-604.6 46.2,-635.4 286.65,-635.4 286.65,-604.6 46.2,-604.6"/>
<text text-anchor="start" x="53.2" y="-616.8" font-family="Arial" font-size="14.00">requested </text>
<text text-anchor="start" x="119.36" y="-616.8" font-family="Arial" font-size="14.00" fill="#666666">[BOOLEAN]</text>
<polygon fill="none" stroke="black" points="46.2,-573.8 46.2,-604.6 286.65,-604.6 286.65,-573.8 46.2,-573.8"/>
<text text-anchor="start" x="53.2" y="-586" font-family="Arial" font-size="14.00">launcher_id </text>
<text text-anchor="start" x="129.48" y="-586" font-family="Arial" font-size="14.00" fill="#666666">[BLOB]</text>
<polygon fill="none" stroke="black" points="46.2,-543 46.2,-573.8 286.65,-573.8 286.65,-543 46.2,-543"/>
<text text-anchor="start" x="53.2" y="-555.2" font-family="Arial" font-size="14.00">royalty_puzzle_hash </text>
<text text-anchor="start" x="184.72" y="-555.2" font-family="Arial" font-size="14.00" fill="#666666">[BLOB]</text>
<polygon fill="none" stroke="black" points="46.2,-512.2 46.2,-543 286.65,-543 286.65,-512.2 46.2,-512.2"/>
<text text-anchor="start" x="53.2" y="-524.4" font-family="Arial" font-size="14.00">royalty_ten_thousandths </text>
<text text-anchor="start" x="209.64" y="-524.4" font-family="Arial" font-size="14.00" fill="#666666">[INTEGER]</text>
<polygon fill="none" stroke="black" points="46.2,-481.4 46.2,-512.2 286.65,-512.2 286.65,-481.4 46.2,-481.4"/>
<text text-anchor="start" x="53.2" y="-493.6" font-family="Arial" font-size="14.00">name </text>
<text text-anchor="start" x="92.11" y="-493.6" font-family="Arial" font-size="14.00" fill="#666666">[TEXT]</text>
<polygon fill="none" stroke="black" points="46.2,-450.6 46.2,-481.4 286.65,-481.4 286.65,-450.6 46.2,-450.6"/>
<text text-anchor="start" x="53.2" y="-462.8" font-family="Arial" font-size="14.00">thumbnail </text>
<text text-anchor="start" x="117.79" y="-462.8" font-family="Arial" font-size="14.00" fill="#666666">[BLOB]</text>
<polygon fill="none" stroke="black" points="46.2,-419.8 46.2,-450.6 286.65,-450.6 286.65,-419.8 46.2,-419.8"/>
<text text-anchor="start" x="53.2" y="-432" font-family="Arial" font-size="14.00">thumbnail_mime_type </text>
<text text-anchor="start" x="194.05" y="-432" font-family="Arial" font-size="14.00" fill="#666666">[TEXT]</text>
<polygon fill="none" stroke="black" stroke-width="3" points="44.7,-418.3 44.7,-703.3 288.15,-703.3 288.15,-418.3 44.7,-418.3"/>
</g>
<!-- offers -->
<g id="node2" class="node">
<title>offers</title>
<polygon fill="#efefef" stroke="none" points="68.38,-258.8 68.38,-294.4 264.46,-294.4 264.46,-258.8 68.38,-258.8"/>
<polygon fill="none" stroke="black" points="68.38,-258.8 68.38,-294.4 264.46,-294.4 264.46,-258.8 68.38,-258.8"/>
<text text-anchor="start" x="110.81" y="-272.2" font-family="Arial Bold" font-size="18.00">offers</text>
<text text-anchor="start" x="152.78" y="-272.2" font-family="Arial" font-size="14.00">    </text>
<text text-anchor="start" x="183.9" y="-272.2" font-family="Arial" font-size="14.00" fill="#666666">[table]</text>
<polygon fill="none" stroke="black" points="68.38,-228 68.38,-258.8 264.46,-258.8 264.46,-228 68.38,-228"/>
<text text-anchor="start" x="75.38" y="-240.2" font-family="Arial" font-size="14.00">offer_id </text>
<text text-anchor="start" x="125.97" y="-240.2" font-family="Arial" font-size="14.00" fill="#666666">[BLOB]</text>
<polygon fill="none" stroke="black" points="68.38,-197.2 68.38,-228 264.46,-228 264.46,-197.2 68.38,-197.2"/>
<text text-anchor="start" x="75.38" y="-209.4" font-family="Arial" font-size="14.00">encoded_offer </text>
<text text-anchor="start" x="168.79" y="-209.4" font-family="Arial" font-size="14.00" fill="#666666">[TEXT]</text>
<polygon fill="none" stroke="black" points="68.38,-166.4 68.38,-197.2 264.46,-197.2 264.46,-166.4 68.38,-166.4"/>
<text text-anchor="start" x="75.38" y="-178.6" font-family="Arial" font-size="14.00">expiration_height </text>
<text text-anchor="start" x="185.91" y="-178.6" font-family="Arial" font-size="14.00" fill="#666666">[INTEGER]</text>
<polygon fill="none" stroke="black" points="68.38,-135.6 68.38,-166.4 264.46,-166.4 264.46,-135.6 68.38,-135.6"/>
<text text-anchor="start" x="75.38" y="-147.8" font-family="Arial" font-size="14.00">expiration_timestamp </text>
<text text-anchor="start" x="212.33" y="-147.8" font-family="Arial" font-size="14.00" fill="#666666">[BLOB]</text>
<polygon fill="none" stroke="black" points="68.38,-104.8 68.38,-135.6 264.46,-135.6 264.46,-104.8 68.38,-104.8"/>
<text text-anchor="start" x="75.38" y="-117" font-family="Arial" font-size="14.00">fee </text>
<text text-anchor="start" x="98.73" y="-117" font-family="Arial" font-size="14.00" fill="#666666">[BLOB]</text>
<polygon fill="none" stroke="black" points="68.38,-74 68.38,-104.8 264.46,-104.8 264.46,-74 68.38,-74"/>
<text text-anchor="start" x="75.38" y="-86.2" font-family="Arial" font-size="14.00">status </text>
<text text-anchor="start" x="116.62" y="-86.2" font-family="Arial" font-size="14.00" fill="#666666">[INTEGER]</text>
<polygon fill="none" stroke="black" points="68.38,-43.2 68.38,-74 264.46,-74 264.46,-43.2 68.38,-43.2"/>
<text text-anchor="start" x="75.38" y="-55.4" font-family="Arial" font-size="14.00">inserted_timestamp </text>
<text text-anchor="start" x="201.44" y="-55.4" font-family="Arial" font-size="14.00" fill="#666666">[BLOB]</text>
</g>
<!-- offer_nfts&#45;&gt;offers -->
<g id="edge1" class="edge">
<title>offer_nfts:offer_id&#45;&gt;offers:offer_id</title>
<path fill="none" stroke="black" d="M297.76,-648.98C376.48,-619.59 352.59,-243.4 265.46,-243.4"/>
<polygon fill="black" stroke="black" points="297.82,-648.97 287.18,-646.31 292.57,-649.92 288.31,-650.68 288.31,-650.68 288.31,-650.68 292.57,-649.92 288.77,-655.17 297.82,-648.97"/>
<text text-anchor="start" x="294.65" y="-660.8" font-family="Arial" font-size="10.00">FOREIGN KEY (offer_id) REFERENCES offers (offer_id) ON UPDATE NO ACTION ON DELETE CASCADE MATCH NONE</text>
</g>
</g>
</svg>
