<?xml version="1.0" encoding="UTF-8" standalone="no"?>
<!DOCTYPE svg PUBLIC "-//W3C//DTD SVG 1.1//EN"
 "http://www.w3.org/Graphics/SVG/1.1/DTD/svg11.dtd">
<!-- Generated by graphviz version 12.1.2 (20240928.0832)
 -->
<!-- Title: peaks Pages: 1 -->
<svg width="245pt" height="198pt"
 viewBox="0.00 0.00 245.16 197.60" xmlns="http://www.w3.org/2000/svg" xmlns:xlink="http://www.w3.org/1999/xlink">
<g id="graph0" class="graph" transform="scale(1 1) rotate(0) translate(4 193.6)">
<title>peaks</title>
<polygon fill="white" stroke="none" points="-4,4 -4,-193.6 241.16,-193.6 241.16,4 -4,4"/>
<!-- peaks -->
<g id="node1" class="node">
<title>peaks</title>
<polygon fill="#efefef" stroke="none" points="46.2,-107.8 46.2,-143.4 190.96,-143.4 190.96,-107.8 46.2,-107.8"/>
<polygon fill="none" stroke="black" points="46.2,-107.8 46.2,-143.4 190.96,-143.4 190.96,-107.8 46.2,-107.8"/>
<text text-anchor="start" x="63.46" y="-121.2" font-family="Arial Bold" font-size="18.00">peaks</text>
<text text-anchor="start" x="104.44" y="-121.2" font-family="Arial" font-size="14.00">    </text>
<text text-anchor="start" x="135.56" y="-121.2" font-family="Arial" font-size="14.00" fill="#666666">[table]</text>
<polygon fill="none" stroke="black" points="46.2,-77 46.2,-107.8 190.96,-107.8 190.96,-77 46.2,-77"/>
<text text-anchor="start" x="53.2" y="-89.2" font-family="Arial" font-size="14.00">height </text>
<text text-anchor="start" x="95.23" y="-89.2" font-family="Arial" font-size="14.00" fill="#666666">[INTEGER]</text>
<polygon fill="none" stroke="black" points="46.2,-46.2 46.2,-77 190.96,-77 190.96,-46.2 46.2,-46.2"/>
<text text-anchor="start" x="53.2" y="-58.4" font-family="Arial" font-size="14.00">header_hash </text>
<text text-anchor="start" x="138.83" y="-58.4" font-family="Arial" font-size="14.00" fill="#666666">[BLOB]</text>
<polygon fill="none" stroke="black" stroke-width="3" points="44.7,-44.7 44.7,-144.9 192.46,-144.9 192.46,-44.7 44.7,-44.7"/>
</g>
</g>
</svg>
