<?xml version="1.0" encoding="UTF-8" standalone="no"?>
<!DOCTYPE svg PUBLIC "-//W3C//DTD SVG 1.1//EN"
 "http://www.w3.org/Graphics/SVG/1.1/DTD/svg11.dtd">
<!-- Generated by graphviz version 12.1.2 (20240928.0832)
 -->
<!-- Title: rust_migrations Pages: 1 -->
<svg width="297pt" height="167pt"
 viewBox="0.00 0.00 296.65 166.80" xmlns="http://www.w3.org/2000/svg" xmlns:xlink="http://www.w3.org/1999/xlink">
<g id="graph0" class="graph" transform="scale(1 1) rotate(0) translate(4 162.8)">
<title>rust_migrations</title>
<polygon fill="white" stroke="none" points="-4,4 -4,-162.8 292.65,-162.8 292.65,4 -4,4"/>
<!-- rust_migrations -->
<g id="node1" class="node">
<title>rust_migrations</title>
<polygon fill="#efefef" stroke="none" points="46.2,-77 46.2,-112.6 242.45,-112.6 242.45,-77 46.2,-77"/>
<polygon fill="none" stroke="black" points="46.2,-77 46.2,-112.6 242.45,-112.6 242.45,-77 46.2,-77"/>
<text text-anchor="start" x="53.2" y="-90.4" font-family="Arial Bold" font-size="18.00">rust_migrations</text>
<text text-anchor="start" x="166.19" y="-90.4" font-family="Arial" font-size="14.00">    </text>
<text text-anchor="start" x="197.31" y="-90.4" font-family="Arial" font-size="14.00" fill="#666666">[table]</text>
<polygon fill="none" stroke="black" points="46.2,-46.2 46.2,-77 242.45,-77 242.45,-46.2 46.2,-46.2"/>
<text text-anchor="start" x="53.2" y="-58.4" font-family="Arial" font-size="14.00">version </text>
<text text-anchor="start" x="102.22" y="-58.4" font-family="Arial" font-size="14.00" fill="#666666">[INTEGER]</text>
<polygon fill="none" stroke="black" stroke-width="3" points="44.7,-44.7 44.7,-114.1 243.95,-114.1 243.95,-44.7 44.7,-44.7"/>
</g>
</g>
</svg>
