<?xml version="1.0" encoding="UTF-8" standalone="no"?>
<!DOCTYPE svg PUBLIC "-//W3C//DTD SVG 1.1//EN"
 "http://www.w3.org/Graphics/SVG/1.1/DTD/svg11.dtd">
<!-- Generated by graphviz version 12.1.2 (20240928.0832)
 -->
<!-- Title: transaction_spends Pages: 1 -->
<svg width="328pt" height="664pt"
 viewBox="0.00 0.00 328.41 663.60" xmlns="http://www.w3.org/2000/svg" xmlns:xlink="http://www.w3.org/1999/xlink">
<g id="graph0" class="graph" transform="scale(1 1) rotate(0) translate(4 659.6)">
<title>transaction_spends</title>
<polygon fill="white" stroke="none" points="-4,4 -4,-659.6 324.41,-659.6 324.41,4 -4,4"/>
<!-- transaction_spends -->
<g id="node1" class="node">
<title>transaction_spends</title>
<polygon fill="#efefef" stroke="none" points="46.2,-573.8 46.2,-609.4 266.42,-609.4 266.42,-573.8 46.2,-573.8"/>
<polygon fill="none" stroke="black" points="46.2,-573.8 46.2,-609.4 266.42,-609.4 266.42,-573.8 46.2,-573.8"/>
<text text-anchor="start" x="53.2" y="-587.2" font-family="Arial Bold" font-size="18.00">transaction_spends</text>
<text text-anchor="start" x="190.17" y="-587.2" font-family="Arial" font-size="14.00">    </text>
<text text-anchor="start" x="221.29" y="-587.2" font-family="Arial" font-size="14.00" fill="#666666">[table]</text>
<polygon fill="none" stroke="black" points="46.2,-543 46.2,-573.8 266.42,-573.8 266.42,-543 46.2,-543"/>
<text text-anchor="start" x="53.2" y="-555.2" font-family="Arial" font-size="14.00">coin_id </text>
<text text-anchor="start" x="101.45" y="-555.2" font-family="Arial" font-size="14.00" fill="#666666">[BLOB]</text>
<polygon fill="none" stroke="black" points="46.2,-512.2 46.2,-543 266.42,-543 266.42,-512.2 46.2,-512.2"/>
<text text-anchor="start" x="53.2" y="-524.4" font-family="Arial" font-size="14.00">index </text>
<text text-anchor="start" x="90.56" y="-524.4" font-family="Arial" font-size="14.00" fill="#666666">[INTEGER]</text>
<polygon fill="none" stroke="black" points="46.2,-481.4 46.2,-512.2 266.42,-512.2 266.42,-481.4 46.2,-481.4"/>
<text text-anchor="start" x="53.2" y="-493.6" font-family="Arial" font-size="14.00">transaction_id </text>
<text text-anchor="start" x="144.25" y="-493.6" font-family="Arial" font-size="14.00" fill="#666666">[BLOB]</text>
<polygon fill="none" stroke="black" points="46.2,-450.6 46.2,-481.4 266.42,-481.4 266.42,-450.6 46.2,-450.6"/>
<text text-anchor="start" x="53.2" y="-462.8" font-family="Arial" font-size="14.00">parent_coin_id </text>
<text text-anchor="start" x="148.94" y="-462.8" font-family="Arial" font-size="14.00" fill="#666666">[BLOB]</text>
<polygon fill="none" stroke="black" points="46.2,-419.8 46.2,-450.6 266.42,-450.6 266.42,-419.8 46.2,-419.8"/>
<text text-anchor="start" x="53.2" y="-432" font-family="Arial" font-size="14.00">puzzle_hash </text>
<text text-anchor="start" x="135.7" y="-432" font-family="Arial" font-size="14.00" fill="#666666">[BLOB]</text>
<polygon fill="none" stroke="black" points="46.2,-389 46.2,-419.8 266.42,-419.8 266.42,-389 46.2,-389"/>
<text text-anchor="start" x="53.2" y="-401.2" font-family="Arial" font-size="14.00">amount </text>
<text text-anchor="start" x="103.79" y="-401.2" font-family="Arial" font-size="14.00" fill="#666666">[BLOB]</text>
<polygon fill="none" stroke="black" points="46.2,-358.2 46.2,-389 266.42,-389 266.42,-358.2 46.2,-358.2"/>
<text text-anchor="start" x="53.2" y="-370.4" font-family="Arial" font-size="14.00">puzzle_reveal </text>
<text text-anchor="start" x="143.48" y="-370.4" font-family="Arial" font-size="14.00" fill="#666666">[BLOB]</text>
<polygon fill="none" stroke="black" points="46.2,-327.4 46.2,-358.2 266.42,-358.2 266.42,-327.4 46.2,-327.4"/>
<text text-anchor="start" x="53.2" y="-339.6" font-family="Arial" font-size="14.00">solution </text>
<text text-anchor="start" x="105.34" y="-339.6" font-family="Arial" font-size="14.00" fill="#666666">[BLOB]</text>
<polygon fill="none" stroke="black" stroke-width="3" points="44.7,-325.9 44.7,-610.9 267.92,-610.9 267.92,-325.9 44.7,-325.9"/>
</g>
<!-- transactions -->
<g id="node2" class="node">
<title>transactions</title>
<polygon fill="#efefef" stroke="none" points="56.69,-166.4 56.69,-202 255.93,-202 255.93,-166.4 56.69,-166.4"/>
<polygon fill="none" stroke="black" points="56.69,-166.4 56.69,-202 255.93,-202 255.93,-166.4 56.69,-166.4"/>
<text text-anchor="start" x="78.7" y="-179.8" font-family="Arial Bold" font-size="18.00">transactions</text>
<text text-anchor="start" x="164.67" y="-179.8" font-family="Arial" font-size="14.00">    </text>
<text text-anchor="start" x="195.79" y="-179.8" font-family="Arial" font-size="14.00" fill="#666666">[table]</text>
<polygon fill="none" stroke="black" points="56.69,-135.6 56.69,-166.4 255.93,-166.4 255.93,-135.6 56.69,-135.6"/>
<text text-anchor="start" x="63.69" y="-147.8" font-family="Arial" font-size="14.00">transaction_id </text>
<text text-anchor="start" x="154.75" y="-147.8" font-family="Arial" font-size="14.00" fill="#666666">[BLOB]</text>
<polygon fill="none" stroke="black" points="56.69,-104.8 56.69,-135.6 255.93,-135.6 255.93,-104.8 56.69,-104.8"/>
<text text-anchor="start" x="63.69" y="-117" font-family="Arial" font-size="14.00">aggregated_signature </text>
<text text-anchor="start" x="203.8" y="-117" font-family="Arial" font-size="14.00" fill="#666666">[BLOB]</text>
<polygon fill="none" stroke="black" points="56.69,-74 56.69,-104.8 255.93,-104.8 255.93,-74 56.69,-74"/>
<text text-anchor="start" x="63.69" y="-86.2" font-family="Arial" font-size="14.00">fee </text>
<text text-anchor="start" x="87.04" y="-86.2" font-family="Arial" font-size="14.00" fill="#666666">[BLOB]</text>
<polygon fill="none" stroke="black" points="56.69,-43.2 56.69,-74 255.93,-74 255.93,-43.2 56.69,-43.2"/>
<text text-anchor="start" x="63.69" y="-55.4" font-family="Arial" font-size="14.00">submitted_at </text>
<text text-anchor="start" x="147.74" y="-55.4" font-family="Arial" font-size="14.00" fill="#666666">[INTEGER]</text>
</g>
<!-- transaction_spends&#45;&gt;transactions -->
<g id="edge1" class="edge">
<title>transaction_spends:transaction_id&#45;&gt;transactions:transaction_id</title>
<path fill="none" stroke="black" d="M277.26,-494.77C343.23,-466.43 330.36,-151 256.93,-151"/>
<polygon fill="black" stroke="black" points="277.54,-494.71 266.84,-492.33 272.32,-495.79 268.08,-496.66 268.08,-496.66 268.08,-496.66 272.32,-495.79 268.66,-501.14 277.54,-494.71"/>
</g>
</g>
</svg>
