<?xml version="1.0" encoding="UTF-8" standalone="no"?>
<!DOCTYPE svg PUBLIC "-//W3C//DTD SVG 1.1//EN"
 "http://www.w3.org/Graphics/SVG/1.1/DTD/svg11.dtd">
<!-- Generated by graphviz version 12.1.2 (20240928.0832)
 -->
<!-- Title: transactions Pages: 1 -->
<svg width="600pt" height="787pt"
 viewBox="0.00 0.00 599.77 786.80" xmlns="http://www.w3.org/2000/svg" xmlns:xlink="http://www.w3.org/1999/xlink">
<g id="graph0" class="graph" transform="scale(1 1) rotate(0) translate(4 782.8)">
<title>transactions</title>
<polygon fill="white" stroke="none" points="-4,4 -4,-782.8 595.77,-782.8 595.77,4 -4,4"/>
<!-- transactions -->
<g id="node1" class="node">
<title>transactions</title>
<polygon fill="#efefef" stroke="none" points="185.84,-169.4 185.84,-205 385.08,-205 385.08,-169.4 185.84,-169.4"/>
<polygon fill="none" stroke="black" points="185.84,-169.4 185.84,-205 385.08,-205 385.08,-169.4 185.84,-169.4"/>
<text text-anchor="start" x="207.85" y="-182.8" font-family="Arial Bold" font-size="18.00">transactions</text>
<text text-anchor="start" x="293.82" y="-182.8" font-family="Arial" font-size="14.00">    </text>
<text text-anchor="start" x="324.94" y="-182.8" font-family="Arial" font-size="14.00" fill="#666666">[table]</text>
<polygon fill="none" stroke="black" points="185.84,-138.6 185.84,-169.4 385.08,-169.4 385.08,-138.6 185.84,-138.6"/>
<text text-anchor="start" x="192.84" y="-150.8" font-family="Arial" font-size="14.00">transaction_id </text>
<text text-anchor="start" x="283.9" y="-150.8" font-family="Arial" font-size="14.00" fill="#666666">[BLOB]</text>
<polygon fill="none" stroke="black" points="185.84,-107.8 185.84,-138.6 385.08,-138.6 385.08,-107.8 185.84,-107.8"/>
<text text-anchor="start" x="192.84" y="-120" font-family="Arial" font-size="14.00">aggregated_signature </text>
<text text-anchor="start" x="332.95" y="-120" font-family="Arial" font-size="14.00" fill="#666666">[BLOB]</text>
<polygon fill="none" stroke="black" points="185.84,-77 185.84,-107.8 385.08,-107.8 385.08,-77 185.84,-77"/>
<text text-anchor="start" x="192.84" y="-89.2" font-family="Arial" font-size="14.00">fee </text>
<text text-anchor="start" x="216.19" y="-89.2" font-family="Arial" font-size="14.00" fill="#666666">[BLOB]</text>
<polygon fill="none" stroke="black" points="185.84,-46.2 185.84,-77 385.08,-77 385.08,-46.2 185.84,-46.2"/>
<text text-anchor="start" x="192.84" y="-58.4" font-family="Arial" font-size="14.00">submitted_at </text>
<text text-anchor="start" x="276.89" y="-58.4" font-family="Arial" font-size="14.00" fill="#666666">[INTEGER]</text>
<polygon fill="none" stroke="black" stroke-width="3" points="184.34,-44.7 184.34,-206.5 386.58,-206.5 386.58,-44.7 184.34,-44.7"/>
</g>
<!-- coin_states -->
<g id="node2" class="node">
<title>coin_states</title>
<polygon fill="#efefef" stroke="none" points="43.2,-700 43.2,-735.6 223.72,-735.6 223.72,-700 43.2,-700"/>
<polygon fill="none" stroke="black" points="43.2,-700 43.2,-735.6 223.72,-735.6 223.72,-700 43.2,-700"/>
<text text-anchor="start" x="58.84" y="-713.4" font-family="Arial Bold" font-size="18.00">coin_states</text>
<text text-anchor="start" x="138.82" y="-713.4" font-family="Arial" font-size="14.00">    </text>
<text text-anchor="start" x="169.94" y="-713.4" font-family="Arial" font-size="14.00" fill="#666666">[table]</text>
<polygon fill="none" stroke="black" points="43.2,-669.2 43.2,-700 223.72,-700 223.72,-669.2 43.2,-669.2"/>
<text text-anchor="start" x="50.2" y="-681.4" font-family="Arial" font-size="14.00">coin_id </text>
<text text-anchor="start" x="98.45" y="-681.4" font-family="Arial" font-size="14.00" fill="#666666">[BLOB]</text>
<polygon fill="none" stroke="black" points="43.2,-638.4 43.2,-669.2 223.72,-669.2 223.72,-638.4 43.2,-638.4"/>
<text text-anchor="start" x="50.2" y="-650.6" font-family="Arial" font-size="14.00">parent_coin_id </text>
<text text-anchor="start" x="145.94" y="-650.6" font-family="Arial" font-size="14.00" fill="#666666">[BLOB]</text>
<polygon fill="none" stroke="black" points="43.2,-607.6 43.2,-638.4 223.72,-638.4 223.72,-607.6 43.2,-607.6"/>
<text text-anchor="start" x="50.2" y="-619.8" font-family="Arial" font-size="14.00">puzzle_hash </text>
<text text-anchor="start" x="132.7" y="-619.8" font-family="Arial" font-size="14.00" fill="#666666">[BLOB]</text>
<polygon fill="none" stroke="black" points="43.2,-576.8 43.2,-607.6 223.72,-607.6 223.72,-576.8 43.2,-576.8"/>
<text text-anchor="start" x="50.2" y="-589" font-family="Arial" font-size="14.00">amount </text>
<text text-anchor="start" x="100.79" y="-589" font-family="Arial" font-size="14.00" fill="#666666">[BLOB]</text>
<polygon fill="none" stroke="black" points="43.2,-546 43.2,-576.8 223.72,-576.8 223.72,-546 43.2,-546"/>
<text text-anchor="start" x="50.2" y="-558.2" font-family="Arial" font-size="14.00">spent_height </text>
<text text-anchor="start" x="134.27" y="-558.2" font-family="Arial" font-size="14.00" fill="#666666">[INTEGER]</text>
<polygon fill="none" stroke="black" points="43.2,-515.2 43.2,-546 223.72,-546 223.72,-515.2 43.2,-515.2"/>
<text text-anchor="start" x="50.2" y="-527.4" font-family="Arial" font-size="14.00">created_height </text>
<text text-anchor="start" x="146.72" y="-527.4" font-family="Arial" font-size="14.00" fill="#666666">[INTEGER]</text>
<polygon fill="none" stroke="black" points="43.2,-484.4 43.2,-515.2 223.72,-515.2 223.72,-484.4 43.2,-484.4"/>
<text text-anchor="start" x="50.2" y="-496.6" font-family="Arial" font-size="14.00">hint </text>
<text text-anchor="start" x="76.66" y="-496.6" font-family="Arial" font-size="14.00" fill="#666666">[BLOB]</text>
<polygon fill="none" stroke="black" points="43.2,-453.6 43.2,-484.4 223.72,-484.4 223.72,-453.6 43.2,-453.6"/>
<text text-anchor="start" x="50.2" y="-465.8" font-family="Arial" font-size="14.00">synced </text>
<text text-anchor="start" x="98.45" y="-465.8" font-family="Arial" font-size="14.00" fill="#666666">[BOOLEAN]</text>
<polygon fill="none" stroke="black" points="43.2,-422.8 43.2,-453.6 223.72,-453.6 223.72,-422.8 43.2,-422.8"/>
<text text-anchor="start" x="50.2" y="-435" font-family="Arial" font-size="14.00">transaction_id </text>
<text text-anchor="start" x="141.25" y="-435" font-family="Arial" font-size="14.00" fill="#666666">[BLOB]</text>
<polygon fill="none" stroke="black" points="43.2,-392 43.2,-422.8 223.72,-422.8 223.72,-392 43.2,-392"/>
<text text-anchor="start" x="50.2" y="-404.2" font-family="Arial" font-size="14.00">kind </text>
<text text-anchor="start" x="79.77" y="-404.2" font-family="Arial" font-size="14.00" fill="#666666">[INTEGER]</text>
<polygon fill="none" stroke="black" points="43.2,-361.2 43.2,-392 223.72,-392 223.72,-361.2 43.2,-361.2"/>
<text text-anchor="start" x="50.2" y="-373.4" font-family="Arial" font-size="14.00">spent_unixtime </text>
<text text-anchor="start" x="148.25" y="-373.4" font-family="Arial" font-size="14.00" fill="#666666">[BIGINT]</text>
<polygon fill="none" stroke="black" points="43.2,-330.4 43.2,-361.2 223.72,-361.2 223.72,-330.4 43.2,-330.4"/>
<text text-anchor="start" x="50.2" y="-342.6" font-family="Arial" font-size="14.00">created_unixtime </text>
<text text-anchor="start" x="160.7" y="-342.6" font-family="Arial" font-size="14.00" fill="#666666">[BIGINT]</text>
</g>
<!-- coin_states&#45;&gt;transactions -->
<g id="edge1" class="edge">
<title>coin_states:transaction_id&#45;&gt;transactions:transaction_id</title>
<path fill="none" stroke="black" d="M235.1,-437.36C287.19,-428.16 248.89,-345.3 223.72,-287.2 214.49,-265.89 195.11,-272.5 185.84,-251.2 168.6,-211.59 141.64,-154 184.84,-154"/>
<polygon fill="black" stroke="black" points="235.02,-437.37 224.69,-433.69 229.71,-437.8 225.39,-438.15 225.39,-438.15 225.39,-438.15 229.71,-437.8 225.42,-442.66 235.02,-437.37"/>
</g>
<!-- transaction_spends -->
<g id="node3" class="node">
<title>transaction_spends</title>
<polygon fill="#efefef" stroke="none" points="328.35,-638.4 328.35,-674 548.57,-674 548.57,-638.4 328.35,-638.4"/>
<polygon fill="none" stroke="black" points="328.35,-638.4 328.35,-674 548.57,-674 548.57,-638.4 328.35,-638.4"/>
<text text-anchor="start" x="335.35" y="-651.8" font-family="Arial Bold" font-size="18.00">transaction_spends</text>
<text text-anchor="start" x="472.32" y="-651.8" font-family="Arial" font-size="14.00">    </text>
<text text-anchor="start" x="503.44" y="-651.8" font-family="Arial" font-size="14.00" fill="#666666">[table]</text>
<polygon fill="none" stroke="black" points="328.35,-607.6 328.35,-638.4 548.57,-638.4 548.57,-607.6 328.35,-607.6"/>
<text text-anchor="start" x="335.35" y="-619.8" font-family="Arial" font-size="14.00">coin_id </text>
<text text-anchor="start" x="383.6" y="-619.8" font-family="Arial" font-size="14.00" fill="#666666">[BLOB]</text>
<polygon fill="none" stroke="black" points="328.35,-576.8 328.35,-607.6 548.57,-607.6 548.57,-576.8 328.35,-576.8"/>
<text text-anchor="start" x="335.35" y="-589" font-family="Arial" font-size="14.00">index </text>
<text text-anchor="start" x="372.71" y="-589" font-family="Arial" font-size="14.00" fill="#666666">[INTEGER]</text>
<polygon fill="none" stroke="black" points="328.35,-546 328.35,-576.8 548.57,-576.8 548.57,-546 328.35,-546"/>
<text text-anchor="start" x="335.35" y="-558.2" font-family="Arial" font-size="14.00">transaction_id </text>
<text text-anchor="start" x="426.4" y="-558.2" font-family="Arial" font-size="14.00" fill="#666666">[BLOB]</text>
<polygon fill="none" stroke="black" points="328.35,-515.2 328.35,-546 548.57,-546 548.57,-515.2 328.35,-515.2"/>
<text text-anchor="start" x="335.35" y="-527.4" font-family="Arial" font-size="14.00">parent_coin_id </text>
<text text-anchor="start" x="431.09" y="-527.4" font-family="Arial" font-size="14.00" fill="#666666">[BLOB]</text>
<polygon fill="none" stroke="black" points="328.35,-484.4 328.35,-515.2 548.57,-515.2 548.57,-484.4 328.35,-484.4"/>
<text text-anchor="start" x="335.35" y="-496.6" font-family="Arial" font-size="14.00">puzzle_hash </text>
<text text-anchor="start" x="417.85" y="-496.6" font-family="Arial" font-size="14.00" fill="#666666">[BLOB]</text>
<polygon fill="none" stroke="black" points="328.35,-453.6 328.35,-484.4 548.57,-484.4 548.57,-453.6 328.35,-453.6"/>
<text text-anchor="start" x="335.35" y="-465.8" font-family="Arial" font-size="14.00">amount </text>
<text text-anchor="start" x="385.94" y="-465.8" font-family="Arial" font-size="14.00" fill="#666666">[BLOB]</text>
<polygon fill="none" stroke="black" points="328.35,-422.8 328.35,-453.6 548.57,-453.6 548.57,-422.8 328.35,-422.8"/>
<text text-anchor="start" x="335.35" y="-435" font-family="Arial" font-size="14.00">puzzle_reveal </text>
<text text-anchor="start" x="425.63" y="-435" font-family="Arial" font-size="14.00" fill="#666666">[BLOB]</text>
<polygon fill="none" stroke="black" points="328.35,-392 328.35,-422.8 548.57,-422.8 548.57,-392 328.35,-392"/>
<text text-anchor="start" x="335.35" y="-404.2" font-family="Arial" font-size="14.00">solution </text>
<text text-anchor="start" x="387.49" y="-404.2" font-family="Arial" font-size="14.00" fill="#666666">[BLOB]</text>
</g>
<!-- transaction_spends&#45;&gt;transactions -->
<g id="edge2" class="edge">
<title>transaction_spends:transaction_id&#45;&gt;transactions:transaction_id</title>
<path fill="none" stroke="black" d="M317.02,-560.85C238.31,-551.96 304.51,-436.41 328.35,-348.8 341.52,-300.39 371.78,-299.58 385.08,-251.2 396.54,-209.54 429.28,-154 386.08,-154"/>
<polygon fill="black" stroke="black" points="317.03,-560.85 326.78,-565.88 322.36,-561.14 326.68,-561.36 326.68,-561.36 326.68,-561.36 322.36,-561.14 327.25,-556.89 317.03,-560.85"/>
</g>
</g>
</svg>
