<?xml version="1.0" encoding="UTF-8" standalone="no"?>
<!DOCTYPE svg PUBLIC "-//W3C//DTD SVG 1.1//EN"
 "http://www.w3.org/Graphics/SVG/1.1/DTD/svg11.dtd">
<!-- Generated by graphviz version 12.1.2 (20240928.0832)
 -->
<!-- Title: transactions Pages: 1 -->
<svg width="1418pt" height="787pt"
 viewBox="0.00 0.00 1417.82 786.80" xmlns="http://www.w3.org/2000/svg" xmlns:xlink="http://www.w3.org/1999/xlink">
<g id="graph0" class="graph" transform="scale(1 1) rotate(0) translate(4 782.8)">
<title>transactions</title>
<polygon fill="white" stroke="none" points="-4,4 -4,-782.8 1413.82,-782.8 1413.82,4 -4,4"/>
<!-- transactions -->
<g id="node1" class="node">
<title>transactions</title>
<polygon fill="#efefef" stroke="none" points="614.71,-169.4 614.71,-205 813.95,-205 813.95,-169.4 614.71,-169.4"/>
<polygon fill="none" stroke="black" points="614.71,-169.4 614.71,-205 813.95,-205 813.95,-169.4 614.71,-169.4"/>
<text text-anchor="start" x="636.72" y="-182.8" font-family="Arial Bold" font-size="18.00">transactions</text>
<text text-anchor="start" x="722.69" y="-182.8" font-family="Arial" font-size="14.00">    </text>
<text text-anchor="start" x="753.81" y="-182.8" font-family="Arial" font-size="14.00" fill="#666666">[table]</text>
<polygon fill="none" stroke="black" points="614.71,-138.6 614.71,-169.4 813.95,-169.4 813.95,-138.6 614.71,-138.6"/>
<text text-anchor="start" x="621.71" y="-150.8" font-family="Arial" font-size="14.00">transaction_id </text>
<text text-anchor="start" x="712.77" y="-150.8" font-family="Arial" font-size="14.00" fill="#666666">[BLOB]</text>
<polygon fill="none" stroke="black" points="614.71,-107.8 614.71,-138.6 813.95,-138.6 813.95,-107.8 614.71,-107.8"/>
<text text-anchor="start" x="621.71" y="-120" font-family="Arial" font-size="14.00">aggregated_signature </text>
<text text-anchor="start" x="761.82" y="-120" font-family="Arial" font-size="14.00" fill="#666666">[BLOB]</text>
<polygon fill="none" stroke="black" points="614.71,-77 614.71,-107.8 813.95,-107.8 813.95,-77 614.71,-77"/>
<text text-anchor="start" x="621.71" y="-89.2" font-family="Arial" font-size="14.00">fee </text>
<text text-anchor="start" x="645.06" y="-89.2" font-family="Arial" font-size="14.00" fill="#666666">[BLOB]</text>
<polygon fill="none" stroke="black" points="614.71,-46.2 614.71,-77 813.95,-77 813.95,-46.2 614.71,-46.2"/>
<text text-anchor="start" x="621.71" y="-58.4" font-family="Arial" font-size="14.00">submitted_at </text>
<text text-anchor="start" x="705.76" y="-58.4" font-family="Arial" font-size="14.00" fill="#666666">[INTEGER]</text>
<polygon fill="none" stroke="black" stroke-width="3" points="613.21,-44.7 613.21,-206.5 815.45,-206.5 815.45,-44.7 613.21,-44.7"/>
</g>
<!-- coin_states -->
<g id="node2" class="node">
<title>coin_states</title>
<polygon fill="#efefef" stroke="none" points="472.07,-700 472.07,-735.6 652.59,-735.6 652.59,-700 472.07,-700"/>
<polygon fill="none" stroke="black" points="472.07,-700 472.07,-735.6 652.59,-735.6 652.59,-700 472.07,-700"/>
<text text-anchor="start" x="487.72" y="-713.4" font-family="Arial Bold" font-size="18.00">coin_states</text>
<text text-anchor="start" x="567.7" y="-713.4" font-family="Arial" font-size="14.00">    </text>
<text text-anchor="start" x="598.81" y="-713.4" font-family="Arial" font-size="14.00" fill="#666666">[table]</text>
<polygon fill="none" stroke="black" points="472.07,-669.2 472.07,-700 652.59,-700 652.59,-669.2 472.07,-669.2"/>
<text text-anchor="start" x="479.07" y="-681.4" font-family="Arial" font-size="14.00">coin_id </text>
<text text-anchor="start" x="527.33" y="-681.4" font-family="Arial" font-size="14.00" fill="#666666">[BLOB]</text>
<polygon fill="none" stroke="black" points="472.07,-638.4 472.07,-669.2 652.59,-669.2 652.59,-638.4 472.07,-638.4"/>
<text text-anchor="start" x="479.07" y="-650.6" font-family="Arial" font-size="14.00">parent_coin_id </text>
<text text-anchor="start" x="574.81" y="-650.6" font-family="Arial" font-size="14.00" fill="#666666">[BLOB]</text>
<polygon fill="none" stroke="black" points="472.07,-607.6 472.07,-638.4 652.59,-638.4 652.59,-607.6 472.07,-607.6"/>
<text text-anchor="start" x="479.07" y="-619.8" font-family="Arial" font-size="14.00">puzzle_hash </text>
<text text-anchor="start" x="561.57" y="-619.8" font-family="Arial" font-size="14.00" fill="#666666">[BLOB]</text>
<polygon fill="none" stroke="black" points="472.07,-576.8 472.07,-607.6 652.59,-607.6 652.59,-576.8 472.07,-576.8"/>
<text text-anchor="start" x="479.07" y="-589" font-family="Arial" font-size="14.00">amount </text>
<text text-anchor="start" x="529.66" y="-589" font-family="Arial" font-size="14.00" fill="#666666">[BLOB]</text>
<polygon fill="none" stroke="black" points="472.07,-546 472.07,-576.8 652.59,-576.8 652.59,-546 472.07,-546"/>
<text text-anchor="start" x="479.07" y="-558.2" font-family="Arial" font-size="14.00">spent_height </text>
<text text-anchor="start" x="563.14" y="-558.2" font-family="Arial" font-size="14.00" fill="#666666">[INTEGER]</text>
<polygon fill="none" stroke="black" points="472.07,-515.2 472.07,-546 652.59,-546 652.59,-515.2 472.07,-515.2"/>
<text text-anchor="start" x="479.07" y="-527.4" font-family="Arial" font-size="14.00">created_height </text>
<text text-anchor="start" x="575.59" y="-527.4" font-family="Arial" font-size="14.00" fill="#666666">[INTEGER]</text>
<polygon fill="none" stroke="black" points="472.07,-484.4 472.07,-515.2 652.59,-515.2 652.59,-484.4 472.07,-484.4"/>
<text text-anchor="start" x="479.07" y="-496.6" font-family="Arial" font-size="14.00">hint </text>
<text text-anchor="start" x="505.53" y="-496.6" font-family="Arial" font-size="14.00" fill="#666666">[BLOB]</text>
<polygon fill="none" stroke="black" points="472.07,-453.6 472.07,-484.4 652.59,-484.4 652.59,-453.6 472.07,-453.6"/>
<text text-anchor="start" x="479.07" y="-465.8" font-family="Arial" font-size="14.00">synced </text>
<text text-anchor="start" x="527.32" y="-465.8" font-family="Arial" font-size="14.00" fill="#666666">[BOOLEAN]</text>
<polygon fill="none" stroke="black" points="472.07,-422.8 472.07,-453.6 652.59,-453.6 652.59,-422.8 472.07,-422.8"/>
<text text-anchor="start" x="479.07" y="-435" font-family="Arial" font-size="14.00">transaction_id </text>
<text text-anchor="start" x="570.13" y="-435" font-family="Arial" font-size="14.00" fill="#666666">[BLOB]</text>
<polygon fill="none" stroke="black" points="472.07,-392 472.07,-422.8 652.59,-422.8 652.59,-392 472.07,-392"/>
<text text-anchor="start" x="479.07" y="-404.2" font-family="Arial" font-size="14.00">kind </text>
<text text-anchor="start" x="508.64" y="-404.2" font-family="Arial" font-size="14.00" fill="#666666">[INTEGER]</text>
<polygon fill="none" stroke="black" points="472.07,-361.2 472.07,-392 652.59,-392 652.59,-361.2 472.07,-361.2"/>
<text text-anchor="start" x="479.07" y="-373.4" font-family="Arial" font-size="14.00">spent_unixtime </text>
<text text-anchor="start" x="577.13" y="-373.4" font-family="Arial" font-size="14.00" fill="#666666">[BIGINT]</text>
<polygon fill="none" stroke="black" points="472.07,-330.4 472.07,-361.2 652.59,-361.2 652.59,-330.4 472.07,-330.4"/>
<text text-anchor="start" x="479.07" y="-342.6" font-family="Arial" font-size="14.00">created_unixtime </text>
<text text-anchor="start" x="589.57" y="-342.6" font-family="Arial" font-size="14.00" fill="#666666">[BIGINT]</text>
</g>
<!-- coin_states&#45;&gt;transactions -->
<g id="edge1" class="edge">
<title>coin_states:transaction_id&#45;&gt;transactions:transaction_id</title>
<path fill="none" stroke="black" d="M663.98,-437.36C716.06,-428.16 677.76,-345.3 652.59,-287.2 643.36,-265.89 623.98,-272.5 614.71,-251.2 597.47,-211.59 570.51,-154 613.71,-154"/>
<polygon fill="black" stroke="black" points="663.9,-437.37 653.57,-433.69 658.58,-437.8 654.26,-438.15 654.26,-438.15 654.26,-438.15 658.58,-437.8 654.29,-442.66 663.9,-437.37"/>
<text text-anchor="start" x="7" y="-448.2" font-family="Arial" font-size="10.00">FOREIGN KEY (transaction_id) REFERENCES transactions (transaction_id) ON UPDATE NO ACTION ON DELETE CASCADE MATCH NONE</text>
</g>
<!-- transaction_spends -->
<g id="node3" class="node">
<title>transaction_spends</title>
<polygon fill="#efefef" stroke="none" points="757.22,-638.4 757.22,-674 977.44,-674 977.44,-638.4 757.22,-638.4"/>
<polygon fill="none" stroke="black" points="757.22,-638.4 757.22,-674 977.44,-674 977.44,-638.4 757.22,-638.4"/>
<text text-anchor="start" x="764.22" y="-651.8" font-family="Arial Bold" font-size="18.00">transaction_spends</text>
<text text-anchor="start" x="901.19" y="-651.8" font-family="Arial" font-size="14.00">    </text>
<text text-anchor="start" x="932.31" y="-651.8" font-family="Arial" font-size="14.00" fill="#666666">[table]</text>
<polygon fill="none" stroke="black" points="757.22,-607.6 757.22,-638.4 977.44,-638.4 977.44,-607.6 757.22,-607.6"/>
<text text-anchor="start" x="764.22" y="-619.8" font-family="Arial" font-size="14.00">coin_id </text>
<text text-anchor="start" x="812.48" y="-619.8" font-family="Arial" font-size="14.00" fill="#666666">[BLOB]</text>
<polygon fill="none" stroke="black" points="757.22,-576.8 757.22,-607.6 977.44,-607.6 977.44,-576.8 757.22,-576.8"/>
<text text-anchor="start" x="764.22" y="-589" font-family="Arial" font-size="14.00">index </text>
<text text-anchor="start" x="801.58" y="-589" font-family="Arial" font-size="14.00" fill="#666666">[INTEGER]</text>
<polygon fill="none" stroke="black" points="757.22,-546 757.22,-576.8 977.44,-576.8 977.44,-546 757.22,-546"/>
<text text-anchor="start" x="764.22" y="-558.2" font-family="Arial" font-size="14.00">transaction_id </text>
<text text-anchor="start" x="855.28" y="-558.2" font-family="Arial" font-size="14.00" fill="#666666">[BLOB]</text>
<polygon fill="none" stroke="black" points="757.22,-515.2 757.22,-546 977.44,-546 977.44,-515.2 757.22,-515.2"/>
<text text-anchor="start" x="764.22" y="-527.4" font-family="Arial" font-size="14.00">parent_coin_id </text>
<text text-anchor="start" x="859.96" y="-527.4" font-family="Arial" font-size="14.00" fill="#666666">[BLOB]</text>
<polygon fill="none" stroke="black" points="757.22,-484.4 757.22,-515.2 977.44,-515.2 977.44,-484.4 757.22,-484.4"/>
<text text-anchor="start" x="764.22" y="-496.6" font-family="Arial" font-size="14.00">puzzle_hash </text>
<text text-anchor="start" x="846.72" y="-496.6" font-family="Arial" font-size="14.00" fill="#666666">[BLOB]</text>
<polygon fill="none" stroke="black" points="757.22,-453.6 757.22,-484.4 977.44,-484.4 977.44,-453.6 757.22,-453.6"/>
<text text-anchor="start" x="764.22" y="-465.8" font-family="Arial" font-size="14.00">amount </text>
<text text-anchor="start" x="814.81" y="-465.8" font-family="Arial" font-size="14.00" fill="#666666">[BLOB]</text>
<polygon fill="none" stroke="black" points="757.22,-422.8 757.22,-453.6 977.44,-453.6 977.44,-422.8 757.22,-422.8"/>
<text text-anchor="start" x="764.22" y="-435" font-family="Arial" font-size="14.00">puzzle_reveal </text>
<text text-anchor="start" x="854.5" y="-435" font-family="Arial" font-size="14.00" fill="#666666">[BLOB]</text>
<polygon fill="none" stroke="black" points="757.22,-392 757.22,-422.8 977.44,-422.8 977.44,-392 757.22,-392"/>
<text text-anchor="start" x="764.22" y="-404.2" font-family="Arial" font-size="14.00">solution </text>
<text text-anchor="start" x="816.37" y="-404.2" font-family="Arial" font-size="14.00" fill="#666666">[BLOB]</text>
</g>
<!-- transaction_spends&#45;&gt;transactions -->
<g id="edge2" class="edge">
<title>transaction_spends:transaction_id&#45;&gt;transactions:transaction_id</title>
<path fill="none" stroke="black" d="M745.89,-560.85C667.18,-551.96 733.39,-436.41 757.22,-348.8 770.39,-300.39 800.65,-299.58 813.95,-251.2 825.41,-209.54 858.16,-154 814.95,-154"/>
<polygon fill="black" stroke="black" points="745.9,-560.85 755.65,-565.88 751.23,-561.14 755.55,-561.36 755.55,-561.36 755.55,-561.36 751.23,-561.14 756.13,-556.89 745.9,-560.85"/>
<text text-anchor="start" x="763.22" y="-571.4" font-family="Arial" font-size="10.00">FOREIGN KEY (transaction_id) REFERENCES transactions (transaction_id) ON UPDATE NO ACTION ON DELETE CASCADE MATCH NONE</text>
</g>
</g>
</svg>
